G04 #@! TF.FileFunction,Copper,L1,Top,Signal*
%FSLAX46Y46*%
G04 Gerber Fmt 4.6, Leading zero omitted, Abs format (unit mm)*
G04 Created by KiCad (PCBNEW 4.0.2-stable) date 2/24/2017 09:05:39*
%MOMM*%
G01*
G04 APERTURE LIST*
%ADD10C,0.100000*%
%ADD11R,4.000000X2.500000*%
%ADD12O,1.998980X1.998980*%
%ADD13R,1.998980X1.998980*%
%ADD14R,3.500000X2.000000*%
%ADD15R,7.000000X7.000000*%
%ADD16R,1.600000X2.000000*%
%ADD17R,1.600000X0.550000*%
%ADD18R,0.550000X1.600000*%
%ADD19C,2.499360*%
%ADD20R,1.700000X2.000000*%
%ADD21R,2.000000X1.700000*%
%ADD22C,1.500000*%
%ADD23R,0.899160X1.998980*%
%ADD24R,1.000760X1.998980*%
%ADD25R,2.000000X0.600000*%
%ADD26C,0.600000*%
%ADD27C,0.250000*%
%ADD28C,0.400000*%
%ADD29C,0.500000*%
%ADD30C,0.254000*%
G04 APERTURE END LIST*
D10*
D11*
X205000000Y-31000000D03*
X197000000Y-31000000D03*
D12*
X200080000Y-70000000D03*
D13*
X195000000Y-70000000D03*
D12*
X197540000Y-70000000D03*
D14*
X214700000Y-63790000D03*
X214700000Y-59210000D03*
D15*
X207300000Y-61490000D03*
D16*
X220000000Y-41500000D03*
X220000000Y-37500000D03*
X220000000Y-57000000D03*
X220000000Y-61000000D03*
X225000000Y-39000000D03*
X225000000Y-35000000D03*
X237000000Y-51000000D03*
X237000000Y-47000000D03*
X231500000Y-67500000D03*
X231500000Y-63500000D03*
X209000000Y-35000000D03*
X209000000Y-31000000D03*
D17*
X234250000Y-51800000D03*
X234250000Y-51000000D03*
X234250000Y-50200000D03*
X234250000Y-49400000D03*
X234250000Y-48600000D03*
X234250000Y-47800000D03*
X234250000Y-47000000D03*
X234250000Y-46200000D03*
D18*
X232800000Y-44750000D03*
X232000000Y-44750000D03*
X231200000Y-44750000D03*
X230400000Y-44750000D03*
X229600000Y-44750000D03*
X228800000Y-44750000D03*
X228000000Y-44750000D03*
X227200000Y-44750000D03*
D17*
X225750000Y-46200000D03*
X225750000Y-47000000D03*
X225750000Y-47800000D03*
X225750000Y-48600000D03*
X225750000Y-49400000D03*
X225750000Y-50200000D03*
X225750000Y-51000000D03*
X225750000Y-51800000D03*
D18*
X227200000Y-53250000D03*
X228000000Y-53250000D03*
X228800000Y-53250000D03*
X229600000Y-53250000D03*
X230400000Y-53250000D03*
X231200000Y-53250000D03*
X232000000Y-53250000D03*
X232800000Y-53250000D03*
D19*
X235000000Y-58500000D03*
D12*
X206540000Y-70000000D03*
D13*
X204000000Y-70000000D03*
D10*
G36*
X235000000Y-36000000D02*
X239000000Y-36000000D01*
X239000000Y-37000000D01*
X235000000Y-37000000D01*
X235000000Y-36000000D01*
X235000000Y-36000000D01*
G37*
G36*
X235000000Y-33500000D02*
X239000000Y-33500000D01*
X239000000Y-34500000D01*
X235000000Y-34500000D01*
X235000000Y-33500000D01*
X235000000Y-33500000D01*
G37*
G36*
X235000000Y-31000000D02*
X239000000Y-31000000D01*
X239000000Y-32000000D01*
X235000000Y-32000000D01*
X235000000Y-31000000D01*
X235000000Y-31000000D01*
G37*
D12*
X196000000Y-57380000D03*
D13*
X196000000Y-65000000D03*
D12*
X196000000Y-62460000D03*
X196000000Y-59920000D03*
X196000000Y-54840000D03*
D19*
X235000000Y-68000000D03*
X235000000Y-63500000D03*
D12*
X197000000Y-41380000D03*
D13*
X197000000Y-49000000D03*
D12*
X197000000Y-46460000D03*
X197000000Y-43920000D03*
X197000000Y-38840000D03*
D20*
X230000000Y-39000000D03*
X230000000Y-35000000D03*
D21*
X229500000Y-58500000D03*
X225500000Y-58500000D03*
X214500000Y-70500000D03*
X218500000Y-70500000D03*
D22*
X220000000Y-47000000D03*
X220000000Y-51880000D03*
D23*
X225151260Y-62200160D03*
D24*
X227800480Y-62200160D03*
X227800480Y-69799840D03*
X225199520Y-69799840D03*
D25*
X213700000Y-54080000D03*
X213700000Y-52810000D03*
X213700000Y-51540000D03*
X213700000Y-50270000D03*
X213700000Y-49000000D03*
X213700000Y-47730000D03*
X213700000Y-46460000D03*
X213700000Y-45190000D03*
X213700000Y-43920000D03*
X204300000Y-43920000D03*
X204300000Y-45190000D03*
X204300000Y-46460000D03*
X204300000Y-47730000D03*
X204300000Y-49000000D03*
X204300000Y-50270000D03*
X204300000Y-51540000D03*
X204300000Y-52810000D03*
X204300000Y-54080000D03*
D26*
X232000000Y-47000000D03*
X229500000Y-50500000D03*
X232000000Y-50500000D03*
X228000000Y-51000000D03*
X222500000Y-56500000D03*
X217500000Y-37500000D03*
X211500000Y-37500000D03*
X229387315Y-48950029D03*
X218100000Y-49100000D03*
X217900000Y-51400000D03*
X217100000Y-54500000D03*
X217900000Y-51400000D03*
X218100000Y-49100000D03*
X223200000Y-47600000D03*
X227600000Y-47600000D03*
X231400000Y-47800000D03*
X223500000Y-66500000D03*
X217000000Y-66500000D03*
X234500000Y-55500000D03*
X213500000Y-41500000D03*
X232500000Y-40000000D03*
X227500000Y-42500000D03*
X210000000Y-47500000D03*
X230031675Y-49424180D03*
X230839006Y-46539020D03*
X228800000Y-46200000D03*
X223000000Y-51600000D03*
X228010593Y-48491228D03*
X235500000Y-35000000D03*
X234000000Y-38000000D03*
X235500000Y-40500000D03*
X216000000Y-50500000D03*
X226000000Y-42000000D03*
X230000000Y-32500000D03*
X220844989Y-49344989D03*
X216000000Y-49000000D03*
X211500000Y-47500000D03*
X225500000Y-55500000D03*
X211500000Y-45000000D03*
X227500000Y-55500000D03*
X231999980Y-48500020D03*
X232500000Y-32500000D03*
X229000000Y-42500000D03*
X231000000Y-56000000D03*
X214000000Y-66500000D03*
X232000000Y-58500000D03*
D27*
X234250000Y-47000000D02*
X232000000Y-47000000D01*
X220000000Y-47000000D02*
X220000000Y-41500000D01*
X234250000Y-48600000D02*
X235100000Y-48600000D01*
X235100000Y-48600000D02*
X237000000Y-50500000D01*
X237000000Y-50500000D02*
X237000000Y-51000000D01*
X223500000Y-36700000D02*
X225000000Y-35200000D01*
X225000000Y-35200000D02*
X225000000Y-35000000D01*
X226000000Y-49500000D02*
X223538585Y-49500000D01*
X223538585Y-49500000D02*
X222124987Y-48086402D01*
X222124987Y-48086402D02*
X222124987Y-47113598D01*
X222124987Y-47113598D02*
X223500000Y-45738585D01*
X223500000Y-45738585D02*
X223500000Y-36700000D01*
X225000000Y-35000000D02*
X226050000Y-35000000D01*
X226050000Y-35000000D02*
X229550000Y-31500000D01*
X235900000Y-31500000D02*
X237000000Y-31500000D01*
X229550000Y-31500000D02*
X235900000Y-31500000D01*
X225750000Y-49400000D02*
X226800000Y-49400000D01*
X234250000Y-50200000D02*
X232300000Y-50200000D01*
X228400000Y-49400000D02*
X225750000Y-49400000D01*
X229500000Y-50500000D02*
X228400000Y-49400000D01*
X232300000Y-50200000D02*
X232000000Y-50500000D01*
X234250000Y-50200000D02*
X236200000Y-50200000D01*
X236200000Y-50200000D02*
X237000000Y-51000000D01*
X220000000Y-37500000D02*
X213500000Y-44000000D01*
X213500000Y-44000000D02*
X213700000Y-43920000D01*
X225750000Y-49400000D02*
X226000000Y-49500000D01*
X226000000Y-49500000D02*
X227000000Y-49500000D01*
X227000000Y-49500000D02*
X228000000Y-50500000D01*
X228000000Y-50500000D02*
X228000000Y-51000000D01*
X222500000Y-56500000D02*
X221500000Y-57500000D01*
X221500000Y-57500000D02*
X221500000Y-58500000D01*
X221500000Y-58500000D02*
X220000000Y-60000000D01*
X220000000Y-60000000D02*
X220000000Y-61000000D01*
X220000000Y-61000000D02*
X222500000Y-63500000D01*
X222500000Y-63500000D02*
X222500000Y-67000000D01*
X222500000Y-67000000D02*
X225000000Y-69500000D01*
X225000000Y-69500000D02*
X225000000Y-70000000D01*
X225000000Y-70000000D02*
X225199520Y-69799840D01*
X220000000Y-37500000D02*
X217500000Y-37500000D01*
X211500000Y-37500000D02*
X209000000Y-35000000D01*
X225750000Y-49400000D02*
X226000000Y-49500000D01*
X225199520Y-69799840D02*
X225000000Y-70000000D01*
X225000000Y-70000000D02*
X226500000Y-68500000D01*
X226500000Y-68500000D02*
X226500000Y-68000000D01*
X226500000Y-68000000D02*
X231000000Y-68000000D01*
X231000000Y-68000000D02*
X231500000Y-67500000D01*
X225000000Y-35000000D02*
X222500000Y-35000000D01*
X222500000Y-35000000D02*
X220000000Y-37500000D01*
X220000000Y-61000000D02*
X208000000Y-61000000D01*
X208000000Y-61000000D02*
X207500000Y-61500000D01*
X207500000Y-61500000D02*
X207300000Y-61490000D01*
X207300000Y-61490000D02*
X207500000Y-61500000D01*
X207500000Y-61500000D02*
X206500000Y-62500000D01*
X206500000Y-62500000D02*
X206500000Y-70000000D01*
X206500000Y-70000000D02*
X206540000Y-70000000D01*
X231500000Y-67500000D02*
X234500000Y-67500000D01*
X234500000Y-67500000D02*
X235000000Y-68000000D01*
X234250000Y-46200000D02*
X233200000Y-46200000D01*
X230539004Y-45914018D02*
X229387315Y-47065707D01*
X229387315Y-47065707D02*
X229387315Y-48525765D01*
X233200000Y-46200000D02*
X232914018Y-45914018D01*
X232914018Y-45914018D02*
X230539004Y-45914018D01*
X229387315Y-48525765D02*
X229387315Y-48950029D01*
X220000000Y-57000000D02*
X220000000Y-51880000D01*
X224700000Y-48600000D02*
X225750000Y-48600000D01*
X222574998Y-47900002D02*
X223274996Y-48600000D01*
X223274996Y-48600000D02*
X224700000Y-48600000D01*
X222574998Y-47299998D02*
X222574998Y-47900002D01*
X223950000Y-45924996D02*
X222574998Y-47299998D01*
X225000000Y-39200000D02*
X223950000Y-40250000D01*
X223950000Y-40250000D02*
X223950000Y-45924996D01*
X225000000Y-39000000D02*
X225000000Y-39200000D01*
D28*
X197000000Y-49000000D02*
X196000000Y-49000000D01*
X197380000Y-37000000D02*
X204300000Y-43920000D01*
X196000000Y-37000000D02*
X197380000Y-37000000D01*
X195000000Y-38000000D02*
X196000000Y-37000000D01*
X195000000Y-48000000D02*
X195000000Y-38000000D01*
X196000000Y-49000000D02*
X195000000Y-48000000D01*
X205000000Y-31000000D02*
X204000000Y-43620000D01*
X204000000Y-43620000D02*
X204300000Y-43920000D01*
X203600000Y-43920000D02*
X204300000Y-43920000D01*
X194600000Y-64999490D02*
X194600000Y-51799490D01*
X194600000Y-51799490D02*
X196000000Y-50399490D01*
X196000000Y-50399490D02*
X197000000Y-49000000D01*
X196000000Y-65000000D02*
X194600509Y-64999999D01*
X194600509Y-64999999D02*
X194600000Y-64999490D01*
X197540000Y-70000000D02*
X199389502Y-71849502D01*
X218350000Y-70500000D02*
X218500000Y-70500000D01*
X199389502Y-71849502D02*
X210580496Y-71849502D01*
X210580496Y-71849502D02*
X213179999Y-69249999D01*
X213179999Y-69249999D02*
X217100000Y-69250000D01*
X217100000Y-69250000D02*
X218350000Y-70500000D01*
X196000000Y-65000000D02*
X196000000Y-66399490D01*
X196000000Y-66399490D02*
X197540000Y-67939490D01*
X197540000Y-67939490D02*
X197540000Y-68586508D01*
X197540000Y-68586508D02*
X197540000Y-70000000D01*
X203600000Y-57400000D02*
X196000000Y-65000000D01*
X214700000Y-59210000D02*
X213950000Y-59210000D01*
X212140000Y-57400000D02*
X203600000Y-57400000D01*
X213950000Y-59210000D02*
X212140000Y-57400000D01*
X232700000Y-49050000D02*
X232700000Y-48150000D01*
X232700000Y-48150000D02*
X233050000Y-47800000D01*
X233050000Y-47800000D02*
X234250000Y-47800000D01*
X233050000Y-49400000D02*
X232700000Y-49050000D01*
X234250000Y-49400000D02*
X233050000Y-49400000D01*
X231400000Y-47800000D02*
X234250000Y-47800000D01*
X225750000Y-47000000D02*
X227000000Y-47000000D01*
X227000000Y-47000000D02*
X227600000Y-47600000D01*
X223200000Y-47600000D02*
X223800000Y-47000000D01*
X223800000Y-47000000D02*
X225750000Y-47000000D01*
X217900000Y-51400000D02*
X217900000Y-49300000D01*
X217900000Y-49300000D02*
X218100000Y-49100000D01*
X214700000Y-59210000D02*
X214700000Y-56900000D01*
X214700000Y-56900000D02*
X217100000Y-54500000D01*
D27*
X237000000Y-47000000D02*
X237500000Y-47000000D01*
X236700000Y-47800000D02*
X234250000Y-47800000D01*
X237500000Y-47000000D02*
X236700000Y-47800000D01*
X197000000Y-49000000D02*
X197500000Y-49000000D01*
X203500000Y-43500000D02*
X204000000Y-43500000D01*
X204000000Y-43500000D02*
X204500000Y-44000000D01*
X204500000Y-44000000D02*
X204300000Y-43920000D01*
X214700000Y-59210000D02*
X214500000Y-59000000D01*
X237000000Y-36500000D02*
X232500000Y-36500000D01*
X232500000Y-36500000D02*
X230000000Y-39000000D01*
X204300000Y-43920000D02*
X204500000Y-44000000D01*
X204500000Y-44000000D02*
X204000000Y-43500000D01*
X204000000Y-43500000D02*
X205000000Y-31000000D01*
X237000000Y-47000000D02*
X236500000Y-46500000D01*
X236500000Y-46500000D02*
X237000000Y-36500000D01*
X205000000Y-31000000D02*
X209000000Y-31000000D01*
D29*
X217000000Y-66500000D02*
X217000000Y-66090000D01*
X217000000Y-66090000D02*
X214700000Y-63790000D01*
X227800480Y-62200160D02*
X227800480Y-62699270D01*
X227800480Y-62699270D02*
X223999750Y-66500000D01*
X223999750Y-66500000D02*
X223924264Y-66500000D01*
X223924264Y-66500000D02*
X223500000Y-66500000D01*
X231500000Y-63500000D02*
X229100320Y-63500000D01*
X229100320Y-63500000D02*
X227800480Y-62200160D01*
X235000000Y-63500000D02*
X231500000Y-63500000D01*
D27*
X227800480Y-62200160D02*
X228000000Y-62000000D01*
X234250000Y-51800000D02*
X234500000Y-52000000D01*
X234500000Y-52000000D02*
X234500000Y-55500000D01*
X213700000Y-54080000D02*
X213500000Y-54000000D01*
X213500000Y-54000000D02*
X212500000Y-54000000D01*
X212500000Y-54000000D02*
X209000000Y-50500000D01*
X209000000Y-50500000D02*
X209000000Y-47000000D01*
X209000000Y-47000000D02*
X210500000Y-45500000D01*
X210500000Y-45500000D02*
X210500000Y-44500000D01*
X210500000Y-44500000D02*
X213500000Y-41500000D01*
X232500000Y-40000000D02*
X230500000Y-42000000D01*
X230500000Y-42000000D02*
X230500000Y-45000000D01*
X230500000Y-45000000D02*
X230400000Y-44750000D01*
X229600000Y-44750000D02*
X229500000Y-45000000D01*
X229500000Y-45000000D02*
X229500000Y-43500000D01*
X229500000Y-43500000D02*
X228500000Y-43500000D01*
X228500000Y-43500000D02*
X227500000Y-42500000D01*
X210000000Y-47500000D02*
X212000000Y-49500000D01*
X212000000Y-49500000D02*
X212000000Y-52500000D01*
X212000000Y-52500000D02*
X213000000Y-52500000D01*
X213000000Y-52500000D02*
X213500000Y-53000000D01*
X213500000Y-53000000D02*
X213700000Y-52810000D01*
X230031675Y-49424180D02*
X230031675Y-47346351D01*
X230539007Y-46839019D02*
X230839006Y-46539020D01*
X230031675Y-47346351D02*
X230539007Y-46839019D01*
X222700001Y-51300001D02*
X223000000Y-51600000D01*
X219483999Y-50804999D02*
X222204999Y-50804999D01*
X218263996Y-52025002D02*
X219483999Y-50804999D01*
X222204999Y-50804999D02*
X222700001Y-51300001D01*
X217599998Y-52025002D02*
X218263996Y-52025002D01*
X217114996Y-51540000D02*
X217599998Y-52025002D01*
X213700000Y-51540000D02*
X217114996Y-51540000D01*
X228800000Y-46200000D02*
X228800000Y-44750000D01*
X228310592Y-47385590D02*
X228310592Y-48191229D01*
X228310592Y-48191229D02*
X228010593Y-48491228D01*
X228000000Y-47074998D02*
X228310592Y-47385590D01*
X228000000Y-44750000D02*
X228000000Y-47074998D01*
X235500000Y-35000000D02*
X237070710Y-33429290D01*
X237070710Y-33429290D02*
X237429290Y-33429290D01*
X237429290Y-33429290D02*
X237000000Y-34000000D01*
X235500000Y-40500000D02*
X235500000Y-39500000D01*
X235500000Y-39500000D02*
X234000000Y-38000000D01*
X213700000Y-50270000D02*
X213500000Y-50500000D01*
X213500000Y-50500000D02*
X216000000Y-50500000D01*
X226000000Y-42000000D02*
X226500000Y-42500000D01*
X226500000Y-42500000D02*
X226500000Y-43000000D01*
X226500000Y-43000000D02*
X227000000Y-43500000D01*
X227000000Y-43500000D02*
X227000000Y-45000000D01*
X227000000Y-45000000D02*
X227200000Y-44750000D01*
X230000000Y-32500000D02*
X229000000Y-33500000D01*
X229000000Y-33500000D02*
X228500000Y-33500000D01*
X228500000Y-33500000D02*
X228500000Y-34500000D01*
X228500000Y-34500000D02*
X226500000Y-36500000D01*
X226500000Y-36500000D02*
X226500000Y-40500000D01*
X226500000Y-40500000D02*
X226000000Y-40500000D01*
X226000000Y-40500000D02*
X225000000Y-41500000D01*
X225000000Y-41500000D02*
X225000000Y-42500000D01*
X225000000Y-42500000D02*
X226000000Y-43500000D01*
X226000000Y-43500000D02*
X226000000Y-46000000D01*
X226000000Y-46000000D02*
X225750000Y-46200000D01*
X221269253Y-49344989D02*
X220844989Y-49344989D01*
X222747163Y-49344989D02*
X221269253Y-49344989D01*
X225750000Y-51000000D02*
X224402174Y-51000000D01*
X224402174Y-51000000D02*
X222747163Y-49344989D01*
X213700000Y-49000000D02*
X216000000Y-49000000D01*
X224700000Y-51800000D02*
X225750000Y-51800000D01*
X224300000Y-51800000D02*
X224700000Y-51800000D01*
X213700000Y-47730000D02*
X217855002Y-47730000D01*
X217855002Y-47730000D02*
X220125002Y-50000000D01*
X220125002Y-50000000D02*
X222500000Y-50000000D01*
X222500000Y-50000000D02*
X224300000Y-51800000D01*
X213700000Y-46460000D02*
X213500000Y-46500000D01*
X213500000Y-46500000D02*
X212500000Y-46500000D01*
X212500000Y-46500000D02*
X211500000Y-47500000D01*
X225500000Y-55500000D02*
X227000000Y-54000000D01*
X227000000Y-54000000D02*
X227000000Y-53500000D01*
X227000000Y-53500000D02*
X227200000Y-53250000D01*
X213700000Y-45190000D02*
X213500000Y-45000000D01*
X213500000Y-45000000D02*
X211500000Y-45000000D01*
X227500000Y-55500000D02*
X228000000Y-55000000D01*
X228000000Y-55000000D02*
X228000000Y-53250000D01*
X230400000Y-50100000D02*
X231699981Y-48800019D01*
X230400000Y-53250000D02*
X230400000Y-50100000D01*
X231699981Y-48800019D02*
X231999980Y-48500020D01*
X232500000Y-32500000D02*
X230000000Y-35000000D01*
X230000000Y-35000000D02*
X228500000Y-36500000D01*
X228500000Y-36500000D02*
X228500000Y-40500000D01*
X228500000Y-40500000D02*
X229000000Y-41000000D01*
X229000000Y-41000000D02*
X229000000Y-42500000D01*
X213575736Y-66500000D02*
X214000000Y-66500000D01*
X204000000Y-70000000D02*
X204579752Y-70000000D01*
X207175757Y-71324491D02*
X212000248Y-66500000D01*
X204579752Y-70000000D02*
X205904243Y-71324491D01*
X212000248Y-66500000D02*
X213575736Y-66500000D01*
X205904243Y-71324491D02*
X207175757Y-71324491D01*
X231000000Y-55200000D02*
X231200000Y-55000000D01*
X231200000Y-55000000D02*
X231200000Y-53250000D01*
X231000000Y-56000000D02*
X231000000Y-55200000D01*
X236574681Y-69625319D02*
X236400160Y-69799840D01*
X236400160Y-69799840D02*
X227800480Y-69799840D01*
X235000000Y-61000000D02*
X236574681Y-62574681D01*
X236574681Y-62574681D02*
X236574681Y-69625319D01*
X233000000Y-61000000D02*
X235000000Y-61000000D01*
X227200000Y-71400000D02*
X227449810Y-71400000D01*
X227449810Y-71400000D02*
X227800480Y-71049330D01*
X227800480Y-71049330D02*
X227800480Y-69799840D01*
X226600000Y-72000000D02*
X227200000Y-71400000D01*
X214900000Y-72000000D02*
X226600000Y-72000000D01*
X214500000Y-70500000D02*
X214500000Y-71600000D01*
X214500000Y-71600000D02*
X214900000Y-72000000D01*
X227800480Y-69799840D02*
X228000000Y-70000000D01*
X233000000Y-61000000D02*
X233000000Y-53500000D01*
X233000000Y-53500000D02*
X232800000Y-53250000D01*
X228000000Y-70000000D02*
X227800480Y-69799840D01*
X229500000Y-58500000D02*
X232000000Y-58500000D01*
X196000000Y-57380000D02*
X196000000Y-57500000D01*
X196000000Y-57500000D02*
X197000000Y-57500000D01*
X197000000Y-57500000D02*
X202500000Y-52000000D01*
X202500000Y-52000000D02*
X204000000Y-52000000D01*
X204000000Y-52000000D02*
X204500000Y-51500000D01*
X204500000Y-51500000D02*
X204300000Y-51540000D01*
X204300000Y-54080000D02*
X204500000Y-54000000D01*
X204500000Y-54000000D02*
X197500000Y-61000000D01*
X197500000Y-61000000D02*
X197500000Y-61500000D01*
X197500000Y-61500000D02*
X197000000Y-61500000D01*
X197000000Y-61500000D02*
X196000000Y-62500000D01*
X196000000Y-62500000D02*
X196000000Y-62460000D01*
X196000000Y-59920000D02*
X196000000Y-60000000D01*
X196000000Y-60000000D02*
X196500000Y-60000000D01*
X196500000Y-60000000D02*
X202500000Y-54000000D01*
X202500000Y-54000000D02*
X202500000Y-53000000D01*
X202500000Y-53000000D02*
X204500000Y-53000000D01*
X204500000Y-53000000D02*
X204300000Y-52810000D01*
X196000000Y-54840000D02*
X196000000Y-55000000D01*
X196000000Y-55000000D02*
X198000000Y-55000000D01*
X198000000Y-55000000D02*
X202500000Y-50500000D01*
X202500000Y-50500000D02*
X204500000Y-50500000D01*
X204500000Y-50500000D02*
X204300000Y-50270000D01*
X197000000Y-41380000D02*
X201080000Y-46460000D01*
X201080000Y-46460000D02*
X204300000Y-46460000D01*
X204500000Y-46500000D02*
X204300000Y-46460000D01*
X199060000Y-46460000D02*
X201600000Y-49000000D01*
X201600000Y-49000000D02*
X204300000Y-49000000D01*
X197000000Y-46460000D02*
X199060000Y-46460000D01*
X204300000Y-49000000D02*
X203000000Y-49000000D01*
X198519489Y-44919489D02*
X201330000Y-47730000D01*
X201330000Y-47730000D02*
X204300000Y-47730000D01*
X197000000Y-43920000D02*
X196999489Y-44919489D01*
X196999489Y-44919489D02*
X198519489Y-44919489D01*
X204500000Y-47500000D02*
X204300000Y-47730000D01*
X204300000Y-45190000D02*
X202350000Y-45190000D01*
X202350000Y-45190000D02*
X197000000Y-38840000D01*
X204500000Y-45000000D02*
X204300000Y-45190000D01*
X225151260Y-62200160D02*
X225000000Y-62000000D01*
X225000000Y-62000000D02*
X225500000Y-61500000D01*
X225500000Y-61500000D02*
X225500000Y-58500000D01*
D30*
G36*
X238290000Y-49591975D02*
X238159699Y-49461673D01*
X237926310Y-49365000D01*
X237285750Y-49365000D01*
X237127000Y-49523750D01*
X237127000Y-50873000D01*
X238276250Y-50873000D01*
X238435000Y-50714250D01*
X238435000Y-50407828D01*
X238497954Y-50502046D01*
X238728295Y-50655954D01*
X239000000Y-50710000D01*
X239290000Y-50710000D01*
X239290000Y-72290000D01*
X227384802Y-72290000D01*
X227530940Y-72143862D01*
X227740649Y-72102148D01*
X227987211Y-71937401D01*
X228337881Y-71586731D01*
X228450173Y-71418675D01*
X228536177Y-71402492D01*
X228752301Y-71263420D01*
X228897291Y-71051220D01*
X228948300Y-70799330D01*
X228948300Y-70559840D01*
X236400160Y-70559840D01*
X236690999Y-70501988D01*
X236937561Y-70337241D01*
X237112082Y-70162720D01*
X237276829Y-69916158D01*
X237334681Y-69625319D01*
X237334681Y-62574681D01*
X237327407Y-62538110D01*
X237276829Y-62283841D01*
X237112082Y-62037280D01*
X235537401Y-60462599D01*
X235402921Y-60372743D01*
X236066191Y-60098686D01*
X236596822Y-59568979D01*
X236884352Y-58876531D01*
X236885006Y-58126759D01*
X236598686Y-57433809D01*
X236068979Y-56903178D01*
X235376531Y-56615648D01*
X234626759Y-56614994D01*
X233933809Y-56901314D01*
X233760000Y-57074820D01*
X233760000Y-56082153D01*
X233969673Y-56292192D01*
X234313201Y-56434838D01*
X234685167Y-56435162D01*
X235028943Y-56293117D01*
X235292192Y-56030327D01*
X235434838Y-55686799D01*
X235435162Y-55314833D01*
X235293117Y-54971057D01*
X235260000Y-54937882D01*
X235260000Y-52682926D01*
X235285317Y-52678162D01*
X235501441Y-52539090D01*
X235646431Y-52326890D01*
X235646974Y-52324211D01*
X235661673Y-52359698D01*
X235840301Y-52538327D01*
X236073690Y-52635000D01*
X236714250Y-52635000D01*
X236873000Y-52476250D01*
X236873000Y-51127000D01*
X237127000Y-51127000D01*
X237127000Y-52476250D01*
X237285750Y-52635000D01*
X237926310Y-52635000D01*
X238159699Y-52538327D01*
X238338327Y-52359698D01*
X238435000Y-52126309D01*
X238435000Y-51285750D01*
X238276250Y-51127000D01*
X237127000Y-51127000D01*
X236873000Y-51127000D01*
X236853000Y-51127000D01*
X236853000Y-50873000D01*
X236873000Y-50873000D01*
X236873000Y-49523750D01*
X236714250Y-49365000D01*
X236073690Y-49365000D01*
X235840301Y-49461673D01*
X235697440Y-49604535D01*
X235697440Y-49125000D01*
X235677550Y-49019295D01*
X235685000Y-49001310D01*
X235685000Y-48885750D01*
X235588599Y-48789349D01*
X235514090Y-48673559D01*
X235406603Y-48600116D01*
X235468946Y-48560000D01*
X235894791Y-48560000D01*
X235948110Y-48596431D01*
X236200000Y-48647440D01*
X237800000Y-48647440D01*
X238035317Y-48603162D01*
X238251441Y-48464090D01*
X238290000Y-48407657D01*
X238290000Y-49591975D01*
X238290000Y-49591975D01*
G37*
X238290000Y-49591975D02*
X238159699Y-49461673D01*
X237926310Y-49365000D01*
X237285750Y-49365000D01*
X237127000Y-49523750D01*
X237127000Y-50873000D01*
X238276250Y-50873000D01*
X238435000Y-50714250D01*
X238435000Y-50407828D01*
X238497954Y-50502046D01*
X238728295Y-50655954D01*
X239000000Y-50710000D01*
X239290000Y-50710000D01*
X239290000Y-72290000D01*
X227384802Y-72290000D01*
X227530940Y-72143862D01*
X227740649Y-72102148D01*
X227987211Y-71937401D01*
X228337881Y-71586731D01*
X228450173Y-71418675D01*
X228536177Y-71402492D01*
X228752301Y-71263420D01*
X228897291Y-71051220D01*
X228948300Y-70799330D01*
X228948300Y-70559840D01*
X236400160Y-70559840D01*
X236690999Y-70501988D01*
X236937561Y-70337241D01*
X237112082Y-70162720D01*
X237276829Y-69916158D01*
X237334681Y-69625319D01*
X237334681Y-62574681D01*
X237327407Y-62538110D01*
X237276829Y-62283841D01*
X237112082Y-62037280D01*
X235537401Y-60462599D01*
X235402921Y-60372743D01*
X236066191Y-60098686D01*
X236596822Y-59568979D01*
X236884352Y-58876531D01*
X236885006Y-58126759D01*
X236598686Y-57433809D01*
X236068979Y-56903178D01*
X235376531Y-56615648D01*
X234626759Y-56614994D01*
X233933809Y-56901314D01*
X233760000Y-57074820D01*
X233760000Y-56082153D01*
X233969673Y-56292192D01*
X234313201Y-56434838D01*
X234685167Y-56435162D01*
X235028943Y-56293117D01*
X235292192Y-56030327D01*
X235434838Y-55686799D01*
X235435162Y-55314833D01*
X235293117Y-54971057D01*
X235260000Y-54937882D01*
X235260000Y-52682926D01*
X235285317Y-52678162D01*
X235501441Y-52539090D01*
X235646431Y-52326890D01*
X235646974Y-52324211D01*
X235661673Y-52359698D01*
X235840301Y-52538327D01*
X236073690Y-52635000D01*
X236714250Y-52635000D01*
X236873000Y-52476250D01*
X236873000Y-51127000D01*
X237127000Y-51127000D01*
X237127000Y-52476250D01*
X237285750Y-52635000D01*
X237926310Y-52635000D01*
X238159699Y-52538327D01*
X238338327Y-52359698D01*
X238435000Y-52126309D01*
X238435000Y-51285750D01*
X238276250Y-51127000D01*
X237127000Y-51127000D01*
X236873000Y-51127000D01*
X236853000Y-51127000D01*
X236853000Y-50873000D01*
X236873000Y-50873000D01*
X236873000Y-49523750D01*
X236714250Y-49365000D01*
X236073690Y-49365000D01*
X235840301Y-49461673D01*
X235697440Y-49604535D01*
X235697440Y-49125000D01*
X235677550Y-49019295D01*
X235685000Y-49001310D01*
X235685000Y-48885750D01*
X235588599Y-48789349D01*
X235514090Y-48673559D01*
X235406603Y-48600116D01*
X235468946Y-48560000D01*
X235894791Y-48560000D01*
X235948110Y-48596431D01*
X236200000Y-48647440D01*
X237800000Y-48647440D01*
X238035317Y-48603162D01*
X238251441Y-48464090D01*
X238290000Y-48407657D01*
X238290000Y-49591975D01*
G36*
X238290000Y-30352560D02*
X237127000Y-30352560D01*
X237127000Y-31373000D01*
X237147000Y-31373000D01*
X237147000Y-31627000D01*
X237127000Y-31627000D01*
X237127000Y-32647440D01*
X238290000Y-32647440D01*
X238290000Y-32852560D01*
X237913529Y-32852560D01*
X237886146Y-32821933D01*
X237799800Y-32780376D01*
X237720129Y-32727142D01*
X237667396Y-32716653D01*
X237618945Y-32693334D01*
X237523270Y-32687984D01*
X237429290Y-32669290D01*
X237070710Y-32669290D01*
X236779870Y-32727142D01*
X236592169Y-32852560D01*
X235000000Y-32852560D01*
X234764683Y-32896838D01*
X234548559Y-33035910D01*
X234403569Y-33248110D01*
X234352560Y-33500000D01*
X234352560Y-34500000D01*
X234396838Y-34735317D01*
X234535910Y-34951441D01*
X234565024Y-34971334D01*
X234564838Y-35185167D01*
X234675903Y-35453966D01*
X234548559Y-35535910D01*
X234409110Y-35740000D01*
X232500000Y-35740000D01*
X232209161Y-35797852D01*
X231962599Y-35962599D01*
X230572638Y-37352560D01*
X229260000Y-37352560D01*
X229260000Y-36814802D01*
X229427362Y-36647440D01*
X230850000Y-36647440D01*
X231085317Y-36603162D01*
X231301441Y-36464090D01*
X231446431Y-36251890D01*
X231497440Y-36000000D01*
X231497440Y-34577362D01*
X232639680Y-33435122D01*
X232685167Y-33435162D01*
X233028943Y-33293117D01*
X233292192Y-33030327D01*
X233434838Y-32686799D01*
X233435162Y-32314833D01*
X233293117Y-31971057D01*
X233030327Y-31707808D01*
X232835721Y-31627000D01*
X234352560Y-31627000D01*
X234352560Y-32000000D01*
X234396838Y-32235317D01*
X234535910Y-32451441D01*
X234748110Y-32596431D01*
X235000000Y-32647440D01*
X236873000Y-32647440D01*
X236873000Y-31627000D01*
X234352560Y-31627000D01*
X232835721Y-31627000D01*
X232686799Y-31565162D01*
X232314833Y-31564838D01*
X231971057Y-31706883D01*
X231707808Y-31969673D01*
X231565162Y-32313201D01*
X231565121Y-32360077D01*
X230572638Y-33352560D01*
X230385080Y-33352560D01*
X230528943Y-33293117D01*
X230792192Y-33030327D01*
X230934838Y-32686799D01*
X230935162Y-32314833D01*
X230793117Y-31971057D01*
X230530327Y-31707808D01*
X230186799Y-31565162D01*
X229814833Y-31564838D01*
X229471057Y-31706883D01*
X229207808Y-31969673D01*
X229065162Y-32313201D01*
X229065121Y-32360077D01*
X228685198Y-32740000D01*
X228500000Y-32740000D01*
X228209161Y-32797852D01*
X227962599Y-32962599D01*
X227797852Y-33209161D01*
X227740000Y-33500000D01*
X227740000Y-34185198D01*
X226435000Y-35490198D01*
X226435000Y-35285750D01*
X226276250Y-35127000D01*
X225127000Y-35127000D01*
X225127000Y-36476250D01*
X225285750Y-36635000D01*
X225740000Y-36635000D01*
X225740000Y-37352560D01*
X224200000Y-37352560D01*
X223964683Y-37396838D01*
X223748559Y-37535910D01*
X223603569Y-37748110D01*
X223552560Y-38000000D01*
X223552560Y-39572638D01*
X223412599Y-39712599D01*
X223247852Y-39959161D01*
X223190000Y-40250000D01*
X223190000Y-45610194D01*
X222037597Y-46762597D01*
X221872850Y-47009159D01*
X221814998Y-47299998D01*
X221814998Y-47900002D01*
X221872850Y-48190841D01*
X222037597Y-48437403D01*
X222185183Y-48584989D01*
X221407452Y-48584989D01*
X221375316Y-48552797D01*
X221031788Y-48410151D01*
X220659822Y-48409827D01*
X220316046Y-48551872D01*
X220052797Y-48814662D01*
X220041550Y-48841746D01*
X219486048Y-48286244D01*
X219723298Y-48384759D01*
X220274285Y-48385240D01*
X220783515Y-48174831D01*
X221173461Y-47785564D01*
X221384759Y-47276702D01*
X221385240Y-46725715D01*
X221174831Y-46216485D01*
X220785564Y-45826539D01*
X220760000Y-45815924D01*
X220760000Y-43147440D01*
X220800000Y-43147440D01*
X221035317Y-43103162D01*
X221251441Y-42964090D01*
X221396431Y-42751890D01*
X221447440Y-42500000D01*
X221447440Y-40500000D01*
X221403162Y-40264683D01*
X221264090Y-40048559D01*
X221051890Y-39903569D01*
X220800000Y-39852560D01*
X219200000Y-39852560D01*
X218964683Y-39896838D01*
X218748559Y-40035910D01*
X218603569Y-40248110D01*
X218552560Y-40500000D01*
X218552560Y-42500000D01*
X218596838Y-42735317D01*
X218735910Y-42951441D01*
X218948110Y-43096431D01*
X219200000Y-43147440D01*
X219240000Y-43147440D01*
X219240000Y-45815453D01*
X219216485Y-45825169D01*
X218826539Y-46214436D01*
X218615241Y-46723298D01*
X218614760Y-47274285D01*
X218713811Y-47514007D01*
X218392403Y-47192599D01*
X218145841Y-47027852D01*
X217855002Y-46970000D01*
X215304914Y-46970000D01*
X215347440Y-46760000D01*
X215347440Y-46160000D01*
X215303162Y-45924683D01*
X215239322Y-45825472D01*
X215296431Y-45741890D01*
X215347440Y-45490000D01*
X215347440Y-44890000D01*
X215303162Y-44654683D01*
X215244822Y-44564020D01*
X215335000Y-44346310D01*
X215335000Y-44205750D01*
X215176250Y-44047000D01*
X213827000Y-44047000D01*
X213827000Y-44067000D01*
X213573000Y-44067000D01*
X213573000Y-44047000D01*
X213553000Y-44047000D01*
X213553000Y-43793000D01*
X213573000Y-43793000D01*
X213573000Y-43143750D01*
X213827000Y-43143750D01*
X213827000Y-43793000D01*
X215176250Y-43793000D01*
X215335000Y-43634250D01*
X215335000Y-43493690D01*
X215238327Y-43260301D01*
X215059698Y-43081673D01*
X214826309Y-42985000D01*
X213985750Y-42985000D01*
X213827000Y-43143750D01*
X213573000Y-43143750D01*
X213414250Y-42985000D01*
X213089802Y-42985000D01*
X213639680Y-42435122D01*
X213685167Y-42435162D01*
X214028943Y-42293117D01*
X214292192Y-42030327D01*
X214434838Y-41686799D01*
X214435162Y-41314833D01*
X214293117Y-40971057D01*
X214030327Y-40707808D01*
X213686799Y-40565162D01*
X213314833Y-40564838D01*
X212971057Y-40706883D01*
X212707808Y-40969673D01*
X212565162Y-41313201D01*
X212565121Y-41360077D01*
X209962599Y-43962599D01*
X209797852Y-44209161D01*
X209740000Y-44500000D01*
X209740000Y-45185198D01*
X208462599Y-46462599D01*
X208297852Y-46709161D01*
X208240000Y-47000000D01*
X208240000Y-50500000D01*
X208297852Y-50790839D01*
X208462599Y-51037401D01*
X211962599Y-54537401D01*
X212110135Y-54635982D01*
X212235910Y-54831441D01*
X212448110Y-54976431D01*
X212700000Y-55027440D01*
X214700000Y-55027440D01*
X214935317Y-54983162D01*
X215151441Y-54844090D01*
X215296431Y-54631890D01*
X215347440Y-54380000D01*
X215347440Y-53780000D01*
X215303162Y-53544683D01*
X215239322Y-53445472D01*
X215296431Y-53361890D01*
X215347440Y-53110000D01*
X215347440Y-52510000D01*
X215307926Y-52300000D01*
X216800194Y-52300000D01*
X217062597Y-52562403D01*
X217309158Y-52727150D01*
X217357412Y-52736748D01*
X217599998Y-52785002D01*
X218263996Y-52785002D01*
X218554835Y-52727150D01*
X218787286Y-52571831D01*
X218825169Y-52663515D01*
X219214436Y-53053461D01*
X219240000Y-53064076D01*
X219240000Y-55352560D01*
X219200000Y-55352560D01*
X218964683Y-55396838D01*
X218748559Y-55535910D01*
X218603569Y-55748110D01*
X218552560Y-56000000D01*
X218552560Y-58000000D01*
X218596838Y-58235317D01*
X218735910Y-58451441D01*
X218948110Y-58596431D01*
X219200000Y-58647440D01*
X220800000Y-58647440D01*
X221035317Y-58603162D01*
X221251441Y-58464090D01*
X221396431Y-58251890D01*
X221447440Y-58000000D01*
X221447440Y-56000000D01*
X221403162Y-55764683D01*
X221264090Y-55548559D01*
X221051890Y-55403569D01*
X220800000Y-55352560D01*
X220760000Y-55352560D01*
X220760000Y-53064547D01*
X220783515Y-53054831D01*
X221173461Y-52665564D01*
X221384759Y-52156702D01*
X221385240Y-51605715D01*
X221368417Y-51564999D01*
X221890197Y-51564999D01*
X222064878Y-51739680D01*
X222064838Y-51785167D01*
X222206883Y-52128943D01*
X222469673Y-52392192D01*
X222813201Y-52534838D01*
X223185167Y-52535162D01*
X223528943Y-52393117D01*
X223673755Y-52248557D01*
X223762599Y-52337401D01*
X224009160Y-52502148D01*
X224048635Y-52510000D01*
X224300000Y-52560000D01*
X224535025Y-52560000D01*
X224698110Y-52671431D01*
X224950000Y-52722440D01*
X226277560Y-52722440D01*
X226277560Y-53273956D01*
X226270029Y-53288479D01*
X226260873Y-53395066D01*
X226240000Y-53500000D01*
X226240000Y-53685198D01*
X225360320Y-54564878D01*
X225314833Y-54564838D01*
X224971057Y-54706883D01*
X224707808Y-54969673D01*
X224565162Y-55313201D01*
X224564838Y-55685167D01*
X224706883Y-56028943D01*
X224969673Y-56292192D01*
X225313201Y-56434838D01*
X225685167Y-56435162D01*
X226028943Y-56293117D01*
X226292192Y-56030327D01*
X226434838Y-55686799D01*
X226434879Y-55639923D01*
X226564991Y-55509811D01*
X226564838Y-55685167D01*
X226706883Y-56028943D01*
X226969673Y-56292192D01*
X227313201Y-56434838D01*
X227685167Y-56435162D01*
X228028943Y-56293117D01*
X228292192Y-56030327D01*
X228434838Y-55686799D01*
X228434879Y-55639923D01*
X228537401Y-55537401D01*
X228702148Y-55290839D01*
X228760000Y-55000000D01*
X228760000Y-54697440D01*
X229075000Y-54697440D01*
X229204589Y-54673056D01*
X229325000Y-54697440D01*
X229875000Y-54697440D01*
X230004589Y-54673056D01*
X230125000Y-54697440D01*
X230439319Y-54697440D01*
X230297852Y-54909161D01*
X230240000Y-55200000D01*
X230240000Y-55437537D01*
X230207808Y-55469673D01*
X230065162Y-55813201D01*
X230064838Y-56185167D01*
X230206883Y-56528943D01*
X230469673Y-56792192D01*
X230813201Y-56934838D01*
X231185167Y-56935162D01*
X231528943Y-56793117D01*
X231792192Y-56530327D01*
X231934838Y-56186799D01*
X231935162Y-55814833D01*
X231793117Y-55471057D01*
X231786296Y-55464224D01*
X231902148Y-55290839D01*
X231960000Y-55000000D01*
X231960000Y-54697440D01*
X232240000Y-54697440D01*
X232240000Y-57587253D01*
X232186799Y-57565162D01*
X231814833Y-57564838D01*
X231471057Y-57706883D01*
X231437882Y-57740000D01*
X231147440Y-57740000D01*
X231147440Y-57650000D01*
X231103162Y-57414683D01*
X230964090Y-57198559D01*
X230751890Y-57053569D01*
X230500000Y-57002560D01*
X228500000Y-57002560D01*
X228264683Y-57046838D01*
X228048559Y-57185910D01*
X227903569Y-57398110D01*
X227852560Y-57650000D01*
X227852560Y-59350000D01*
X227896838Y-59585317D01*
X228035910Y-59801441D01*
X228248110Y-59946431D01*
X228500000Y-59997440D01*
X230500000Y-59997440D01*
X230735317Y-59953162D01*
X230951441Y-59814090D01*
X231096431Y-59601890D01*
X231147440Y-59350000D01*
X231147440Y-59260000D01*
X231437537Y-59260000D01*
X231469673Y-59292192D01*
X231813201Y-59434838D01*
X232185167Y-59435162D01*
X232240000Y-59412506D01*
X232240000Y-61000000D01*
X232297852Y-61290839D01*
X232462599Y-61537401D01*
X232709161Y-61702148D01*
X233000000Y-61760000D01*
X234275816Y-61760000D01*
X233933809Y-61901314D01*
X233403178Y-62431021D01*
X233326783Y-62615000D01*
X232947440Y-62615000D01*
X232947440Y-62500000D01*
X232903162Y-62264683D01*
X232764090Y-62048559D01*
X232551890Y-61903569D01*
X232300000Y-61852560D01*
X230700000Y-61852560D01*
X230464683Y-61896838D01*
X230248559Y-62035910D01*
X230103569Y-62248110D01*
X230052560Y-62500000D01*
X230052560Y-62615000D01*
X229466899Y-62615000D01*
X228948300Y-62096400D01*
X228948300Y-61200670D01*
X228904022Y-60965353D01*
X228764950Y-60749229D01*
X228552750Y-60604239D01*
X228300860Y-60553230D01*
X227300100Y-60553230D01*
X227064783Y-60597508D01*
X226848659Y-60736580D01*
X226703669Y-60948780D01*
X226652660Y-61200670D01*
X226652660Y-62595511D01*
X226248280Y-62999891D01*
X226248280Y-61558920D01*
X226260000Y-61500000D01*
X226260000Y-59997440D01*
X226500000Y-59997440D01*
X226735317Y-59953162D01*
X226951441Y-59814090D01*
X227096431Y-59601890D01*
X227147440Y-59350000D01*
X227147440Y-57650000D01*
X227103162Y-57414683D01*
X226964090Y-57198559D01*
X226751890Y-57053569D01*
X226500000Y-57002560D01*
X224500000Y-57002560D01*
X224264683Y-57046838D01*
X224048559Y-57185910D01*
X223903569Y-57398110D01*
X223852560Y-57650000D01*
X223852560Y-59350000D01*
X223896838Y-59585317D01*
X224035910Y-59801441D01*
X224248110Y-59946431D01*
X224500000Y-59997440D01*
X224740000Y-59997440D01*
X224740000Y-60553230D01*
X224701680Y-60553230D01*
X224466363Y-60597508D01*
X224250239Y-60736580D01*
X224105249Y-60948780D01*
X224054240Y-61200670D01*
X224054240Y-63199650D01*
X224098518Y-63434967D01*
X224237590Y-63651091D01*
X224449790Y-63796081D01*
X224701680Y-63847090D01*
X225401081Y-63847090D01*
X223683011Y-65565159D01*
X223314833Y-65564838D01*
X222971057Y-65706883D01*
X222707808Y-65969673D01*
X222565162Y-66313201D01*
X222564838Y-66685167D01*
X222706883Y-67028943D01*
X222969673Y-67292192D01*
X223313201Y-67434838D01*
X223685167Y-67435162D01*
X223806569Y-67385000D01*
X223999745Y-67385000D01*
X223999750Y-67385001D01*
X224282234Y-67328810D01*
X224338425Y-67317633D01*
X224625540Y-67125790D01*
X225377638Y-66373691D01*
X230065000Y-66373691D01*
X230065000Y-67214250D01*
X230223750Y-67373000D01*
X231373000Y-67373000D01*
X231373000Y-66023750D01*
X231627000Y-66023750D01*
X231627000Y-67373000D01*
X232776250Y-67373000D01*
X232935000Y-67214250D01*
X232935000Y-66373691D01*
X232838327Y-66140302D01*
X232659699Y-65961673D01*
X232426310Y-65865000D01*
X231785750Y-65865000D01*
X231627000Y-66023750D01*
X231373000Y-66023750D01*
X231214250Y-65865000D01*
X230573690Y-65865000D01*
X230340301Y-65961673D01*
X230161673Y-66140302D01*
X230065000Y-66373691D01*
X225377638Y-66373691D01*
X227904239Y-63847090D01*
X228195831Y-63847090D01*
X228474528Y-64125787D01*
X228474530Y-64125790D01*
X228628339Y-64228561D01*
X228761645Y-64317633D01*
X229100320Y-64385000D01*
X230052560Y-64385000D01*
X230052560Y-64500000D01*
X230096838Y-64735317D01*
X230235910Y-64951441D01*
X230448110Y-65096431D01*
X230700000Y-65147440D01*
X232300000Y-65147440D01*
X232535317Y-65103162D01*
X232751441Y-64964090D01*
X232896431Y-64751890D01*
X232947440Y-64500000D01*
X232947440Y-64385000D01*
X233326448Y-64385000D01*
X233401314Y-64566191D01*
X233931021Y-65096822D01*
X234623469Y-65384352D01*
X235373241Y-65385006D01*
X235814681Y-65202607D01*
X235814681Y-66293851D01*
X235324117Y-66105929D01*
X234574616Y-66126072D01*
X233975725Y-66374141D01*
X233846517Y-66666911D01*
X235000000Y-67820395D01*
X235014142Y-67806252D01*
X235193748Y-67985858D01*
X235179605Y-68000000D01*
X235193748Y-68014142D01*
X235014142Y-68193748D01*
X235000000Y-68179605D01*
X234985858Y-68193748D01*
X234806252Y-68014142D01*
X234820395Y-68000000D01*
X233666911Y-66846517D01*
X233374141Y-66975725D01*
X233105929Y-67675883D01*
X233126072Y-68425384D01*
X233374141Y-69024275D01*
X233409409Y-69039840D01*
X232656046Y-69039840D01*
X232659699Y-69038327D01*
X232838327Y-68859698D01*
X232935000Y-68626309D01*
X232935000Y-67785750D01*
X232776250Y-67627000D01*
X231627000Y-67627000D01*
X231627000Y-67647000D01*
X231373000Y-67647000D01*
X231373000Y-67627000D01*
X230223750Y-67627000D01*
X230065000Y-67785750D01*
X230065000Y-68626309D01*
X230161673Y-68859698D01*
X230340301Y-69038327D01*
X230343954Y-69039840D01*
X228948300Y-69039840D01*
X228948300Y-68800350D01*
X228904022Y-68565033D01*
X228764950Y-68348909D01*
X228552750Y-68203919D01*
X228300860Y-68152910D01*
X227300100Y-68152910D01*
X227064783Y-68197188D01*
X226848659Y-68336260D01*
X226703669Y-68548460D01*
X226652660Y-68800350D01*
X226652660Y-70799330D01*
X226664345Y-70861432D01*
X226662599Y-70862599D01*
X226285198Y-71240000D01*
X226157255Y-71240000D01*
X226238227Y-71159028D01*
X226334900Y-70925639D01*
X226334900Y-70085590D01*
X226176150Y-69926840D01*
X225326520Y-69926840D01*
X225326520Y-69946840D01*
X225072520Y-69946840D01*
X225072520Y-69926840D01*
X224222890Y-69926840D01*
X224064140Y-70085590D01*
X224064140Y-70925639D01*
X224160813Y-71159028D01*
X224241785Y-71240000D01*
X220147440Y-71240000D01*
X220147440Y-69650000D01*
X220103162Y-69414683D01*
X219964090Y-69198559D01*
X219751890Y-69053569D01*
X219500000Y-69002560D01*
X218033428Y-69002560D01*
X217704909Y-68674041D01*
X224064140Y-68674041D01*
X224064140Y-69514090D01*
X224222890Y-69672840D01*
X225072520Y-69672840D01*
X225072520Y-68324100D01*
X225326520Y-68324100D01*
X225326520Y-69672840D01*
X226176150Y-69672840D01*
X226334900Y-69514090D01*
X226334900Y-68674041D01*
X226238227Y-68440652D01*
X226059599Y-68262023D01*
X225826210Y-68165350D01*
X225485270Y-68165350D01*
X225326520Y-68324100D01*
X225072520Y-68324100D01*
X224913770Y-68165350D01*
X224572830Y-68165350D01*
X224339441Y-68262023D01*
X224160813Y-68440652D01*
X224064140Y-68674041D01*
X217704909Y-68674041D01*
X217690434Y-68659566D01*
X217548955Y-68565033D01*
X217419541Y-68478561D01*
X217100000Y-68415000D01*
X213179999Y-68414999D01*
X212860458Y-68478560D01*
X212639336Y-68626309D01*
X212589565Y-68659565D01*
X210234628Y-71014502D01*
X208560548Y-71014502D01*
X212315050Y-67260000D01*
X213437537Y-67260000D01*
X213469673Y-67292192D01*
X213813201Y-67434838D01*
X214185167Y-67435162D01*
X214528943Y-67293117D01*
X214792192Y-67030327D01*
X214934838Y-66686799D01*
X214935162Y-66314833D01*
X214793117Y-65971057D01*
X214530327Y-65707808D01*
X214186799Y-65565162D01*
X213814833Y-65564838D01*
X213471057Y-65706883D01*
X213437882Y-65740000D01*
X212000248Y-65740000D01*
X211709409Y-65797852D01*
X211462847Y-65962599D01*
X208034777Y-69390669D01*
X207932987Y-69144916D01*
X207499726Y-68676932D01*
X206920355Y-68410373D01*
X206667000Y-68529193D01*
X206667000Y-69873000D01*
X206687000Y-69873000D01*
X206687000Y-70127000D01*
X206667000Y-70127000D01*
X206667000Y-70147000D01*
X206413000Y-70147000D01*
X206413000Y-70127000D01*
X206393000Y-70127000D01*
X206393000Y-69873000D01*
X206413000Y-69873000D01*
X206413000Y-68529193D01*
X206159645Y-68410373D01*
X205580274Y-68676932D01*
X205559970Y-68698863D01*
X205463580Y-68549069D01*
X205251380Y-68404079D01*
X204999490Y-68353070D01*
X203000510Y-68353070D01*
X202765193Y-68397348D01*
X202549069Y-68536420D01*
X202404079Y-68748620D01*
X202353070Y-69000510D01*
X202353070Y-70999490D01*
X202355895Y-71014502D01*
X201325397Y-71014502D01*
X201472987Y-70855084D01*
X201669619Y-70380354D01*
X201550265Y-70127000D01*
X200207000Y-70127000D01*
X200207000Y-70147000D01*
X199953000Y-70147000D01*
X199953000Y-70127000D01*
X199933000Y-70127000D01*
X199933000Y-69873000D01*
X199953000Y-69873000D01*
X199953000Y-68529193D01*
X200207000Y-68529193D01*
X200207000Y-69873000D01*
X201550265Y-69873000D01*
X201669619Y-69619646D01*
X201472987Y-69144916D01*
X201039726Y-68676932D01*
X200460355Y-68410373D01*
X200207000Y-68529193D01*
X199953000Y-68529193D01*
X199699645Y-68410373D01*
X199120274Y-68676932D01*
X198827379Y-68993300D01*
X198727781Y-68844241D01*
X198375000Y-68608520D01*
X198375000Y-67939490D01*
X198311439Y-67619949D01*
X198130434Y-67349056D01*
X197325604Y-66544226D01*
X197450931Y-66463580D01*
X197595921Y-66251380D01*
X197646930Y-65999490D01*
X197646930Y-64533938D01*
X200405118Y-61775750D01*
X203165000Y-61775750D01*
X203165000Y-65116309D01*
X203261673Y-65349698D01*
X203440301Y-65528327D01*
X203673690Y-65625000D01*
X207014250Y-65625000D01*
X207173000Y-65466250D01*
X207173000Y-61617000D01*
X207427000Y-61617000D01*
X207427000Y-65466250D01*
X207585750Y-65625000D01*
X210926310Y-65625000D01*
X211159699Y-65528327D01*
X211338327Y-65349698D01*
X211435000Y-65116309D01*
X211435000Y-62790000D01*
X212302560Y-62790000D01*
X212302560Y-64790000D01*
X212346838Y-65025317D01*
X212485910Y-65241441D01*
X212698110Y-65386431D01*
X212950000Y-65437440D01*
X215095860Y-65437440D01*
X216065081Y-66406660D01*
X216064838Y-66685167D01*
X216206883Y-67028943D01*
X216469673Y-67292192D01*
X216813201Y-67434838D01*
X217185167Y-67435162D01*
X217528943Y-67293117D01*
X217792192Y-67030327D01*
X217934838Y-66686799D01*
X217935162Y-66314833D01*
X217885000Y-66193431D01*
X217885000Y-66090005D01*
X217885001Y-66090000D01*
X217817633Y-65751325D01*
X217735264Y-65628051D01*
X217625790Y-65464210D01*
X217625787Y-65464208D01*
X217072877Y-64911297D01*
X217097440Y-64790000D01*
X217097440Y-62790000D01*
X217053162Y-62554683D01*
X216914090Y-62338559D01*
X216701890Y-62193569D01*
X216450000Y-62142560D01*
X212950000Y-62142560D01*
X212714683Y-62186838D01*
X212498559Y-62325910D01*
X212353569Y-62538110D01*
X212302560Y-62790000D01*
X211435000Y-62790000D01*
X211435000Y-61775750D01*
X211276250Y-61617000D01*
X207427000Y-61617000D01*
X207173000Y-61617000D01*
X203323750Y-61617000D01*
X203165000Y-61775750D01*
X200405118Y-61775750D01*
X203165000Y-59015868D01*
X203165000Y-61204250D01*
X203323750Y-61363000D01*
X207173000Y-61363000D01*
X207173000Y-61343000D01*
X207427000Y-61343000D01*
X207427000Y-61363000D01*
X211276250Y-61363000D01*
X211353500Y-61285750D01*
X218565000Y-61285750D01*
X218565000Y-62126309D01*
X218661673Y-62359698D01*
X218840301Y-62538327D01*
X219073690Y-62635000D01*
X219714250Y-62635000D01*
X219873000Y-62476250D01*
X219873000Y-61127000D01*
X220127000Y-61127000D01*
X220127000Y-62476250D01*
X220285750Y-62635000D01*
X220926310Y-62635000D01*
X221159699Y-62538327D01*
X221338327Y-62359698D01*
X221435000Y-62126309D01*
X221435000Y-61285750D01*
X221276250Y-61127000D01*
X220127000Y-61127000D01*
X219873000Y-61127000D01*
X218723750Y-61127000D01*
X218565000Y-61285750D01*
X211353500Y-61285750D01*
X211435000Y-61204250D01*
X211435000Y-58235000D01*
X211794132Y-58235000D01*
X212302560Y-58743428D01*
X212302560Y-60210000D01*
X212346838Y-60445317D01*
X212485910Y-60661441D01*
X212698110Y-60806431D01*
X212950000Y-60857440D01*
X216450000Y-60857440D01*
X216685317Y-60813162D01*
X216901441Y-60674090D01*
X217046431Y-60461890D01*
X217097440Y-60210000D01*
X217097440Y-59873691D01*
X218565000Y-59873691D01*
X218565000Y-60714250D01*
X218723750Y-60873000D01*
X219873000Y-60873000D01*
X219873000Y-59523750D01*
X220127000Y-59523750D01*
X220127000Y-60873000D01*
X221276250Y-60873000D01*
X221435000Y-60714250D01*
X221435000Y-59873691D01*
X221338327Y-59640302D01*
X221159699Y-59461673D01*
X220926310Y-59365000D01*
X220285750Y-59365000D01*
X220127000Y-59523750D01*
X219873000Y-59523750D01*
X219714250Y-59365000D01*
X219073690Y-59365000D01*
X218840301Y-59461673D01*
X218661673Y-59640302D01*
X218565000Y-59873691D01*
X217097440Y-59873691D01*
X217097440Y-58210000D01*
X217053162Y-57974683D01*
X216914090Y-57758559D01*
X216701890Y-57613569D01*
X216450000Y-57562560D01*
X215535000Y-57562560D01*
X215535000Y-57245868D01*
X217388333Y-55392535D01*
X217628943Y-55293117D01*
X217892192Y-55030327D01*
X218034838Y-54686799D01*
X218035162Y-54314833D01*
X217893117Y-53971057D01*
X217630327Y-53707808D01*
X217286799Y-53565162D01*
X216914833Y-53564838D01*
X216571057Y-53706883D01*
X216307808Y-53969673D01*
X216207222Y-54211910D01*
X214109566Y-56309566D01*
X213928561Y-56580459D01*
X213865000Y-56900000D01*
X213865000Y-57562560D01*
X213483428Y-57562560D01*
X212730434Y-56809566D01*
X212626321Y-56740000D01*
X212459541Y-56628561D01*
X212140000Y-56565000D01*
X203600000Y-56565000D01*
X203280459Y-56628561D01*
X203113679Y-56740000D01*
X203009566Y-56809566D01*
X198245317Y-61573815D01*
X198260000Y-61500000D01*
X198260000Y-61314802D01*
X204547362Y-55027440D01*
X205300000Y-55027440D01*
X205535317Y-54983162D01*
X205751441Y-54844090D01*
X205896431Y-54631890D01*
X205947440Y-54380000D01*
X205947440Y-53780000D01*
X205903162Y-53544683D01*
X205839322Y-53445472D01*
X205896431Y-53361890D01*
X205947440Y-53110000D01*
X205947440Y-52510000D01*
X205903162Y-52274683D01*
X205839322Y-52175472D01*
X205896431Y-52091890D01*
X205947440Y-51840000D01*
X205947440Y-51240000D01*
X205903162Y-51004683D01*
X205839322Y-50905472D01*
X205896431Y-50821890D01*
X205947440Y-50570000D01*
X205947440Y-49970000D01*
X205903162Y-49734683D01*
X205839322Y-49635472D01*
X205896431Y-49551890D01*
X205947440Y-49300000D01*
X205947440Y-48700000D01*
X205903162Y-48464683D01*
X205839322Y-48365472D01*
X205896431Y-48281890D01*
X205947440Y-48030000D01*
X205947440Y-47430000D01*
X205903162Y-47194683D01*
X205839322Y-47095472D01*
X205896431Y-47011890D01*
X205947440Y-46760000D01*
X205947440Y-46160000D01*
X205903162Y-45924683D01*
X205839322Y-45825472D01*
X205896431Y-45741890D01*
X205947440Y-45490000D01*
X205947440Y-44890000D01*
X205903162Y-44654683D01*
X205839322Y-44555472D01*
X205896431Y-44471890D01*
X205947440Y-44220000D01*
X205947440Y-43620000D01*
X205903162Y-43384683D01*
X205764090Y-43168559D01*
X205551890Y-43023569D01*
X205300000Y-42972560D01*
X204888920Y-42972560D01*
X205299918Y-37785750D01*
X218565000Y-37785750D01*
X218565000Y-38626309D01*
X218661673Y-38859698D01*
X218840301Y-39038327D01*
X219073690Y-39135000D01*
X219714250Y-39135000D01*
X219873000Y-38976250D01*
X219873000Y-37627000D01*
X220127000Y-37627000D01*
X220127000Y-38976250D01*
X220285750Y-39135000D01*
X220926310Y-39135000D01*
X221159699Y-39038327D01*
X221338327Y-38859698D01*
X221435000Y-38626309D01*
X221435000Y-37785750D01*
X221276250Y-37627000D01*
X220127000Y-37627000D01*
X219873000Y-37627000D01*
X218723750Y-37627000D01*
X218565000Y-37785750D01*
X205299918Y-37785750D01*
X205498017Y-35285750D01*
X207565000Y-35285750D01*
X207565000Y-36126309D01*
X207661673Y-36359698D01*
X207840301Y-36538327D01*
X208073690Y-36635000D01*
X208714250Y-36635000D01*
X208873000Y-36476250D01*
X208873000Y-35127000D01*
X209127000Y-35127000D01*
X209127000Y-36476250D01*
X209285750Y-36635000D01*
X209926310Y-36635000D01*
X210159699Y-36538327D01*
X210324334Y-36373691D01*
X218565000Y-36373691D01*
X218565000Y-37214250D01*
X218723750Y-37373000D01*
X219873000Y-37373000D01*
X219873000Y-36023750D01*
X220127000Y-36023750D01*
X220127000Y-37373000D01*
X221276250Y-37373000D01*
X221435000Y-37214250D01*
X221435000Y-36373691D01*
X221338327Y-36140302D01*
X221159699Y-35961673D01*
X220926310Y-35865000D01*
X220285750Y-35865000D01*
X220127000Y-36023750D01*
X219873000Y-36023750D01*
X219714250Y-35865000D01*
X219073690Y-35865000D01*
X218840301Y-35961673D01*
X218661673Y-36140302D01*
X218565000Y-36373691D01*
X210324334Y-36373691D01*
X210338327Y-36359698D01*
X210435000Y-36126309D01*
X210435000Y-35285750D01*
X223565000Y-35285750D01*
X223565000Y-36126309D01*
X223661673Y-36359698D01*
X223840301Y-36538327D01*
X224073690Y-36635000D01*
X224714250Y-36635000D01*
X224873000Y-36476250D01*
X224873000Y-35127000D01*
X223723750Y-35127000D01*
X223565000Y-35285750D01*
X210435000Y-35285750D01*
X210276250Y-35127000D01*
X209127000Y-35127000D01*
X208873000Y-35127000D01*
X207723750Y-35127000D01*
X207565000Y-35285750D01*
X205498017Y-35285750D01*
X205609908Y-33873691D01*
X207565000Y-33873691D01*
X207565000Y-34714250D01*
X207723750Y-34873000D01*
X208873000Y-34873000D01*
X208873000Y-33523750D01*
X209127000Y-33523750D01*
X209127000Y-34873000D01*
X210276250Y-34873000D01*
X210435000Y-34714250D01*
X210435000Y-33873691D01*
X223565000Y-33873691D01*
X223565000Y-34714250D01*
X223723750Y-34873000D01*
X224873000Y-34873000D01*
X224873000Y-33523750D01*
X225127000Y-33523750D01*
X225127000Y-34873000D01*
X226276250Y-34873000D01*
X226435000Y-34714250D01*
X226435000Y-33873691D01*
X226338327Y-33640302D01*
X226159699Y-33461673D01*
X225926310Y-33365000D01*
X225285750Y-33365000D01*
X225127000Y-33523750D01*
X224873000Y-33523750D01*
X224714250Y-33365000D01*
X224073690Y-33365000D01*
X223840301Y-33461673D01*
X223661673Y-33640302D01*
X223565000Y-33873691D01*
X210435000Y-33873691D01*
X210338327Y-33640302D01*
X210159699Y-33461673D01*
X209926310Y-33365000D01*
X209285750Y-33365000D01*
X209127000Y-33523750D01*
X208873000Y-33523750D01*
X208714250Y-33365000D01*
X208073690Y-33365000D01*
X207840301Y-33461673D01*
X207661673Y-33640302D01*
X207565000Y-33873691D01*
X205609908Y-33873691D01*
X205687266Y-32897440D01*
X207000000Y-32897440D01*
X207235317Y-32853162D01*
X207451441Y-32714090D01*
X207596431Y-32501890D01*
X207637589Y-32298646D01*
X207735910Y-32451441D01*
X207948110Y-32596431D01*
X208200000Y-32647440D01*
X209800000Y-32647440D01*
X210035317Y-32603162D01*
X210251441Y-32464090D01*
X210396431Y-32251890D01*
X210447440Y-32000000D01*
X210447440Y-31000000D01*
X234352560Y-31000000D01*
X234352560Y-31373000D01*
X236873000Y-31373000D01*
X236873000Y-30352560D01*
X235000000Y-30352560D01*
X234764683Y-30396838D01*
X234548559Y-30535910D01*
X234403569Y-30748110D01*
X234352560Y-31000000D01*
X210447440Y-31000000D01*
X210447440Y-30000000D01*
X210403162Y-29764683D01*
X210264090Y-29548559D01*
X210051890Y-29403569D01*
X209800000Y-29352560D01*
X208200000Y-29352560D01*
X207964683Y-29396838D01*
X207748559Y-29535910D01*
X207637688Y-29698175D01*
X207603162Y-29514683D01*
X207464090Y-29298559D01*
X207251890Y-29153569D01*
X207000000Y-29102560D01*
X203000000Y-29102560D01*
X202764683Y-29146838D01*
X202548559Y-29285910D01*
X202403569Y-29498110D01*
X202352560Y-29750000D01*
X202352560Y-32250000D01*
X202396838Y-32485317D01*
X202535910Y-32701441D01*
X202748110Y-32846431D01*
X203000000Y-32897440D01*
X204012031Y-32897440D01*
X203310583Y-41749715D01*
X197970434Y-36409566D01*
X197895801Y-36359698D01*
X197699541Y-36228561D01*
X197380000Y-36165000D01*
X196000000Y-36165000D01*
X195680460Y-36228560D01*
X195409566Y-36409566D01*
X194409566Y-37409566D01*
X194228561Y-37680459D01*
X194165000Y-38000000D01*
X194165000Y-48000000D01*
X194228561Y-48319541D01*
X194375259Y-48539090D01*
X194409566Y-48590434D01*
X195353070Y-49533938D01*
X195353070Y-49865552D01*
X194009566Y-51209056D01*
X193828561Y-51479949D01*
X193765000Y-51799490D01*
X193765000Y-64999490D01*
X193828561Y-65319031D01*
X193925567Y-65464210D01*
X194009566Y-65589924D01*
X194010075Y-65590433D01*
X194280967Y-65771438D01*
X194353070Y-65785780D01*
X194353070Y-65999490D01*
X194397348Y-66234807D01*
X194536420Y-66450931D01*
X194748620Y-66595921D01*
X195000510Y-66646930D01*
X195214219Y-66646930D01*
X195228561Y-66719031D01*
X195354581Y-66907633D01*
X195409566Y-66989924D01*
X196705000Y-68285358D01*
X196705000Y-68608520D01*
X196562923Y-68703453D01*
X196463580Y-68549069D01*
X196251380Y-68404079D01*
X195999490Y-68353070D01*
X194000510Y-68353070D01*
X193765193Y-68397348D01*
X193549069Y-68536420D01*
X193404079Y-68748620D01*
X193353070Y-69000510D01*
X193353070Y-70999490D01*
X193397348Y-71234807D01*
X193536420Y-71450931D01*
X193748620Y-71595921D01*
X194000510Y-71646930D01*
X195999490Y-71646930D01*
X196234807Y-71602652D01*
X196450931Y-71463580D01*
X196564390Y-71297527D01*
X196882486Y-71510072D01*
X197507978Y-71634490D01*
X197572022Y-71634490D01*
X197923674Y-71564542D01*
X198649132Y-72290000D01*
X192710000Y-72290000D01*
X192710000Y-50710000D01*
X193000000Y-50710000D01*
X193271705Y-50655954D01*
X193502046Y-50502046D01*
X193655954Y-50271705D01*
X193710000Y-50000000D01*
X193710000Y-31285750D01*
X194365000Y-31285750D01*
X194365000Y-32376310D01*
X194461673Y-32609699D01*
X194640302Y-32788327D01*
X194873691Y-32885000D01*
X196714250Y-32885000D01*
X196873000Y-32726250D01*
X196873000Y-31127000D01*
X197127000Y-31127000D01*
X197127000Y-32726250D01*
X197285750Y-32885000D01*
X199126309Y-32885000D01*
X199359698Y-32788327D01*
X199538327Y-32609699D01*
X199635000Y-32376310D01*
X199635000Y-31285750D01*
X199476250Y-31127000D01*
X197127000Y-31127000D01*
X196873000Y-31127000D01*
X194523750Y-31127000D01*
X194365000Y-31285750D01*
X193710000Y-31285750D01*
X193710000Y-29623690D01*
X194365000Y-29623690D01*
X194365000Y-30714250D01*
X194523750Y-30873000D01*
X196873000Y-30873000D01*
X196873000Y-29273750D01*
X197127000Y-29273750D01*
X197127000Y-30873000D01*
X199476250Y-30873000D01*
X199635000Y-30714250D01*
X199635000Y-29623690D01*
X199538327Y-29390301D01*
X199359698Y-29211673D01*
X199126309Y-29115000D01*
X197285750Y-29115000D01*
X197127000Y-29273750D01*
X196873000Y-29273750D01*
X196714250Y-29115000D01*
X194873691Y-29115000D01*
X194640302Y-29211673D01*
X194461673Y-29390301D01*
X194365000Y-29623690D01*
X193710000Y-29623690D01*
X193710000Y-25710000D01*
X238290000Y-25710000D01*
X238290000Y-30352560D01*
X238290000Y-30352560D01*
G37*
X238290000Y-30352560D02*
X237127000Y-30352560D01*
X237127000Y-31373000D01*
X237147000Y-31373000D01*
X237147000Y-31627000D01*
X237127000Y-31627000D01*
X237127000Y-32647440D01*
X238290000Y-32647440D01*
X238290000Y-32852560D01*
X237913529Y-32852560D01*
X237886146Y-32821933D01*
X237799800Y-32780376D01*
X237720129Y-32727142D01*
X237667396Y-32716653D01*
X237618945Y-32693334D01*
X237523270Y-32687984D01*
X237429290Y-32669290D01*
X237070710Y-32669290D01*
X236779870Y-32727142D01*
X236592169Y-32852560D01*
X235000000Y-32852560D01*
X234764683Y-32896838D01*
X234548559Y-33035910D01*
X234403569Y-33248110D01*
X234352560Y-33500000D01*
X234352560Y-34500000D01*
X234396838Y-34735317D01*
X234535910Y-34951441D01*
X234565024Y-34971334D01*
X234564838Y-35185167D01*
X234675903Y-35453966D01*
X234548559Y-35535910D01*
X234409110Y-35740000D01*
X232500000Y-35740000D01*
X232209161Y-35797852D01*
X231962599Y-35962599D01*
X230572638Y-37352560D01*
X229260000Y-37352560D01*
X229260000Y-36814802D01*
X229427362Y-36647440D01*
X230850000Y-36647440D01*
X231085317Y-36603162D01*
X231301441Y-36464090D01*
X231446431Y-36251890D01*
X231497440Y-36000000D01*
X231497440Y-34577362D01*
X232639680Y-33435122D01*
X232685167Y-33435162D01*
X233028943Y-33293117D01*
X233292192Y-33030327D01*
X233434838Y-32686799D01*
X233435162Y-32314833D01*
X233293117Y-31971057D01*
X233030327Y-31707808D01*
X232835721Y-31627000D01*
X234352560Y-31627000D01*
X234352560Y-32000000D01*
X234396838Y-32235317D01*
X234535910Y-32451441D01*
X234748110Y-32596431D01*
X235000000Y-32647440D01*
X236873000Y-32647440D01*
X236873000Y-31627000D01*
X234352560Y-31627000D01*
X232835721Y-31627000D01*
X232686799Y-31565162D01*
X232314833Y-31564838D01*
X231971057Y-31706883D01*
X231707808Y-31969673D01*
X231565162Y-32313201D01*
X231565121Y-32360077D01*
X230572638Y-33352560D01*
X230385080Y-33352560D01*
X230528943Y-33293117D01*
X230792192Y-33030327D01*
X230934838Y-32686799D01*
X230935162Y-32314833D01*
X230793117Y-31971057D01*
X230530327Y-31707808D01*
X230186799Y-31565162D01*
X229814833Y-31564838D01*
X229471057Y-31706883D01*
X229207808Y-31969673D01*
X229065162Y-32313201D01*
X229065121Y-32360077D01*
X228685198Y-32740000D01*
X228500000Y-32740000D01*
X228209161Y-32797852D01*
X227962599Y-32962599D01*
X227797852Y-33209161D01*
X227740000Y-33500000D01*
X227740000Y-34185198D01*
X226435000Y-35490198D01*
X226435000Y-35285750D01*
X226276250Y-35127000D01*
X225127000Y-35127000D01*
X225127000Y-36476250D01*
X225285750Y-36635000D01*
X225740000Y-36635000D01*
X225740000Y-37352560D01*
X224200000Y-37352560D01*
X223964683Y-37396838D01*
X223748559Y-37535910D01*
X223603569Y-37748110D01*
X223552560Y-38000000D01*
X223552560Y-39572638D01*
X223412599Y-39712599D01*
X223247852Y-39959161D01*
X223190000Y-40250000D01*
X223190000Y-45610194D01*
X222037597Y-46762597D01*
X221872850Y-47009159D01*
X221814998Y-47299998D01*
X221814998Y-47900002D01*
X221872850Y-48190841D01*
X222037597Y-48437403D01*
X222185183Y-48584989D01*
X221407452Y-48584989D01*
X221375316Y-48552797D01*
X221031788Y-48410151D01*
X220659822Y-48409827D01*
X220316046Y-48551872D01*
X220052797Y-48814662D01*
X220041550Y-48841746D01*
X219486048Y-48286244D01*
X219723298Y-48384759D01*
X220274285Y-48385240D01*
X220783515Y-48174831D01*
X221173461Y-47785564D01*
X221384759Y-47276702D01*
X221385240Y-46725715D01*
X221174831Y-46216485D01*
X220785564Y-45826539D01*
X220760000Y-45815924D01*
X220760000Y-43147440D01*
X220800000Y-43147440D01*
X221035317Y-43103162D01*
X221251441Y-42964090D01*
X221396431Y-42751890D01*
X221447440Y-42500000D01*
X221447440Y-40500000D01*
X221403162Y-40264683D01*
X221264090Y-40048559D01*
X221051890Y-39903569D01*
X220800000Y-39852560D01*
X219200000Y-39852560D01*
X218964683Y-39896838D01*
X218748559Y-40035910D01*
X218603569Y-40248110D01*
X218552560Y-40500000D01*
X218552560Y-42500000D01*
X218596838Y-42735317D01*
X218735910Y-42951441D01*
X218948110Y-43096431D01*
X219200000Y-43147440D01*
X219240000Y-43147440D01*
X219240000Y-45815453D01*
X219216485Y-45825169D01*
X218826539Y-46214436D01*
X218615241Y-46723298D01*
X218614760Y-47274285D01*
X218713811Y-47514007D01*
X218392403Y-47192599D01*
X218145841Y-47027852D01*
X217855002Y-46970000D01*
X215304914Y-46970000D01*
X215347440Y-46760000D01*
X215347440Y-46160000D01*
X215303162Y-45924683D01*
X215239322Y-45825472D01*
X215296431Y-45741890D01*
X215347440Y-45490000D01*
X215347440Y-44890000D01*
X215303162Y-44654683D01*
X215244822Y-44564020D01*
X215335000Y-44346310D01*
X215335000Y-44205750D01*
X215176250Y-44047000D01*
X213827000Y-44047000D01*
X213827000Y-44067000D01*
X213573000Y-44067000D01*
X213573000Y-44047000D01*
X213553000Y-44047000D01*
X213553000Y-43793000D01*
X213573000Y-43793000D01*
X213573000Y-43143750D01*
X213827000Y-43143750D01*
X213827000Y-43793000D01*
X215176250Y-43793000D01*
X215335000Y-43634250D01*
X215335000Y-43493690D01*
X215238327Y-43260301D01*
X215059698Y-43081673D01*
X214826309Y-42985000D01*
X213985750Y-42985000D01*
X213827000Y-43143750D01*
X213573000Y-43143750D01*
X213414250Y-42985000D01*
X213089802Y-42985000D01*
X213639680Y-42435122D01*
X213685167Y-42435162D01*
X214028943Y-42293117D01*
X214292192Y-42030327D01*
X214434838Y-41686799D01*
X214435162Y-41314833D01*
X214293117Y-40971057D01*
X214030327Y-40707808D01*
X213686799Y-40565162D01*
X213314833Y-40564838D01*
X212971057Y-40706883D01*
X212707808Y-40969673D01*
X212565162Y-41313201D01*
X212565121Y-41360077D01*
X209962599Y-43962599D01*
X209797852Y-44209161D01*
X209740000Y-44500000D01*
X209740000Y-45185198D01*
X208462599Y-46462599D01*
X208297852Y-46709161D01*
X208240000Y-47000000D01*
X208240000Y-50500000D01*
X208297852Y-50790839D01*
X208462599Y-51037401D01*
X211962599Y-54537401D01*
X212110135Y-54635982D01*
X212235910Y-54831441D01*
X212448110Y-54976431D01*
X212700000Y-55027440D01*
X214700000Y-55027440D01*
X214935317Y-54983162D01*
X215151441Y-54844090D01*
X215296431Y-54631890D01*
X215347440Y-54380000D01*
X215347440Y-53780000D01*
X215303162Y-53544683D01*
X215239322Y-53445472D01*
X215296431Y-53361890D01*
X215347440Y-53110000D01*
X215347440Y-52510000D01*
X215307926Y-52300000D01*
X216800194Y-52300000D01*
X217062597Y-52562403D01*
X217309158Y-52727150D01*
X217357412Y-52736748D01*
X217599998Y-52785002D01*
X218263996Y-52785002D01*
X218554835Y-52727150D01*
X218787286Y-52571831D01*
X218825169Y-52663515D01*
X219214436Y-53053461D01*
X219240000Y-53064076D01*
X219240000Y-55352560D01*
X219200000Y-55352560D01*
X218964683Y-55396838D01*
X218748559Y-55535910D01*
X218603569Y-55748110D01*
X218552560Y-56000000D01*
X218552560Y-58000000D01*
X218596838Y-58235317D01*
X218735910Y-58451441D01*
X218948110Y-58596431D01*
X219200000Y-58647440D01*
X220800000Y-58647440D01*
X221035317Y-58603162D01*
X221251441Y-58464090D01*
X221396431Y-58251890D01*
X221447440Y-58000000D01*
X221447440Y-56000000D01*
X221403162Y-55764683D01*
X221264090Y-55548559D01*
X221051890Y-55403569D01*
X220800000Y-55352560D01*
X220760000Y-55352560D01*
X220760000Y-53064547D01*
X220783515Y-53054831D01*
X221173461Y-52665564D01*
X221384759Y-52156702D01*
X221385240Y-51605715D01*
X221368417Y-51564999D01*
X221890197Y-51564999D01*
X222064878Y-51739680D01*
X222064838Y-51785167D01*
X222206883Y-52128943D01*
X222469673Y-52392192D01*
X222813201Y-52534838D01*
X223185167Y-52535162D01*
X223528943Y-52393117D01*
X223673755Y-52248557D01*
X223762599Y-52337401D01*
X224009160Y-52502148D01*
X224048635Y-52510000D01*
X224300000Y-52560000D01*
X224535025Y-52560000D01*
X224698110Y-52671431D01*
X224950000Y-52722440D01*
X226277560Y-52722440D01*
X226277560Y-53273956D01*
X226270029Y-53288479D01*
X226260873Y-53395066D01*
X226240000Y-53500000D01*
X226240000Y-53685198D01*
X225360320Y-54564878D01*
X225314833Y-54564838D01*
X224971057Y-54706883D01*
X224707808Y-54969673D01*
X224565162Y-55313201D01*
X224564838Y-55685167D01*
X224706883Y-56028943D01*
X224969673Y-56292192D01*
X225313201Y-56434838D01*
X225685167Y-56435162D01*
X226028943Y-56293117D01*
X226292192Y-56030327D01*
X226434838Y-55686799D01*
X226434879Y-55639923D01*
X226564991Y-55509811D01*
X226564838Y-55685167D01*
X226706883Y-56028943D01*
X226969673Y-56292192D01*
X227313201Y-56434838D01*
X227685167Y-56435162D01*
X228028943Y-56293117D01*
X228292192Y-56030327D01*
X228434838Y-55686799D01*
X228434879Y-55639923D01*
X228537401Y-55537401D01*
X228702148Y-55290839D01*
X228760000Y-55000000D01*
X228760000Y-54697440D01*
X229075000Y-54697440D01*
X229204589Y-54673056D01*
X229325000Y-54697440D01*
X229875000Y-54697440D01*
X230004589Y-54673056D01*
X230125000Y-54697440D01*
X230439319Y-54697440D01*
X230297852Y-54909161D01*
X230240000Y-55200000D01*
X230240000Y-55437537D01*
X230207808Y-55469673D01*
X230065162Y-55813201D01*
X230064838Y-56185167D01*
X230206883Y-56528943D01*
X230469673Y-56792192D01*
X230813201Y-56934838D01*
X231185167Y-56935162D01*
X231528943Y-56793117D01*
X231792192Y-56530327D01*
X231934838Y-56186799D01*
X231935162Y-55814833D01*
X231793117Y-55471057D01*
X231786296Y-55464224D01*
X231902148Y-55290839D01*
X231960000Y-55000000D01*
X231960000Y-54697440D01*
X232240000Y-54697440D01*
X232240000Y-57587253D01*
X232186799Y-57565162D01*
X231814833Y-57564838D01*
X231471057Y-57706883D01*
X231437882Y-57740000D01*
X231147440Y-57740000D01*
X231147440Y-57650000D01*
X231103162Y-57414683D01*
X230964090Y-57198559D01*
X230751890Y-57053569D01*
X230500000Y-57002560D01*
X228500000Y-57002560D01*
X228264683Y-57046838D01*
X228048559Y-57185910D01*
X227903569Y-57398110D01*
X227852560Y-57650000D01*
X227852560Y-59350000D01*
X227896838Y-59585317D01*
X228035910Y-59801441D01*
X228248110Y-59946431D01*
X228500000Y-59997440D01*
X230500000Y-59997440D01*
X230735317Y-59953162D01*
X230951441Y-59814090D01*
X231096431Y-59601890D01*
X231147440Y-59350000D01*
X231147440Y-59260000D01*
X231437537Y-59260000D01*
X231469673Y-59292192D01*
X231813201Y-59434838D01*
X232185167Y-59435162D01*
X232240000Y-59412506D01*
X232240000Y-61000000D01*
X232297852Y-61290839D01*
X232462599Y-61537401D01*
X232709161Y-61702148D01*
X233000000Y-61760000D01*
X234275816Y-61760000D01*
X233933809Y-61901314D01*
X233403178Y-62431021D01*
X233326783Y-62615000D01*
X232947440Y-62615000D01*
X232947440Y-62500000D01*
X232903162Y-62264683D01*
X232764090Y-62048559D01*
X232551890Y-61903569D01*
X232300000Y-61852560D01*
X230700000Y-61852560D01*
X230464683Y-61896838D01*
X230248559Y-62035910D01*
X230103569Y-62248110D01*
X230052560Y-62500000D01*
X230052560Y-62615000D01*
X229466899Y-62615000D01*
X228948300Y-62096400D01*
X228948300Y-61200670D01*
X228904022Y-60965353D01*
X228764950Y-60749229D01*
X228552750Y-60604239D01*
X228300860Y-60553230D01*
X227300100Y-60553230D01*
X227064783Y-60597508D01*
X226848659Y-60736580D01*
X226703669Y-60948780D01*
X226652660Y-61200670D01*
X226652660Y-62595511D01*
X226248280Y-62999891D01*
X226248280Y-61558920D01*
X226260000Y-61500000D01*
X226260000Y-59997440D01*
X226500000Y-59997440D01*
X226735317Y-59953162D01*
X226951441Y-59814090D01*
X227096431Y-59601890D01*
X227147440Y-59350000D01*
X227147440Y-57650000D01*
X227103162Y-57414683D01*
X226964090Y-57198559D01*
X226751890Y-57053569D01*
X226500000Y-57002560D01*
X224500000Y-57002560D01*
X224264683Y-57046838D01*
X224048559Y-57185910D01*
X223903569Y-57398110D01*
X223852560Y-57650000D01*
X223852560Y-59350000D01*
X223896838Y-59585317D01*
X224035910Y-59801441D01*
X224248110Y-59946431D01*
X224500000Y-59997440D01*
X224740000Y-59997440D01*
X224740000Y-60553230D01*
X224701680Y-60553230D01*
X224466363Y-60597508D01*
X224250239Y-60736580D01*
X224105249Y-60948780D01*
X224054240Y-61200670D01*
X224054240Y-63199650D01*
X224098518Y-63434967D01*
X224237590Y-63651091D01*
X224449790Y-63796081D01*
X224701680Y-63847090D01*
X225401081Y-63847090D01*
X223683011Y-65565159D01*
X223314833Y-65564838D01*
X222971057Y-65706883D01*
X222707808Y-65969673D01*
X222565162Y-66313201D01*
X222564838Y-66685167D01*
X222706883Y-67028943D01*
X222969673Y-67292192D01*
X223313201Y-67434838D01*
X223685167Y-67435162D01*
X223806569Y-67385000D01*
X223999745Y-67385000D01*
X223999750Y-67385001D01*
X224282234Y-67328810D01*
X224338425Y-67317633D01*
X224625540Y-67125790D01*
X225377638Y-66373691D01*
X230065000Y-66373691D01*
X230065000Y-67214250D01*
X230223750Y-67373000D01*
X231373000Y-67373000D01*
X231373000Y-66023750D01*
X231627000Y-66023750D01*
X231627000Y-67373000D01*
X232776250Y-67373000D01*
X232935000Y-67214250D01*
X232935000Y-66373691D01*
X232838327Y-66140302D01*
X232659699Y-65961673D01*
X232426310Y-65865000D01*
X231785750Y-65865000D01*
X231627000Y-66023750D01*
X231373000Y-66023750D01*
X231214250Y-65865000D01*
X230573690Y-65865000D01*
X230340301Y-65961673D01*
X230161673Y-66140302D01*
X230065000Y-66373691D01*
X225377638Y-66373691D01*
X227904239Y-63847090D01*
X228195831Y-63847090D01*
X228474528Y-64125787D01*
X228474530Y-64125790D01*
X228628339Y-64228561D01*
X228761645Y-64317633D01*
X229100320Y-64385000D01*
X230052560Y-64385000D01*
X230052560Y-64500000D01*
X230096838Y-64735317D01*
X230235910Y-64951441D01*
X230448110Y-65096431D01*
X230700000Y-65147440D01*
X232300000Y-65147440D01*
X232535317Y-65103162D01*
X232751441Y-64964090D01*
X232896431Y-64751890D01*
X232947440Y-64500000D01*
X232947440Y-64385000D01*
X233326448Y-64385000D01*
X233401314Y-64566191D01*
X233931021Y-65096822D01*
X234623469Y-65384352D01*
X235373241Y-65385006D01*
X235814681Y-65202607D01*
X235814681Y-66293851D01*
X235324117Y-66105929D01*
X234574616Y-66126072D01*
X233975725Y-66374141D01*
X233846517Y-66666911D01*
X235000000Y-67820395D01*
X235014142Y-67806252D01*
X235193748Y-67985858D01*
X235179605Y-68000000D01*
X235193748Y-68014142D01*
X235014142Y-68193748D01*
X235000000Y-68179605D01*
X234985858Y-68193748D01*
X234806252Y-68014142D01*
X234820395Y-68000000D01*
X233666911Y-66846517D01*
X233374141Y-66975725D01*
X233105929Y-67675883D01*
X233126072Y-68425384D01*
X233374141Y-69024275D01*
X233409409Y-69039840D01*
X232656046Y-69039840D01*
X232659699Y-69038327D01*
X232838327Y-68859698D01*
X232935000Y-68626309D01*
X232935000Y-67785750D01*
X232776250Y-67627000D01*
X231627000Y-67627000D01*
X231627000Y-67647000D01*
X231373000Y-67647000D01*
X231373000Y-67627000D01*
X230223750Y-67627000D01*
X230065000Y-67785750D01*
X230065000Y-68626309D01*
X230161673Y-68859698D01*
X230340301Y-69038327D01*
X230343954Y-69039840D01*
X228948300Y-69039840D01*
X228948300Y-68800350D01*
X228904022Y-68565033D01*
X228764950Y-68348909D01*
X228552750Y-68203919D01*
X228300860Y-68152910D01*
X227300100Y-68152910D01*
X227064783Y-68197188D01*
X226848659Y-68336260D01*
X226703669Y-68548460D01*
X226652660Y-68800350D01*
X226652660Y-70799330D01*
X226664345Y-70861432D01*
X226662599Y-70862599D01*
X226285198Y-71240000D01*
X226157255Y-71240000D01*
X226238227Y-71159028D01*
X226334900Y-70925639D01*
X226334900Y-70085590D01*
X226176150Y-69926840D01*
X225326520Y-69926840D01*
X225326520Y-69946840D01*
X225072520Y-69946840D01*
X225072520Y-69926840D01*
X224222890Y-69926840D01*
X224064140Y-70085590D01*
X224064140Y-70925639D01*
X224160813Y-71159028D01*
X224241785Y-71240000D01*
X220147440Y-71240000D01*
X220147440Y-69650000D01*
X220103162Y-69414683D01*
X219964090Y-69198559D01*
X219751890Y-69053569D01*
X219500000Y-69002560D01*
X218033428Y-69002560D01*
X217704909Y-68674041D01*
X224064140Y-68674041D01*
X224064140Y-69514090D01*
X224222890Y-69672840D01*
X225072520Y-69672840D01*
X225072520Y-68324100D01*
X225326520Y-68324100D01*
X225326520Y-69672840D01*
X226176150Y-69672840D01*
X226334900Y-69514090D01*
X226334900Y-68674041D01*
X226238227Y-68440652D01*
X226059599Y-68262023D01*
X225826210Y-68165350D01*
X225485270Y-68165350D01*
X225326520Y-68324100D01*
X225072520Y-68324100D01*
X224913770Y-68165350D01*
X224572830Y-68165350D01*
X224339441Y-68262023D01*
X224160813Y-68440652D01*
X224064140Y-68674041D01*
X217704909Y-68674041D01*
X217690434Y-68659566D01*
X217548955Y-68565033D01*
X217419541Y-68478561D01*
X217100000Y-68415000D01*
X213179999Y-68414999D01*
X212860458Y-68478560D01*
X212639336Y-68626309D01*
X212589565Y-68659565D01*
X210234628Y-71014502D01*
X208560548Y-71014502D01*
X212315050Y-67260000D01*
X213437537Y-67260000D01*
X213469673Y-67292192D01*
X213813201Y-67434838D01*
X214185167Y-67435162D01*
X214528943Y-67293117D01*
X214792192Y-67030327D01*
X214934838Y-66686799D01*
X214935162Y-66314833D01*
X214793117Y-65971057D01*
X214530327Y-65707808D01*
X214186799Y-65565162D01*
X213814833Y-65564838D01*
X213471057Y-65706883D01*
X213437882Y-65740000D01*
X212000248Y-65740000D01*
X211709409Y-65797852D01*
X211462847Y-65962599D01*
X208034777Y-69390669D01*
X207932987Y-69144916D01*
X207499726Y-68676932D01*
X206920355Y-68410373D01*
X206667000Y-68529193D01*
X206667000Y-69873000D01*
X206687000Y-69873000D01*
X206687000Y-70127000D01*
X206667000Y-70127000D01*
X206667000Y-70147000D01*
X206413000Y-70147000D01*
X206413000Y-70127000D01*
X206393000Y-70127000D01*
X206393000Y-69873000D01*
X206413000Y-69873000D01*
X206413000Y-68529193D01*
X206159645Y-68410373D01*
X205580274Y-68676932D01*
X205559970Y-68698863D01*
X205463580Y-68549069D01*
X205251380Y-68404079D01*
X204999490Y-68353070D01*
X203000510Y-68353070D01*
X202765193Y-68397348D01*
X202549069Y-68536420D01*
X202404079Y-68748620D01*
X202353070Y-69000510D01*
X202353070Y-70999490D01*
X202355895Y-71014502D01*
X201325397Y-71014502D01*
X201472987Y-70855084D01*
X201669619Y-70380354D01*
X201550265Y-70127000D01*
X200207000Y-70127000D01*
X200207000Y-70147000D01*
X199953000Y-70147000D01*
X199953000Y-70127000D01*
X199933000Y-70127000D01*
X199933000Y-69873000D01*
X199953000Y-69873000D01*
X199953000Y-68529193D01*
X200207000Y-68529193D01*
X200207000Y-69873000D01*
X201550265Y-69873000D01*
X201669619Y-69619646D01*
X201472987Y-69144916D01*
X201039726Y-68676932D01*
X200460355Y-68410373D01*
X200207000Y-68529193D01*
X199953000Y-68529193D01*
X199699645Y-68410373D01*
X199120274Y-68676932D01*
X198827379Y-68993300D01*
X198727781Y-68844241D01*
X198375000Y-68608520D01*
X198375000Y-67939490D01*
X198311439Y-67619949D01*
X198130434Y-67349056D01*
X197325604Y-66544226D01*
X197450931Y-66463580D01*
X197595921Y-66251380D01*
X197646930Y-65999490D01*
X197646930Y-64533938D01*
X200405118Y-61775750D01*
X203165000Y-61775750D01*
X203165000Y-65116309D01*
X203261673Y-65349698D01*
X203440301Y-65528327D01*
X203673690Y-65625000D01*
X207014250Y-65625000D01*
X207173000Y-65466250D01*
X207173000Y-61617000D01*
X207427000Y-61617000D01*
X207427000Y-65466250D01*
X207585750Y-65625000D01*
X210926310Y-65625000D01*
X211159699Y-65528327D01*
X211338327Y-65349698D01*
X211435000Y-65116309D01*
X211435000Y-62790000D01*
X212302560Y-62790000D01*
X212302560Y-64790000D01*
X212346838Y-65025317D01*
X212485910Y-65241441D01*
X212698110Y-65386431D01*
X212950000Y-65437440D01*
X215095860Y-65437440D01*
X216065081Y-66406660D01*
X216064838Y-66685167D01*
X216206883Y-67028943D01*
X216469673Y-67292192D01*
X216813201Y-67434838D01*
X217185167Y-67435162D01*
X217528943Y-67293117D01*
X217792192Y-67030327D01*
X217934838Y-66686799D01*
X217935162Y-66314833D01*
X217885000Y-66193431D01*
X217885000Y-66090005D01*
X217885001Y-66090000D01*
X217817633Y-65751325D01*
X217735264Y-65628051D01*
X217625790Y-65464210D01*
X217625787Y-65464208D01*
X217072877Y-64911297D01*
X217097440Y-64790000D01*
X217097440Y-62790000D01*
X217053162Y-62554683D01*
X216914090Y-62338559D01*
X216701890Y-62193569D01*
X216450000Y-62142560D01*
X212950000Y-62142560D01*
X212714683Y-62186838D01*
X212498559Y-62325910D01*
X212353569Y-62538110D01*
X212302560Y-62790000D01*
X211435000Y-62790000D01*
X211435000Y-61775750D01*
X211276250Y-61617000D01*
X207427000Y-61617000D01*
X207173000Y-61617000D01*
X203323750Y-61617000D01*
X203165000Y-61775750D01*
X200405118Y-61775750D01*
X203165000Y-59015868D01*
X203165000Y-61204250D01*
X203323750Y-61363000D01*
X207173000Y-61363000D01*
X207173000Y-61343000D01*
X207427000Y-61343000D01*
X207427000Y-61363000D01*
X211276250Y-61363000D01*
X211353500Y-61285750D01*
X218565000Y-61285750D01*
X218565000Y-62126309D01*
X218661673Y-62359698D01*
X218840301Y-62538327D01*
X219073690Y-62635000D01*
X219714250Y-62635000D01*
X219873000Y-62476250D01*
X219873000Y-61127000D01*
X220127000Y-61127000D01*
X220127000Y-62476250D01*
X220285750Y-62635000D01*
X220926310Y-62635000D01*
X221159699Y-62538327D01*
X221338327Y-62359698D01*
X221435000Y-62126309D01*
X221435000Y-61285750D01*
X221276250Y-61127000D01*
X220127000Y-61127000D01*
X219873000Y-61127000D01*
X218723750Y-61127000D01*
X218565000Y-61285750D01*
X211353500Y-61285750D01*
X211435000Y-61204250D01*
X211435000Y-58235000D01*
X211794132Y-58235000D01*
X212302560Y-58743428D01*
X212302560Y-60210000D01*
X212346838Y-60445317D01*
X212485910Y-60661441D01*
X212698110Y-60806431D01*
X212950000Y-60857440D01*
X216450000Y-60857440D01*
X216685317Y-60813162D01*
X216901441Y-60674090D01*
X217046431Y-60461890D01*
X217097440Y-60210000D01*
X217097440Y-59873691D01*
X218565000Y-59873691D01*
X218565000Y-60714250D01*
X218723750Y-60873000D01*
X219873000Y-60873000D01*
X219873000Y-59523750D01*
X220127000Y-59523750D01*
X220127000Y-60873000D01*
X221276250Y-60873000D01*
X221435000Y-60714250D01*
X221435000Y-59873691D01*
X221338327Y-59640302D01*
X221159699Y-59461673D01*
X220926310Y-59365000D01*
X220285750Y-59365000D01*
X220127000Y-59523750D01*
X219873000Y-59523750D01*
X219714250Y-59365000D01*
X219073690Y-59365000D01*
X218840301Y-59461673D01*
X218661673Y-59640302D01*
X218565000Y-59873691D01*
X217097440Y-59873691D01*
X217097440Y-58210000D01*
X217053162Y-57974683D01*
X216914090Y-57758559D01*
X216701890Y-57613569D01*
X216450000Y-57562560D01*
X215535000Y-57562560D01*
X215535000Y-57245868D01*
X217388333Y-55392535D01*
X217628943Y-55293117D01*
X217892192Y-55030327D01*
X218034838Y-54686799D01*
X218035162Y-54314833D01*
X217893117Y-53971057D01*
X217630327Y-53707808D01*
X217286799Y-53565162D01*
X216914833Y-53564838D01*
X216571057Y-53706883D01*
X216307808Y-53969673D01*
X216207222Y-54211910D01*
X214109566Y-56309566D01*
X213928561Y-56580459D01*
X213865000Y-56900000D01*
X213865000Y-57562560D01*
X213483428Y-57562560D01*
X212730434Y-56809566D01*
X212626321Y-56740000D01*
X212459541Y-56628561D01*
X212140000Y-56565000D01*
X203600000Y-56565000D01*
X203280459Y-56628561D01*
X203113679Y-56740000D01*
X203009566Y-56809566D01*
X198245317Y-61573815D01*
X198260000Y-61500000D01*
X198260000Y-61314802D01*
X204547362Y-55027440D01*
X205300000Y-55027440D01*
X205535317Y-54983162D01*
X205751441Y-54844090D01*
X205896431Y-54631890D01*
X205947440Y-54380000D01*
X205947440Y-53780000D01*
X205903162Y-53544683D01*
X205839322Y-53445472D01*
X205896431Y-53361890D01*
X205947440Y-53110000D01*
X205947440Y-52510000D01*
X205903162Y-52274683D01*
X205839322Y-52175472D01*
X205896431Y-52091890D01*
X205947440Y-51840000D01*
X205947440Y-51240000D01*
X205903162Y-51004683D01*
X205839322Y-50905472D01*
X205896431Y-50821890D01*
X205947440Y-50570000D01*
X205947440Y-49970000D01*
X205903162Y-49734683D01*
X205839322Y-49635472D01*
X205896431Y-49551890D01*
X205947440Y-49300000D01*
X205947440Y-48700000D01*
X205903162Y-48464683D01*
X205839322Y-48365472D01*
X205896431Y-48281890D01*
X205947440Y-48030000D01*
X205947440Y-47430000D01*
X205903162Y-47194683D01*
X205839322Y-47095472D01*
X205896431Y-47011890D01*
X205947440Y-46760000D01*
X205947440Y-46160000D01*
X205903162Y-45924683D01*
X205839322Y-45825472D01*
X205896431Y-45741890D01*
X205947440Y-45490000D01*
X205947440Y-44890000D01*
X205903162Y-44654683D01*
X205839322Y-44555472D01*
X205896431Y-44471890D01*
X205947440Y-44220000D01*
X205947440Y-43620000D01*
X205903162Y-43384683D01*
X205764090Y-43168559D01*
X205551890Y-43023569D01*
X205300000Y-42972560D01*
X204888920Y-42972560D01*
X205299918Y-37785750D01*
X218565000Y-37785750D01*
X218565000Y-38626309D01*
X218661673Y-38859698D01*
X218840301Y-39038327D01*
X219073690Y-39135000D01*
X219714250Y-39135000D01*
X219873000Y-38976250D01*
X219873000Y-37627000D01*
X220127000Y-37627000D01*
X220127000Y-38976250D01*
X220285750Y-39135000D01*
X220926310Y-39135000D01*
X221159699Y-39038327D01*
X221338327Y-38859698D01*
X221435000Y-38626309D01*
X221435000Y-37785750D01*
X221276250Y-37627000D01*
X220127000Y-37627000D01*
X219873000Y-37627000D01*
X218723750Y-37627000D01*
X218565000Y-37785750D01*
X205299918Y-37785750D01*
X205498017Y-35285750D01*
X207565000Y-35285750D01*
X207565000Y-36126309D01*
X207661673Y-36359698D01*
X207840301Y-36538327D01*
X208073690Y-36635000D01*
X208714250Y-36635000D01*
X208873000Y-36476250D01*
X208873000Y-35127000D01*
X209127000Y-35127000D01*
X209127000Y-36476250D01*
X209285750Y-36635000D01*
X209926310Y-36635000D01*
X210159699Y-36538327D01*
X210324334Y-36373691D01*
X218565000Y-36373691D01*
X218565000Y-37214250D01*
X218723750Y-37373000D01*
X219873000Y-37373000D01*
X219873000Y-36023750D01*
X220127000Y-36023750D01*
X220127000Y-37373000D01*
X221276250Y-37373000D01*
X221435000Y-37214250D01*
X221435000Y-36373691D01*
X221338327Y-36140302D01*
X221159699Y-35961673D01*
X220926310Y-35865000D01*
X220285750Y-35865000D01*
X220127000Y-36023750D01*
X219873000Y-36023750D01*
X219714250Y-35865000D01*
X219073690Y-35865000D01*
X218840301Y-35961673D01*
X218661673Y-36140302D01*
X218565000Y-36373691D01*
X210324334Y-36373691D01*
X210338327Y-36359698D01*
X210435000Y-36126309D01*
X210435000Y-35285750D01*
X223565000Y-35285750D01*
X223565000Y-36126309D01*
X223661673Y-36359698D01*
X223840301Y-36538327D01*
X224073690Y-36635000D01*
X224714250Y-36635000D01*
X224873000Y-36476250D01*
X224873000Y-35127000D01*
X223723750Y-35127000D01*
X223565000Y-35285750D01*
X210435000Y-35285750D01*
X210276250Y-35127000D01*
X209127000Y-35127000D01*
X208873000Y-35127000D01*
X207723750Y-35127000D01*
X207565000Y-35285750D01*
X205498017Y-35285750D01*
X205609908Y-33873691D01*
X207565000Y-33873691D01*
X207565000Y-34714250D01*
X207723750Y-34873000D01*
X208873000Y-34873000D01*
X208873000Y-33523750D01*
X209127000Y-33523750D01*
X209127000Y-34873000D01*
X210276250Y-34873000D01*
X210435000Y-34714250D01*
X210435000Y-33873691D01*
X223565000Y-33873691D01*
X223565000Y-34714250D01*
X223723750Y-34873000D01*
X224873000Y-34873000D01*
X224873000Y-33523750D01*
X225127000Y-33523750D01*
X225127000Y-34873000D01*
X226276250Y-34873000D01*
X226435000Y-34714250D01*
X226435000Y-33873691D01*
X226338327Y-33640302D01*
X226159699Y-33461673D01*
X225926310Y-33365000D01*
X225285750Y-33365000D01*
X225127000Y-33523750D01*
X224873000Y-33523750D01*
X224714250Y-33365000D01*
X224073690Y-33365000D01*
X223840301Y-33461673D01*
X223661673Y-33640302D01*
X223565000Y-33873691D01*
X210435000Y-33873691D01*
X210338327Y-33640302D01*
X210159699Y-33461673D01*
X209926310Y-33365000D01*
X209285750Y-33365000D01*
X209127000Y-33523750D01*
X208873000Y-33523750D01*
X208714250Y-33365000D01*
X208073690Y-33365000D01*
X207840301Y-33461673D01*
X207661673Y-33640302D01*
X207565000Y-33873691D01*
X205609908Y-33873691D01*
X205687266Y-32897440D01*
X207000000Y-32897440D01*
X207235317Y-32853162D01*
X207451441Y-32714090D01*
X207596431Y-32501890D01*
X207637589Y-32298646D01*
X207735910Y-32451441D01*
X207948110Y-32596431D01*
X208200000Y-32647440D01*
X209800000Y-32647440D01*
X210035317Y-32603162D01*
X210251441Y-32464090D01*
X210396431Y-32251890D01*
X210447440Y-32000000D01*
X210447440Y-31000000D01*
X234352560Y-31000000D01*
X234352560Y-31373000D01*
X236873000Y-31373000D01*
X236873000Y-30352560D01*
X235000000Y-30352560D01*
X234764683Y-30396838D01*
X234548559Y-30535910D01*
X234403569Y-30748110D01*
X234352560Y-31000000D01*
X210447440Y-31000000D01*
X210447440Y-30000000D01*
X210403162Y-29764683D01*
X210264090Y-29548559D01*
X210051890Y-29403569D01*
X209800000Y-29352560D01*
X208200000Y-29352560D01*
X207964683Y-29396838D01*
X207748559Y-29535910D01*
X207637688Y-29698175D01*
X207603162Y-29514683D01*
X207464090Y-29298559D01*
X207251890Y-29153569D01*
X207000000Y-29102560D01*
X203000000Y-29102560D01*
X202764683Y-29146838D01*
X202548559Y-29285910D01*
X202403569Y-29498110D01*
X202352560Y-29750000D01*
X202352560Y-32250000D01*
X202396838Y-32485317D01*
X202535910Y-32701441D01*
X202748110Y-32846431D01*
X203000000Y-32897440D01*
X204012031Y-32897440D01*
X203310583Y-41749715D01*
X197970434Y-36409566D01*
X197895801Y-36359698D01*
X197699541Y-36228561D01*
X197380000Y-36165000D01*
X196000000Y-36165000D01*
X195680460Y-36228560D01*
X195409566Y-36409566D01*
X194409566Y-37409566D01*
X194228561Y-37680459D01*
X194165000Y-38000000D01*
X194165000Y-48000000D01*
X194228561Y-48319541D01*
X194375259Y-48539090D01*
X194409566Y-48590434D01*
X195353070Y-49533938D01*
X195353070Y-49865552D01*
X194009566Y-51209056D01*
X193828561Y-51479949D01*
X193765000Y-51799490D01*
X193765000Y-64999490D01*
X193828561Y-65319031D01*
X193925567Y-65464210D01*
X194009566Y-65589924D01*
X194010075Y-65590433D01*
X194280967Y-65771438D01*
X194353070Y-65785780D01*
X194353070Y-65999490D01*
X194397348Y-66234807D01*
X194536420Y-66450931D01*
X194748620Y-66595921D01*
X195000510Y-66646930D01*
X195214219Y-66646930D01*
X195228561Y-66719031D01*
X195354581Y-66907633D01*
X195409566Y-66989924D01*
X196705000Y-68285358D01*
X196705000Y-68608520D01*
X196562923Y-68703453D01*
X196463580Y-68549069D01*
X196251380Y-68404079D01*
X195999490Y-68353070D01*
X194000510Y-68353070D01*
X193765193Y-68397348D01*
X193549069Y-68536420D01*
X193404079Y-68748620D01*
X193353070Y-69000510D01*
X193353070Y-70999490D01*
X193397348Y-71234807D01*
X193536420Y-71450931D01*
X193748620Y-71595921D01*
X194000510Y-71646930D01*
X195999490Y-71646930D01*
X196234807Y-71602652D01*
X196450931Y-71463580D01*
X196564390Y-71297527D01*
X196882486Y-71510072D01*
X197507978Y-71634490D01*
X197572022Y-71634490D01*
X197923674Y-71564542D01*
X198649132Y-72290000D01*
X192710000Y-72290000D01*
X192710000Y-50710000D01*
X193000000Y-50710000D01*
X193271705Y-50655954D01*
X193502046Y-50502046D01*
X193655954Y-50271705D01*
X193710000Y-50000000D01*
X193710000Y-31285750D01*
X194365000Y-31285750D01*
X194365000Y-32376310D01*
X194461673Y-32609699D01*
X194640302Y-32788327D01*
X194873691Y-32885000D01*
X196714250Y-32885000D01*
X196873000Y-32726250D01*
X196873000Y-31127000D01*
X197127000Y-31127000D01*
X197127000Y-32726250D01*
X197285750Y-32885000D01*
X199126309Y-32885000D01*
X199359698Y-32788327D01*
X199538327Y-32609699D01*
X199635000Y-32376310D01*
X199635000Y-31285750D01*
X199476250Y-31127000D01*
X197127000Y-31127000D01*
X196873000Y-31127000D01*
X194523750Y-31127000D01*
X194365000Y-31285750D01*
X193710000Y-31285750D01*
X193710000Y-29623690D01*
X194365000Y-29623690D01*
X194365000Y-30714250D01*
X194523750Y-30873000D01*
X196873000Y-30873000D01*
X196873000Y-29273750D01*
X197127000Y-29273750D01*
X197127000Y-30873000D01*
X199476250Y-30873000D01*
X199635000Y-30714250D01*
X199635000Y-29623690D01*
X199538327Y-29390301D01*
X199359698Y-29211673D01*
X199126309Y-29115000D01*
X197285750Y-29115000D01*
X197127000Y-29273750D01*
X196873000Y-29273750D01*
X196714250Y-29115000D01*
X194873691Y-29115000D01*
X194640302Y-29211673D01*
X194461673Y-29390301D01*
X194365000Y-29623690D01*
X193710000Y-29623690D01*
X193710000Y-25710000D01*
X238290000Y-25710000D01*
X238290000Y-30352560D01*
G36*
X227217476Y-49020171D02*
X227480266Y-49283420D01*
X227823794Y-49426066D01*
X228195760Y-49426390D01*
X228517536Y-49293435D01*
X228594198Y-49478972D01*
X228856988Y-49742221D01*
X229200516Y-49884867D01*
X229210359Y-49884876D01*
X229238558Y-49953123D01*
X229501348Y-50216372D01*
X229640000Y-50273946D01*
X229640000Y-51802560D01*
X229325000Y-51802560D01*
X229195411Y-51826944D01*
X229075000Y-51802560D01*
X228525000Y-51802560D01*
X228395411Y-51826944D01*
X228275000Y-51802560D01*
X227725000Y-51802560D01*
X227595411Y-51826944D01*
X227475000Y-51802560D01*
X227197440Y-51802560D01*
X227197440Y-51525000D01*
X227173056Y-51395411D01*
X227197440Y-51275000D01*
X227197440Y-50725000D01*
X227173056Y-50595411D01*
X227197440Y-50475000D01*
X227197440Y-49925000D01*
X227177550Y-49819295D01*
X227185000Y-49801310D01*
X227185000Y-49685750D01*
X227088599Y-49589349D01*
X227014090Y-49473559D01*
X226906603Y-49400116D01*
X227001441Y-49339090D01*
X227090495Y-49208755D01*
X227185000Y-49114250D01*
X227185000Y-48998690D01*
X227176532Y-48978247D01*
X227184301Y-48939882D01*
X227217476Y-49020171D01*
X227217476Y-49020171D01*
G37*
X227217476Y-49020171D02*
X227480266Y-49283420D01*
X227823794Y-49426066D01*
X228195760Y-49426390D01*
X228517536Y-49293435D01*
X228594198Y-49478972D01*
X228856988Y-49742221D01*
X229200516Y-49884867D01*
X229210359Y-49884876D01*
X229238558Y-49953123D01*
X229501348Y-50216372D01*
X229640000Y-50273946D01*
X229640000Y-51802560D01*
X229325000Y-51802560D01*
X229195411Y-51826944D01*
X229075000Y-51802560D01*
X228525000Y-51802560D01*
X228395411Y-51826944D01*
X228275000Y-51802560D01*
X227725000Y-51802560D01*
X227595411Y-51826944D01*
X227475000Y-51802560D01*
X227197440Y-51802560D01*
X227197440Y-51525000D01*
X227173056Y-51395411D01*
X227197440Y-51275000D01*
X227197440Y-50725000D01*
X227173056Y-50595411D01*
X227197440Y-50475000D01*
X227197440Y-49925000D01*
X227177550Y-49819295D01*
X227185000Y-49801310D01*
X227185000Y-49685750D01*
X227088599Y-49589349D01*
X227014090Y-49473559D01*
X226906603Y-49400116D01*
X227001441Y-49339090D01*
X227090495Y-49208755D01*
X227185000Y-49114250D01*
X227185000Y-48998690D01*
X227176532Y-48978247D01*
X227184301Y-48939882D01*
X227217476Y-49020171D01*
G36*
X232076157Y-49590434D02*
X232109566Y-49640434D01*
X232459566Y-49990434D01*
X232730460Y-50171440D01*
X233041463Y-50233302D01*
X232998559Y-50260910D01*
X232909505Y-50391245D01*
X232815000Y-50485750D01*
X232815000Y-50601310D01*
X232823468Y-50621753D01*
X232802560Y-50725000D01*
X232802560Y-51275000D01*
X232826944Y-51404589D01*
X232802560Y-51525000D01*
X232802560Y-51802560D01*
X232525000Y-51802560D01*
X232395411Y-51826944D01*
X232275000Y-51802560D01*
X231725000Y-51802560D01*
X231595411Y-51826944D01*
X231475000Y-51802560D01*
X231160000Y-51802560D01*
X231160000Y-50414802D01*
X232039392Y-49535410D01*
X232076157Y-49590434D01*
X232076157Y-49590434D01*
G37*
X232076157Y-49590434D02*
X232109566Y-49640434D01*
X232459566Y-49990434D01*
X232730460Y-50171440D01*
X233041463Y-50233302D01*
X232998559Y-50260910D01*
X232909505Y-50391245D01*
X232815000Y-50485750D01*
X232815000Y-50601310D01*
X232823468Y-50621753D01*
X232802560Y-50725000D01*
X232802560Y-51275000D01*
X232826944Y-51404589D01*
X232802560Y-51525000D01*
X232802560Y-51802560D01*
X232525000Y-51802560D01*
X232395411Y-51826944D01*
X232275000Y-51802560D01*
X231725000Y-51802560D01*
X231595411Y-51826944D01*
X231475000Y-51802560D01*
X231160000Y-51802560D01*
X231160000Y-50414802D01*
X232039392Y-49535410D01*
X232076157Y-49590434D01*
M02*
