G04 #@! TF.FileFunction,Paste,Top*
%FSLAX46Y46*%
G04 Gerber Fmt 4.6, Leading zero omitted, Abs format (unit mm)*
G04 Created by KiCad (PCBNEW 4.0.2-stable) date 2/24/2017 09:05:39*
%MOMM*%
G01*
G04 APERTURE LIST*
%ADD10C,0.100000*%
%ADD11R,4.000000X2.500000*%
%ADD12R,3.500000X2.000000*%
%ADD13R,7.000000X7.000000*%
%ADD14R,1.600000X2.000000*%
%ADD15R,1.600000X0.550000*%
%ADD16R,0.550000X1.600000*%
%ADD17R,1.700000X2.000000*%
%ADD18R,2.000000X1.700000*%
%ADD19R,0.899160X1.998980*%
%ADD20R,1.000760X1.998980*%
%ADD21R,2.000000X0.600000*%
G04 APERTURE END LIST*
D10*
D11*
X205000000Y-31000000D03*
X197000000Y-31000000D03*
D12*
X214700000Y-63790000D03*
X214700000Y-59210000D03*
D13*
X207300000Y-61490000D03*
D14*
X220000000Y-41500000D03*
X220000000Y-37500000D03*
X220000000Y-57000000D03*
X220000000Y-61000000D03*
X225000000Y-39000000D03*
X225000000Y-35000000D03*
X237000000Y-51000000D03*
X237000000Y-47000000D03*
X231500000Y-67500000D03*
X231500000Y-63500000D03*
X209000000Y-35000000D03*
X209000000Y-31000000D03*
D15*
X234250000Y-51800000D03*
X234250000Y-51000000D03*
X234250000Y-50200000D03*
X234250000Y-49400000D03*
X234250000Y-48600000D03*
X234250000Y-47800000D03*
X234250000Y-47000000D03*
X234250000Y-46200000D03*
D16*
X232800000Y-44750000D03*
X232000000Y-44750000D03*
X231200000Y-44750000D03*
X230400000Y-44750000D03*
X229600000Y-44750000D03*
X228800000Y-44750000D03*
X228000000Y-44750000D03*
X227200000Y-44750000D03*
D15*
X225750000Y-46200000D03*
X225750000Y-47000000D03*
X225750000Y-47800000D03*
X225750000Y-48600000D03*
X225750000Y-49400000D03*
X225750000Y-50200000D03*
X225750000Y-51000000D03*
X225750000Y-51800000D03*
D16*
X227200000Y-53250000D03*
X228000000Y-53250000D03*
X228800000Y-53250000D03*
X229600000Y-53250000D03*
X230400000Y-53250000D03*
X231200000Y-53250000D03*
X232000000Y-53250000D03*
X232800000Y-53250000D03*
D10*
G36*
X235000000Y-36000000D02*
X239000000Y-36000000D01*
X239000000Y-37000000D01*
X235000000Y-37000000D01*
X235000000Y-36000000D01*
X235000000Y-36000000D01*
G37*
G36*
X235000000Y-33500000D02*
X239000000Y-33500000D01*
X239000000Y-34500000D01*
X235000000Y-34500000D01*
X235000000Y-33500000D01*
X235000000Y-33500000D01*
G37*
G36*
X235000000Y-31000000D02*
X239000000Y-31000000D01*
X239000000Y-32000000D01*
X235000000Y-32000000D01*
X235000000Y-31000000D01*
X235000000Y-31000000D01*
G37*
D17*
X230000000Y-39000000D03*
X230000000Y-35000000D03*
D18*
X229500000Y-58500000D03*
X225500000Y-58500000D03*
X214500000Y-70500000D03*
X218500000Y-70500000D03*
D19*
X225151260Y-62200160D03*
D20*
X227800480Y-62200160D03*
X227800480Y-69799840D03*
X225199520Y-69799840D03*
D21*
X213700000Y-54080000D03*
X213700000Y-52810000D03*
X213700000Y-51540000D03*
X213700000Y-50270000D03*
X213700000Y-49000000D03*
X213700000Y-47730000D03*
X213700000Y-46460000D03*
X213700000Y-45190000D03*
X213700000Y-43920000D03*
X204300000Y-43920000D03*
X204300000Y-45190000D03*
X204300000Y-46460000D03*
X204300000Y-47730000D03*
X204300000Y-49000000D03*
X204300000Y-50270000D03*
X204300000Y-51540000D03*
X204300000Y-52810000D03*
X204300000Y-54080000D03*
M02*
