G04 #@! TF.FileFunction,Legend,Top*
%FSLAX46Y46*%
G04 Gerber Fmt 4.6, Leading zero omitted, Abs format (unit mm)*
G04 Created by KiCad (PCBNEW 4.0.2-stable) date 2/24/2017 09:05:39*
%MOMM*%
G01*
G04 APERTURE LIST*
%ADD10C,0.100000*%
%ADD11C,0.120000*%
%ADD12C,0.150000*%
%ADD13C,0.010000*%
G04 APERTURE END LIST*
D10*
D11*
X206210000Y-35450000D02*
X206210000Y-32560000D01*
X206210000Y-26550000D02*
X206210000Y-29440000D01*
X195790000Y-25790000D02*
X195790000Y-29440000D01*
X195790000Y-36210000D02*
X195790000Y-32560000D01*
X195790000Y-25790000D02*
X205450000Y-25790000D01*
X205450000Y-25790000D02*
X206210000Y-26550000D01*
X206210000Y-35450000D02*
X205450000Y-36210000D01*
X205450000Y-36210000D02*
X195790000Y-36210000D01*
D12*
X201639560Y-66901200D02*
X193440440Y-66901200D01*
X201639560Y-67299980D02*
X193440440Y-67299980D01*
X201639560Y-72600960D02*
X193440440Y-72600960D01*
X193440440Y-73098800D02*
X201639560Y-73098800D01*
X198840480Y-72600960D02*
X198840480Y-73098800D01*
X193641100Y-73098800D02*
X193641100Y-72600960D01*
X201441440Y-72600960D02*
X201441440Y-73098800D01*
X196242060Y-73098800D02*
X196242060Y-72600960D01*
X201639560Y-73098800D02*
X201639560Y-66901200D01*
X193442980Y-66901200D02*
X193442980Y-73098800D01*
D11*
X212400000Y-64540000D02*
X212400000Y-64890000D01*
X212400000Y-64890000D02*
X210900000Y-64890000D01*
X212400000Y-59890000D02*
X212400000Y-63090000D01*
X210900000Y-58090000D02*
X212400000Y-58090000D01*
X212400000Y-58090000D02*
X212400000Y-58490000D01*
X218980000Y-38500000D02*
X218980000Y-40500000D01*
X221020000Y-40500000D02*
X221020000Y-38500000D01*
X221020000Y-60000000D02*
X221020000Y-58000000D01*
X218980000Y-58000000D02*
X218980000Y-60000000D01*
X223980000Y-36000000D02*
X223980000Y-38000000D01*
X226020000Y-38000000D02*
X226020000Y-36000000D01*
X235980000Y-48000000D02*
X235980000Y-50000000D01*
X238020000Y-50000000D02*
X238020000Y-48000000D01*
X230480000Y-64500000D02*
X230480000Y-66500000D01*
X232520000Y-66500000D02*
X232520000Y-64500000D01*
X207980000Y-32000000D02*
X207980000Y-34000000D01*
X210020000Y-34000000D02*
X210020000Y-32000000D01*
D12*
X233625000Y-52625000D02*
X233625000Y-52400000D01*
X226375000Y-52625000D02*
X226375000Y-52300000D01*
X226375000Y-45375000D02*
X226375000Y-45700000D01*
X233625000Y-45375000D02*
X233625000Y-45700000D01*
X233625000Y-52625000D02*
X233300000Y-52625000D01*
X233625000Y-45375000D02*
X233300000Y-45375000D01*
X226375000Y-45375000D02*
X226700000Y-45375000D01*
X226375000Y-52625000D02*
X226700000Y-52625000D01*
X233625000Y-52400000D02*
X235050000Y-52400000D01*
X208069080Y-72600960D02*
X202470920Y-72600960D01*
X202669040Y-73098800D02*
X202669040Y-72600960D01*
X207870960Y-72600960D02*
X207870960Y-73098800D01*
X205270000Y-73098800D02*
X205270000Y-72600960D01*
X202470920Y-67299980D02*
X208069080Y-67299980D01*
X202470920Y-73098800D02*
X208069080Y-73098800D01*
X208069080Y-73098800D02*
X208069080Y-66901200D01*
X208069080Y-66901200D02*
X202470920Y-66901200D01*
X202470920Y-66901200D02*
X202470920Y-73098800D01*
X239000000Y-34000000D02*
X239000000Y-27500000D01*
X239000000Y-27500000D02*
X245000000Y-27500000D01*
X239000000Y-34000000D02*
X239000000Y-40500000D01*
X239000000Y-40500000D02*
X245000000Y-40500000D01*
X198600960Y-56120160D02*
X199098800Y-56120160D01*
X199098800Y-53321080D02*
X199098800Y-66518920D01*
X198600960Y-66518920D02*
X198600960Y-53321080D01*
X193299980Y-66518920D02*
X193299980Y-53321080D01*
X192901200Y-53321080D02*
X192901200Y-66518920D01*
X198600960Y-58622060D02*
X199098800Y-58622060D01*
X198600960Y-61220480D02*
X199098800Y-61220480D01*
X199098800Y-66318260D02*
X198600960Y-66318260D01*
X198600960Y-53521740D02*
X199098800Y-53521740D01*
X199098800Y-63717300D02*
X198600960Y-63717300D01*
X199098800Y-53323620D02*
X192901200Y-53323620D01*
X192901200Y-66516380D02*
X199098800Y-66516380D01*
X199600960Y-40120160D02*
X200098800Y-40120160D01*
X200098800Y-37321080D02*
X200098800Y-50518920D01*
X199600960Y-50518920D02*
X199600960Y-37321080D01*
X194299980Y-50518920D02*
X194299980Y-37321080D01*
X193901200Y-37321080D02*
X193901200Y-50518920D01*
X199600960Y-42622060D02*
X200098800Y-42622060D01*
X199600960Y-45220480D02*
X200098800Y-45220480D01*
X200098800Y-50318260D02*
X199600960Y-50318260D01*
X199600960Y-37521740D02*
X200098800Y-37521740D01*
X200098800Y-47717300D02*
X199600960Y-47717300D01*
X200098800Y-37323620D02*
X193901200Y-37323620D01*
X193901200Y-50516380D02*
X200098800Y-50516380D01*
D11*
X231070000Y-36000000D02*
X231070000Y-38000000D01*
X228930000Y-38000000D02*
X228930000Y-36000000D01*
X226500000Y-57430000D02*
X228500000Y-57430000D01*
X228500000Y-59570000D02*
X226500000Y-59570000D01*
X217500000Y-71570000D02*
X215500000Y-71570000D01*
X215500000Y-69430000D02*
X217500000Y-69430000D01*
X217475000Y-46315000D02*
G75*
G02X222525000Y-46315000I2525000J0D01*
G01*
X217475000Y-52565000D02*
G75*
G03X222525000Y-52565000I2525000J0D01*
G01*
X222525000Y-46315000D02*
X222525000Y-52565000D01*
X217475000Y-46315000D02*
X217475000Y-52565000D01*
D12*
X228300860Y-64498860D02*
X227599820Y-64498860D01*
X227599820Y-64498860D02*
X227599820Y-63698760D01*
X228300860Y-68301240D02*
X228300860Y-63698760D01*
X228300860Y-63698760D02*
X224699140Y-63698760D01*
X224699140Y-63698760D02*
X224699140Y-68301240D01*
X224699140Y-68301240D02*
X228300860Y-68301240D01*
X212875000Y-54950000D02*
X212875000Y-54700000D01*
X205125000Y-54950000D02*
X205125000Y-54605000D01*
X205125000Y-43050000D02*
X205125000Y-43395000D01*
X212875000Y-43050000D02*
X212875000Y-43395000D01*
X212875000Y-54950000D02*
X205125000Y-54950000D01*
X212875000Y-43050000D02*
X205125000Y-43050000D01*
X212875000Y-54700000D02*
X214700000Y-54700000D01*
D13*
G36*
X216832108Y-34035894D02*
X216850500Y-34047826D01*
X217196445Y-34246149D01*
X217604041Y-34435795D01*
X218018686Y-34593625D01*
X218376734Y-34694595D01*
X218717010Y-34743594D01*
X219107408Y-34763452D01*
X219499599Y-34754558D01*
X219845255Y-34717304D01*
X220010568Y-34681397D01*
X220112491Y-34667129D01*
X220122648Y-34721325D01*
X220114899Y-34743597D01*
X220036433Y-34832662D01*
X219986956Y-34846500D01*
X219906634Y-34880037D01*
X219933589Y-34979864D01*
X220067503Y-35144800D01*
X220067553Y-35144853D01*
X220169049Y-35238527D01*
X220202926Y-35237500D01*
X220196546Y-35211625D01*
X220192243Y-35130935D01*
X220278168Y-35102130D01*
X220334409Y-35100500D01*
X220478206Y-35113488D01*
X220552432Y-35140599D01*
X220565240Y-35226467D01*
X220501902Y-35329298D01*
X220397376Y-35404530D01*
X220334820Y-35418000D01*
X220209893Y-35473023D01*
X220170899Y-35545000D01*
X220127277Y-35624634D01*
X220028005Y-35661015D01*
X219843468Y-35667536D01*
X219635619Y-35653190D01*
X219464099Y-35622485D01*
X219422250Y-35608500D01*
X219347715Y-35564537D01*
X219358750Y-35548068D01*
X219345073Y-35522030D01*
X219240295Y-35461937D01*
X219145945Y-35416831D01*
X218970104Y-35350915D01*
X218838006Y-35326177D01*
X218802759Y-35332787D01*
X218765934Y-35333302D01*
X218778474Y-35305199D01*
X218777350Y-35216559D01*
X218755500Y-35195750D01*
X218721265Y-35115813D01*
X218732587Y-35086200D01*
X218719512Y-35044410D01*
X218594143Y-35053496D01*
X218577904Y-35056644D01*
X218405556Y-35064228D01*
X218249794Y-35028842D01*
X218142687Y-34965251D01*
X218116303Y-34888218D01*
X218138198Y-34854201D01*
X218178071Y-34775839D01*
X218119969Y-34717828D01*
X217983870Y-34666764D01*
X217930000Y-34661985D01*
X217877521Y-34676386D01*
X217914125Y-34698054D01*
X217983187Y-34781157D01*
X217992527Y-34835916D01*
X217971857Y-34896735D01*
X217944902Y-34877911D01*
X217858824Y-34817416D01*
X217703268Y-34746809D01*
X217657049Y-34729813D01*
X217485975Y-34681108D01*
X217378879Y-34688533D01*
X217311484Y-34730152D01*
X217239495Y-34781911D01*
X217247401Y-34748260D01*
X217257705Y-34730687D01*
X217277321Y-34679216D01*
X217216147Y-34704631D01*
X217183056Y-34724833D01*
X217020237Y-34785985D01*
X216913422Y-34734985D01*
X216866255Y-34575385D01*
X216868986Y-34418644D01*
X216872763Y-34201921D01*
X216831090Y-34071597D01*
X216793853Y-34030326D01*
X216766389Y-33999201D01*
X216832108Y-34035894D01*
X216832108Y-34035894D01*
G37*
X216832108Y-34035894D02*
X216850500Y-34047826D01*
X217196445Y-34246149D01*
X217604041Y-34435795D01*
X218018686Y-34593625D01*
X218376734Y-34694595D01*
X218717010Y-34743594D01*
X219107408Y-34763452D01*
X219499599Y-34754558D01*
X219845255Y-34717304D01*
X220010568Y-34681397D01*
X220112491Y-34667129D01*
X220122648Y-34721325D01*
X220114899Y-34743597D01*
X220036433Y-34832662D01*
X219986956Y-34846500D01*
X219906634Y-34880037D01*
X219933589Y-34979864D01*
X220067503Y-35144800D01*
X220067553Y-35144853D01*
X220169049Y-35238527D01*
X220202926Y-35237500D01*
X220196546Y-35211625D01*
X220192243Y-35130935D01*
X220278168Y-35102130D01*
X220334409Y-35100500D01*
X220478206Y-35113488D01*
X220552432Y-35140599D01*
X220565240Y-35226467D01*
X220501902Y-35329298D01*
X220397376Y-35404530D01*
X220334820Y-35418000D01*
X220209893Y-35473023D01*
X220170899Y-35545000D01*
X220127277Y-35624634D01*
X220028005Y-35661015D01*
X219843468Y-35667536D01*
X219635619Y-35653190D01*
X219464099Y-35622485D01*
X219422250Y-35608500D01*
X219347715Y-35564537D01*
X219358750Y-35548068D01*
X219345073Y-35522030D01*
X219240295Y-35461937D01*
X219145945Y-35416831D01*
X218970104Y-35350915D01*
X218838006Y-35326177D01*
X218802759Y-35332787D01*
X218765934Y-35333302D01*
X218778474Y-35305199D01*
X218777350Y-35216559D01*
X218755500Y-35195750D01*
X218721265Y-35115813D01*
X218732587Y-35086200D01*
X218719512Y-35044410D01*
X218594143Y-35053496D01*
X218577904Y-35056644D01*
X218405556Y-35064228D01*
X218249794Y-35028842D01*
X218142687Y-34965251D01*
X218116303Y-34888218D01*
X218138198Y-34854201D01*
X218178071Y-34775839D01*
X218119969Y-34717828D01*
X217983870Y-34666764D01*
X217930000Y-34661985D01*
X217877521Y-34676386D01*
X217914125Y-34698054D01*
X217983187Y-34781157D01*
X217992527Y-34835916D01*
X217971857Y-34896735D01*
X217944902Y-34877911D01*
X217858824Y-34817416D01*
X217703268Y-34746809D01*
X217657049Y-34729813D01*
X217485975Y-34681108D01*
X217378879Y-34688533D01*
X217311484Y-34730152D01*
X217239495Y-34781911D01*
X217247401Y-34748260D01*
X217257705Y-34730687D01*
X217277321Y-34679216D01*
X217216147Y-34704631D01*
X217183056Y-34724833D01*
X217020237Y-34785985D01*
X216913422Y-34734985D01*
X216866255Y-34575385D01*
X216868986Y-34418644D01*
X216872763Y-34201921D01*
X216831090Y-34071597D01*
X216793853Y-34030326D01*
X216766389Y-33999201D01*
X216832108Y-34035894D01*
G36*
X218946000Y-35449750D02*
X218914250Y-35481500D01*
X218882500Y-35449750D01*
X218914250Y-35418000D01*
X218946000Y-35449750D01*
X218946000Y-35449750D01*
G37*
X218946000Y-35449750D02*
X218914250Y-35481500D01*
X218882500Y-35449750D01*
X218914250Y-35418000D01*
X218946000Y-35449750D01*
G36*
X218690154Y-35212321D02*
X218692000Y-35227500D01*
X218643678Y-35289154D01*
X218628500Y-35291000D01*
X218566845Y-35242678D01*
X218565000Y-35227500D01*
X218613321Y-35165845D01*
X218628500Y-35164000D01*
X218690154Y-35212321D01*
X218690154Y-35212321D01*
G37*
X218690154Y-35212321D02*
X218692000Y-35227500D01*
X218643678Y-35289154D01*
X218628500Y-35291000D01*
X218566845Y-35242678D01*
X218565000Y-35227500D01*
X218613321Y-35165845D01*
X218628500Y-35164000D01*
X218690154Y-35212321D01*
G36*
X222680351Y-32711819D02*
X222682701Y-32720287D01*
X222652746Y-32830371D01*
X222549760Y-32968353D01*
X222513031Y-33004270D01*
X222388552Y-33137419D01*
X222344916Y-33264675D01*
X222355406Y-33432749D01*
X222365745Y-33610311D01*
X222324169Y-33718085D01*
X222243528Y-33788385D01*
X222077867Y-33855477D01*
X221956490Y-33855130D01*
X221821621Y-33852465D01*
X221685175Y-33891935D01*
X221590832Y-33954743D01*
X221579106Y-34017532D01*
X221560415Y-34082106D01*
X221517385Y-34107603D01*
X221431894Y-34169630D01*
X221459206Y-34251217D01*
X221603038Y-34357541D01*
X221755875Y-34439919D01*
X222037511Y-34593592D01*
X222213080Y-34722789D01*
X222297847Y-34840551D01*
X222311500Y-34914550D01*
X222350763Y-35026822D01*
X222390875Y-35058445D01*
X222427248Y-35088250D01*
X222406750Y-35093467D01*
X222311269Y-35060758D01*
X222217485Y-35001400D01*
X222039143Y-34936184D01*
X221926892Y-34942542D01*
X221775790Y-34949469D01*
X221618454Y-34919996D01*
X221495203Y-34867392D01*
X221446357Y-34804929D01*
X221452207Y-34786304D01*
X221433407Y-34715833D01*
X221331969Y-34639777D01*
X221200250Y-34591154D01*
X221095600Y-34559307D01*
X220985487Y-34519775D01*
X220813306Y-34488853D01*
X220699737Y-34499627D01*
X220686072Y-34489612D01*
X220767164Y-34430310D01*
X220926333Y-34333350D01*
X220993506Y-34294869D01*
X221594875Y-33889766D01*
X222092473Y-33413591D01*
X222379557Y-33036523D01*
X222533925Y-32817262D01*
X222633555Y-32709689D01*
X222680351Y-32711819D01*
X222680351Y-32711819D01*
G37*
X222680351Y-32711819D02*
X222682701Y-32720287D01*
X222652746Y-32830371D01*
X222549760Y-32968353D01*
X222513031Y-33004270D01*
X222388552Y-33137419D01*
X222344916Y-33264675D01*
X222355406Y-33432749D01*
X222365745Y-33610311D01*
X222324169Y-33718085D01*
X222243528Y-33788385D01*
X222077867Y-33855477D01*
X221956490Y-33855130D01*
X221821621Y-33852465D01*
X221685175Y-33891935D01*
X221590832Y-33954743D01*
X221579106Y-34017532D01*
X221560415Y-34082106D01*
X221517385Y-34107603D01*
X221431894Y-34169630D01*
X221459206Y-34251217D01*
X221603038Y-34357541D01*
X221755875Y-34439919D01*
X222037511Y-34593592D01*
X222213080Y-34722789D01*
X222297847Y-34840551D01*
X222311500Y-34914550D01*
X222350763Y-35026822D01*
X222390875Y-35058445D01*
X222427248Y-35088250D01*
X222406750Y-35093467D01*
X222311269Y-35060758D01*
X222217485Y-35001400D01*
X222039143Y-34936184D01*
X221926892Y-34942542D01*
X221775790Y-34949469D01*
X221618454Y-34919996D01*
X221495203Y-34867392D01*
X221446357Y-34804929D01*
X221452207Y-34786304D01*
X221433407Y-34715833D01*
X221331969Y-34639777D01*
X221200250Y-34591154D01*
X221095600Y-34559307D01*
X220985487Y-34519775D01*
X220813306Y-34488853D01*
X220699737Y-34499627D01*
X220686072Y-34489612D01*
X220767164Y-34430310D01*
X220926333Y-34333350D01*
X220993506Y-34294869D01*
X221594875Y-33889766D01*
X222092473Y-33413591D01*
X222379557Y-33036523D01*
X222533925Y-32817262D01*
X222633555Y-32709689D01*
X222680351Y-32711819D01*
G36*
X220290143Y-34890277D02*
X220343000Y-34941750D01*
X220381108Y-35018383D01*
X220358550Y-35037000D01*
X220268856Y-34993222D01*
X220216000Y-34941750D01*
X220177891Y-34865116D01*
X220200449Y-34846500D01*
X220290143Y-34890277D01*
X220290143Y-34890277D01*
G37*
X220290143Y-34890277D02*
X220343000Y-34941750D01*
X220381108Y-35018383D01*
X220358550Y-35037000D01*
X220268856Y-34993222D01*
X220216000Y-34941750D01*
X220177891Y-34865116D01*
X220200449Y-34846500D01*
X220290143Y-34890277D01*
G36*
X221359000Y-34751250D02*
X221327250Y-34783000D01*
X221295500Y-34751250D01*
X221327250Y-34719500D01*
X221359000Y-34751250D01*
X221359000Y-34751250D01*
G37*
X221359000Y-34751250D02*
X221327250Y-34783000D01*
X221295500Y-34751250D01*
X221327250Y-34719500D01*
X221359000Y-34751250D01*
G36*
X220321833Y-34613666D02*
X220313116Y-34651417D01*
X220279500Y-34656000D01*
X220227232Y-34632766D01*
X220237166Y-34613666D01*
X220312526Y-34606066D01*
X220321833Y-34613666D01*
X220321833Y-34613666D01*
G37*
X220321833Y-34613666D02*
X220313116Y-34651417D01*
X220279500Y-34656000D01*
X220227232Y-34632766D01*
X220237166Y-34613666D01*
X220312526Y-34606066D01*
X220321833Y-34613666D01*
G36*
X215834500Y-34560750D02*
X215802750Y-34592500D01*
X215771000Y-34560750D01*
X215802750Y-34529000D01*
X215834500Y-34560750D01*
X215834500Y-34560750D01*
G37*
X215834500Y-34560750D02*
X215802750Y-34592500D01*
X215771000Y-34560750D01*
X215802750Y-34529000D01*
X215834500Y-34560750D01*
G36*
X218793170Y-34447938D02*
X218763599Y-34485360D01*
X218647163Y-34583492D01*
X218555436Y-34558588D01*
X218533250Y-34529000D01*
X218535323Y-34470356D01*
X218556058Y-34465500D01*
X218663888Y-34444820D01*
X218734431Y-34421860D01*
X218812715Y-34400900D01*
X218793170Y-34447938D01*
X218793170Y-34447938D01*
G37*
X218793170Y-34447938D02*
X218763599Y-34485360D01*
X218647163Y-34583492D01*
X218555436Y-34558588D01*
X218533250Y-34529000D01*
X218535323Y-34470356D01*
X218556058Y-34465500D01*
X218663888Y-34444820D01*
X218734431Y-34421860D01*
X218812715Y-34400900D01*
X218793170Y-34447938D01*
G36*
X220512333Y-34550166D02*
X220503616Y-34587917D01*
X220470000Y-34592500D01*
X220417732Y-34569266D01*
X220427666Y-34550166D01*
X220503026Y-34542566D01*
X220512333Y-34550166D01*
X220512333Y-34550166D01*
G37*
X220512333Y-34550166D02*
X220503616Y-34587917D01*
X220470000Y-34592500D01*
X220417732Y-34569266D01*
X220427666Y-34550166D01*
X220503026Y-34542566D01*
X220512333Y-34550166D01*
G36*
X219651466Y-34439258D02*
X219676250Y-34465500D01*
X219662566Y-34520440D01*
X219620245Y-34529000D01*
X219510533Y-34491741D01*
X219485750Y-34465500D01*
X219499433Y-34410559D01*
X219541754Y-34402000D01*
X219651466Y-34439258D01*
X219651466Y-34439258D01*
G37*
X219651466Y-34439258D02*
X219676250Y-34465500D01*
X219662566Y-34520440D01*
X219620245Y-34529000D01*
X219510533Y-34491741D01*
X219485750Y-34465500D01*
X219499433Y-34410559D01*
X219541754Y-34402000D01*
X219651466Y-34439258D01*
G36*
X219051172Y-34377402D02*
X219041250Y-34402000D01*
X218984188Y-34462577D01*
X218974002Y-34465500D01*
X218946728Y-34416370D01*
X218946000Y-34402000D01*
X218994815Y-34340940D01*
X219013247Y-34338500D01*
X219051172Y-34377402D01*
X219051172Y-34377402D01*
G37*
X219051172Y-34377402D02*
X219041250Y-34402000D01*
X218984188Y-34462577D01*
X218974002Y-34465500D01*
X218946728Y-34416370D01*
X218946000Y-34402000D01*
X218994815Y-34340940D01*
X219013247Y-34338500D01*
X219051172Y-34377402D01*
G36*
X219263500Y-34370250D02*
X219231750Y-34402000D01*
X219200000Y-34370250D01*
X219231750Y-34338500D01*
X219263500Y-34370250D01*
X219263500Y-34370250D01*
G37*
X219263500Y-34370250D02*
X219231750Y-34402000D01*
X219200000Y-34370250D01*
X219231750Y-34338500D01*
X219263500Y-34370250D01*
G36*
X216447271Y-34187764D02*
X216373780Y-34257222D01*
X216274144Y-34294668D01*
X216183111Y-34312703D01*
X216190239Y-34277190D01*
X216249891Y-34208581D01*
X216350879Y-34129686D01*
X216415522Y-34122135D01*
X216447271Y-34187764D01*
X216447271Y-34187764D01*
G37*
X216447271Y-34187764D02*
X216373780Y-34257222D01*
X216274144Y-34294668D01*
X216183111Y-34312703D01*
X216190239Y-34277190D01*
X216249891Y-34208581D01*
X216350879Y-34129686D01*
X216415522Y-34122135D01*
X216447271Y-34187764D01*
G36*
X218659140Y-34128789D02*
X218651463Y-34179750D01*
X218565274Y-34258398D01*
X218486930Y-34275000D01*
X218399896Y-34260199D01*
X218423917Y-34197229D01*
X218438000Y-34179750D01*
X218545053Y-34099110D01*
X218602532Y-34084500D01*
X218659140Y-34128789D01*
X218659140Y-34128789D01*
G37*
X218659140Y-34128789D02*
X218651463Y-34179750D01*
X218565274Y-34258398D01*
X218486930Y-34275000D01*
X218399896Y-34260199D01*
X218423917Y-34197229D01*
X218438000Y-34179750D01*
X218545053Y-34099110D01*
X218602532Y-34084500D01*
X218659140Y-34128789D01*
G36*
X219715548Y-34129626D02*
X219771500Y-34179750D01*
X219816727Y-34255131D01*
X219762047Y-34274951D01*
X219755300Y-34275000D01*
X219636951Y-34229873D01*
X219581000Y-34179750D01*
X219535772Y-34104368D01*
X219590452Y-34084548D01*
X219597199Y-34084500D01*
X219715548Y-34129626D01*
X219715548Y-34129626D01*
G37*
X219715548Y-34129626D02*
X219771500Y-34179750D01*
X219816727Y-34255131D01*
X219762047Y-34274951D01*
X219755300Y-34275000D01*
X219636951Y-34229873D01*
X219581000Y-34179750D01*
X219535772Y-34104368D01*
X219590452Y-34084548D01*
X219597199Y-34084500D01*
X219715548Y-34129626D01*
G36*
X218263618Y-33906940D02*
X218132885Y-34012177D01*
X218130228Y-34014072D01*
X217897032Y-34114712D01*
X217619273Y-34142796D01*
X217359981Y-34093239D01*
X217326750Y-34078877D01*
X217281113Y-34045624D01*
X217345065Y-34037444D01*
X217492671Y-34049182D01*
X217782055Y-34042983D01*
X218028089Y-33956052D01*
X218205441Y-33875594D01*
X218285877Y-33860318D01*
X218263618Y-33906940D01*
X218263618Y-33906940D01*
G37*
X218263618Y-33906940D02*
X218132885Y-34012177D01*
X218130228Y-34014072D01*
X217897032Y-34114712D01*
X217619273Y-34142796D01*
X217359981Y-34093239D01*
X217326750Y-34078877D01*
X217281113Y-34045624D01*
X217345065Y-34037444D01*
X217492671Y-34049182D01*
X217782055Y-34042983D01*
X218028089Y-33956052D01*
X218205441Y-33875594D01*
X218285877Y-33860318D01*
X218263618Y-33906940D01*
G36*
X220212846Y-33924119D02*
X220387980Y-33982353D01*
X220620003Y-34020271D01*
X220736721Y-34027329D01*
X220917533Y-34034543D01*
X220982220Y-34049379D01*
X220941590Y-34075314D01*
X220914500Y-34084500D01*
X220613787Y-34137451D01*
X220348694Y-34082336D01*
X220231875Y-34021695D01*
X220083979Y-33921249D01*
X220030938Y-33864583D01*
X220074908Y-33862754D01*
X220212846Y-33924119D01*
X220212846Y-33924119D01*
G37*
X220212846Y-33924119D02*
X220387980Y-33982353D01*
X220620003Y-34020271D01*
X220736721Y-34027329D01*
X220917533Y-34034543D01*
X220982220Y-34049379D01*
X220941590Y-34075314D01*
X220914500Y-34084500D01*
X220613787Y-34137451D01*
X220348694Y-34082336D01*
X220231875Y-34021695D01*
X220083979Y-33921249D01*
X220030938Y-33864583D01*
X220074908Y-33862754D01*
X220212846Y-33924119D01*
G36*
X215960362Y-33176431D02*
X216072054Y-33293287D01*
X216218635Y-33457914D01*
X216228422Y-33469231D01*
X216519567Y-33806463D01*
X216283836Y-33820372D01*
X216069254Y-33799042D01*
X215934081Y-33708286D01*
X215858945Y-33589435D01*
X215866867Y-33453442D01*
X215885593Y-33394293D01*
X215920714Y-33252569D01*
X215914934Y-33170187D01*
X215913981Y-33169148D01*
X215902835Y-33132445D01*
X215907055Y-33132000D01*
X215960362Y-33176431D01*
X215960362Y-33176431D01*
G37*
X215960362Y-33176431D02*
X216072054Y-33293287D01*
X216218635Y-33457914D01*
X216228422Y-33469231D01*
X216519567Y-33806463D01*
X216283836Y-33820372D01*
X216069254Y-33799042D01*
X215934081Y-33708286D01*
X215858945Y-33589435D01*
X215866867Y-33453442D01*
X215885593Y-33394293D01*
X215920714Y-33252569D01*
X215914934Y-33170187D01*
X215913981Y-33169148D01*
X215902835Y-33132445D01*
X215907055Y-33132000D01*
X215960362Y-33176431D01*
G36*
X216403386Y-29834171D02*
X216435692Y-29930529D01*
X216478982Y-30129851D01*
X216537111Y-30427532D01*
X216661785Y-30902883D01*
X216835851Y-31273118D01*
X217068784Y-31553686D01*
X217346988Y-31747921D01*
X217480685Y-31837833D01*
X217547318Y-31918546D01*
X217549000Y-31928818D01*
X217501874Y-31948037D01*
X217376031Y-31897860D01*
X217323120Y-31868272D01*
X217176065Y-31785153D01*
X217081711Y-31738601D01*
X217069120Y-31735000D01*
X217051961Y-31790528D01*
X217047889Y-31925776D01*
X217048366Y-31941375D01*
X217060210Y-32048806D01*
X217080093Y-32051585D01*
X217084772Y-32036625D01*
X217114749Y-31952562D01*
X217167518Y-31934696D01*
X217279830Y-31980550D01*
X217354113Y-32018481D01*
X217512457Y-32159404D01*
X217562333Y-32305058D01*
X217571997Y-32436237D01*
X217532416Y-32473216D01*
X217458748Y-32456940D01*
X217299063Y-32379612D01*
X217121040Y-32256420D01*
X216968954Y-32121847D01*
X216887766Y-32012227D01*
X216859939Y-31877880D01*
X216850500Y-31731437D01*
X216817880Y-31579441D01*
X216698679Y-31470760D01*
X216654098Y-31446198D01*
X216516916Y-31385050D01*
X216436786Y-31367635D01*
X216432418Y-31369914D01*
X216433524Y-31439738D01*
X216461800Y-31595948D01*
X216502918Y-31771471D01*
X216622517Y-32096578D01*
X216795403Y-32315312D01*
X217035219Y-32441953D01*
X217173584Y-32473508D01*
X217370237Y-32533372D01*
X217487018Y-32627161D01*
X217490040Y-32632484D01*
X217580989Y-32701774D01*
X217739375Y-32745043D01*
X217924985Y-32761055D01*
X218097606Y-32748576D01*
X218217025Y-32706371D01*
X218247500Y-32655750D01*
X218264078Y-32620092D01*
X218325060Y-32594379D01*
X218447312Y-32577089D01*
X218647701Y-32566696D01*
X218943094Y-32561679D01*
X219302043Y-32560500D01*
X219693644Y-32561818D01*
X219974657Y-32566796D01*
X220161474Y-32576968D01*
X220270490Y-32593866D01*
X220318098Y-32619026D01*
X220320692Y-32653982D01*
X220320036Y-32655750D01*
X220341805Y-32723056D01*
X220446290Y-32756045D01*
X220594397Y-32756339D01*
X220747033Y-32725561D01*
X220865106Y-32665334D01*
X220894835Y-32631890D01*
X221005212Y-32539878D01*
X221175075Y-32474524D01*
X221193991Y-32470613D01*
X221392809Y-32400463D01*
X221594307Y-32281695D01*
X221626771Y-32256348D01*
X221834782Y-32084250D01*
X221723891Y-32258875D01*
X221609939Y-32437498D01*
X221515471Y-32584581D01*
X221454322Y-32697134D01*
X221470763Y-32751633D01*
X221510154Y-32771048D01*
X221557047Y-32807014D01*
X221565300Y-32884345D01*
X221533640Y-33032931D01*
X221492919Y-33175591D01*
X221383472Y-33544750D01*
X220765097Y-33562959D01*
X220459595Y-33576769D01*
X220261423Y-33598879D01*
X220151006Y-33632615D01*
X220111067Y-33674084D01*
X220037233Y-33712307D01*
X219865294Y-33741800D01*
X219620551Y-33762591D01*
X219328309Y-33774706D01*
X219013871Y-33778176D01*
X218702539Y-33773026D01*
X218419617Y-33759286D01*
X218190408Y-33736983D01*
X218040215Y-33706144D01*
X217993500Y-33671750D01*
X217972592Y-33627460D01*
X217895980Y-33598973D01*
X217742828Y-33583184D01*
X217492299Y-33576988D01*
X217354220Y-33576500D01*
X217064321Y-33574568D01*
X216880065Y-33566171D01*
X216780122Y-33547404D01*
X216743160Y-33514360D01*
X216747191Y-33465375D01*
X216827417Y-33182774D01*
X216870818Y-32987633D01*
X216875628Y-32845345D01*
X216840085Y-32721305D01*
X216762424Y-32580907D01*
X216696835Y-32477482D01*
X216429379Y-31949809D01*
X216265349Y-31378351D01*
X216209202Y-30790604D01*
X216265399Y-30214062D01*
X216303518Y-30052250D01*
X216344185Y-29906093D01*
X216375179Y-29829713D01*
X216403386Y-29834171D01*
X216403386Y-29834171D01*
G37*
X216403386Y-29834171D02*
X216435692Y-29930529D01*
X216478982Y-30129851D01*
X216537111Y-30427532D01*
X216661785Y-30902883D01*
X216835851Y-31273118D01*
X217068784Y-31553686D01*
X217346988Y-31747921D01*
X217480685Y-31837833D01*
X217547318Y-31918546D01*
X217549000Y-31928818D01*
X217501874Y-31948037D01*
X217376031Y-31897860D01*
X217323120Y-31868272D01*
X217176065Y-31785153D01*
X217081711Y-31738601D01*
X217069120Y-31735000D01*
X217051961Y-31790528D01*
X217047889Y-31925776D01*
X217048366Y-31941375D01*
X217060210Y-32048806D01*
X217080093Y-32051585D01*
X217084772Y-32036625D01*
X217114749Y-31952562D01*
X217167518Y-31934696D01*
X217279830Y-31980550D01*
X217354113Y-32018481D01*
X217512457Y-32159404D01*
X217562333Y-32305058D01*
X217571997Y-32436237D01*
X217532416Y-32473216D01*
X217458748Y-32456940D01*
X217299063Y-32379612D01*
X217121040Y-32256420D01*
X216968954Y-32121847D01*
X216887766Y-32012227D01*
X216859939Y-31877880D01*
X216850500Y-31731437D01*
X216817880Y-31579441D01*
X216698679Y-31470760D01*
X216654098Y-31446198D01*
X216516916Y-31385050D01*
X216436786Y-31367635D01*
X216432418Y-31369914D01*
X216433524Y-31439738D01*
X216461800Y-31595948D01*
X216502918Y-31771471D01*
X216622517Y-32096578D01*
X216795403Y-32315312D01*
X217035219Y-32441953D01*
X217173584Y-32473508D01*
X217370237Y-32533372D01*
X217487018Y-32627161D01*
X217490040Y-32632484D01*
X217580989Y-32701774D01*
X217739375Y-32745043D01*
X217924985Y-32761055D01*
X218097606Y-32748576D01*
X218217025Y-32706371D01*
X218247500Y-32655750D01*
X218264078Y-32620092D01*
X218325060Y-32594379D01*
X218447312Y-32577089D01*
X218647701Y-32566696D01*
X218943094Y-32561679D01*
X219302043Y-32560500D01*
X219693644Y-32561818D01*
X219974657Y-32566796D01*
X220161474Y-32576968D01*
X220270490Y-32593866D01*
X220318098Y-32619026D01*
X220320692Y-32653982D01*
X220320036Y-32655750D01*
X220341805Y-32723056D01*
X220446290Y-32756045D01*
X220594397Y-32756339D01*
X220747033Y-32725561D01*
X220865106Y-32665334D01*
X220894835Y-32631890D01*
X221005212Y-32539878D01*
X221175075Y-32474524D01*
X221193991Y-32470613D01*
X221392809Y-32400463D01*
X221594307Y-32281695D01*
X221626771Y-32256348D01*
X221834782Y-32084250D01*
X221723891Y-32258875D01*
X221609939Y-32437498D01*
X221515471Y-32584581D01*
X221454322Y-32697134D01*
X221470763Y-32751633D01*
X221510154Y-32771048D01*
X221557047Y-32807014D01*
X221565300Y-32884345D01*
X221533640Y-33032931D01*
X221492919Y-33175591D01*
X221383472Y-33544750D01*
X220765097Y-33562959D01*
X220459595Y-33576769D01*
X220261423Y-33598879D01*
X220151006Y-33632615D01*
X220111067Y-33674084D01*
X220037233Y-33712307D01*
X219865294Y-33741800D01*
X219620551Y-33762591D01*
X219328309Y-33774706D01*
X219013871Y-33778176D01*
X218702539Y-33773026D01*
X218419617Y-33759286D01*
X218190408Y-33736983D01*
X218040215Y-33706144D01*
X217993500Y-33671750D01*
X217972592Y-33627460D01*
X217895980Y-33598973D01*
X217742828Y-33583184D01*
X217492299Y-33576988D01*
X217354220Y-33576500D01*
X217064321Y-33574568D01*
X216880065Y-33566171D01*
X216780122Y-33547404D01*
X216743160Y-33514360D01*
X216747191Y-33465375D01*
X216827417Y-33182774D01*
X216870818Y-32987633D01*
X216875628Y-32845345D01*
X216840085Y-32721305D01*
X216762424Y-32580907D01*
X216696835Y-32477482D01*
X216429379Y-31949809D01*
X216265349Y-31378351D01*
X216209202Y-30790604D01*
X216265399Y-30214062D01*
X216303518Y-30052250D01*
X216344185Y-29906093D01*
X216375179Y-29829713D01*
X216403386Y-29834171D01*
G36*
X215653123Y-32675350D02*
X215731260Y-32793791D01*
X215748445Y-32822683D01*
X215830100Y-32966104D01*
X215847427Y-33026818D01*
X215801913Y-33030733D01*
X215759788Y-33020467D01*
X215619879Y-33035362D01*
X215453436Y-33122036D01*
X215448968Y-33125309D01*
X215329433Y-33200893D01*
X215266062Y-33216022D01*
X215263000Y-33208469D01*
X215305130Y-33131784D01*
X215407634Y-33018390D01*
X215418367Y-33008177D01*
X215533173Y-32866372D01*
X215592791Y-32728595D01*
X215592992Y-32727233D01*
X215612984Y-32656818D01*
X215653123Y-32675350D01*
X215653123Y-32675350D01*
G37*
X215653123Y-32675350D02*
X215731260Y-32793791D01*
X215748445Y-32822683D01*
X215830100Y-32966104D01*
X215847427Y-33026818D01*
X215801913Y-33030733D01*
X215759788Y-33020467D01*
X215619879Y-33035362D01*
X215453436Y-33122036D01*
X215448968Y-33125309D01*
X215329433Y-33200893D01*
X215266062Y-33216022D01*
X215263000Y-33208469D01*
X215305130Y-33131784D01*
X215407634Y-33018390D01*
X215418367Y-33008177D01*
X215533173Y-32866372D01*
X215592791Y-32728595D01*
X215592992Y-32727233D01*
X215612984Y-32656818D01*
X215653123Y-32675350D01*
G36*
X222734833Y-32454666D02*
X222742433Y-32530026D01*
X222734833Y-32539333D01*
X222697082Y-32530616D01*
X222692500Y-32497000D01*
X222715733Y-32444732D01*
X222734833Y-32454666D01*
X222734833Y-32454666D01*
G37*
X222734833Y-32454666D02*
X222742433Y-32530026D01*
X222734833Y-32539333D01*
X222697082Y-32530616D01*
X222692500Y-32497000D01*
X222715733Y-32444732D01*
X222734833Y-32454666D01*
G36*
X222001906Y-30117798D02*
X222017663Y-30164089D01*
X222043702Y-30346565D01*
X222053828Y-30609536D01*
X222049573Y-30912537D01*
X222032468Y-31215104D01*
X222004046Y-31476773D01*
X221965839Y-31657081D01*
X221960602Y-31671500D01*
X221873366Y-31893750D01*
X221911064Y-31617522D01*
X221948763Y-31341294D01*
X221749131Y-31444527D01*
X221594871Y-31561976D01*
X221549500Y-31701892D01*
X221491015Y-31985446D01*
X221316859Y-32218735D01*
X221028982Y-32399396D01*
X220945857Y-32433649D01*
X220830984Y-32463881D01*
X220791188Y-32414180D01*
X220787500Y-32341002D01*
X220846965Y-32178041D01*
X220971927Y-32056823D01*
X221141606Y-31955613D01*
X221250226Y-31930804D01*
X221282097Y-31984113D01*
X221271271Y-32024048D01*
X221266833Y-32089597D01*
X221296227Y-32083800D01*
X221340371Y-32006540D01*
X221357988Y-31883784D01*
X221346529Y-31774203D01*
X221311375Y-31735237D01*
X221230783Y-31765730D01*
X221091532Y-31840887D01*
X221055840Y-31862237D01*
X220895118Y-31955695D01*
X220820126Y-31981878D01*
X220810962Y-31944016D01*
X220825805Y-31899563D01*
X220904937Y-31813597D01*
X221046355Y-31732988D01*
X221207989Y-31634792D01*
X221379239Y-31486158D01*
X221419908Y-31442499D01*
X221541053Y-31257468D01*
X221663987Y-30994611D01*
X221770990Y-30701597D01*
X221844342Y-30426094D01*
X221867000Y-30239808D01*
X221890586Y-30101722D01*
X221944153Y-30056731D01*
X222001906Y-30117798D01*
X222001906Y-30117798D01*
G37*
X222001906Y-30117798D02*
X222017663Y-30164089D01*
X222043702Y-30346565D01*
X222053828Y-30609536D01*
X222049573Y-30912537D01*
X222032468Y-31215104D01*
X222004046Y-31476773D01*
X221965839Y-31657081D01*
X221960602Y-31671500D01*
X221873366Y-31893750D01*
X221911064Y-31617522D01*
X221948763Y-31341294D01*
X221749131Y-31444527D01*
X221594871Y-31561976D01*
X221549500Y-31701892D01*
X221491015Y-31985446D01*
X221316859Y-32218735D01*
X221028982Y-32399396D01*
X220945857Y-32433649D01*
X220830984Y-32463881D01*
X220791188Y-32414180D01*
X220787500Y-32341002D01*
X220846965Y-32178041D01*
X220971927Y-32056823D01*
X221141606Y-31955613D01*
X221250226Y-31930804D01*
X221282097Y-31984113D01*
X221271271Y-32024048D01*
X221266833Y-32089597D01*
X221296227Y-32083800D01*
X221340371Y-32006540D01*
X221357988Y-31883784D01*
X221346529Y-31774203D01*
X221311375Y-31735237D01*
X221230783Y-31765730D01*
X221091532Y-31840887D01*
X221055840Y-31862237D01*
X220895118Y-31955695D01*
X220820126Y-31981878D01*
X220810962Y-31944016D01*
X220825805Y-31899563D01*
X220904937Y-31813597D01*
X221046355Y-31732988D01*
X221207989Y-31634792D01*
X221379239Y-31486158D01*
X221419908Y-31442499D01*
X221541053Y-31257468D01*
X221663987Y-30994611D01*
X221770990Y-30701597D01*
X221844342Y-30426094D01*
X221867000Y-30239808D01*
X221890586Y-30101722D01*
X221944153Y-30056731D01*
X222001906Y-30117798D01*
G36*
X217782962Y-29666330D02*
X217946715Y-29741294D01*
X218154075Y-29854925D01*
X218291773Y-29973674D01*
X218402860Y-30141784D01*
X218473799Y-30282972D01*
X218567254Y-30485166D01*
X218608651Y-30608693D01*
X218602581Y-30688555D01*
X218553636Y-30759749D01*
X218538568Y-30776623D01*
X218461342Y-30931672D01*
X218493605Y-31082044D01*
X218618344Y-31211860D01*
X218818542Y-31305241D01*
X219077186Y-31346306D01*
X219149221Y-31346531D01*
X219422250Y-31339062D01*
X219114617Y-31287435D01*
X218846851Y-31215037D01*
X218665356Y-31109893D01*
X218580674Y-30985322D01*
X218595454Y-30900138D01*
X218865661Y-30900138D01*
X218945686Y-30997290D01*
X219084981Y-31067972D01*
X219249691Y-31100146D01*
X219405962Y-31081776D01*
X219510507Y-31013175D01*
X219539782Y-30910580D01*
X219443541Y-30825074D01*
X219222155Y-30756950D01*
X219177171Y-30748060D01*
X218991254Y-30730754D01*
X218892317Y-30770660D01*
X218878758Y-30788553D01*
X218865661Y-30900138D01*
X218595454Y-30900138D01*
X218603349Y-30854643D01*
X218697447Y-30760431D01*
X218785472Y-30684655D01*
X218784758Y-30608062D01*
X218728661Y-30513157D01*
X218664899Y-30395025D01*
X218685707Y-30313428D01*
X218694665Y-30304434D01*
X218946000Y-30304434D01*
X219000771Y-30391173D01*
X219131845Y-30451450D01*
X219289360Y-30473347D01*
X219423452Y-30444948D01*
X219451278Y-30425194D01*
X219499089Y-30338000D01*
X219581000Y-30338000D01*
X219604233Y-30390267D01*
X219623333Y-30380333D01*
X219630933Y-30304973D01*
X219623333Y-30295666D01*
X219585582Y-30304383D01*
X219581000Y-30338000D01*
X219499089Y-30338000D01*
X219505254Y-30326758D01*
X219483028Y-30280260D01*
X219362330Y-30217882D01*
X219203968Y-30196270D01*
X219054078Y-30213346D01*
X218958796Y-30267034D01*
X218946000Y-30304434D01*
X218694665Y-30304434D01*
X218761630Y-30237202D01*
X218926045Y-30153588D01*
X219153245Y-30113967D01*
X219393599Y-30118937D01*
X219597474Y-30169093D01*
X219686801Y-30226087D01*
X219756015Y-30310024D01*
X219742129Y-30379160D01*
X219652655Y-30471030D01*
X219508173Y-30605636D01*
X219646489Y-30752867D01*
X219733727Y-30883581D01*
X219736591Y-30978110D01*
X219724474Y-31026377D01*
X219761688Y-31010813D01*
X219831134Y-30911336D01*
X219788622Y-30785287D01*
X219692125Y-30691425D01*
X219608890Y-30621740D01*
X219630046Y-30610568D01*
X219664536Y-30619784D01*
X219738294Y-30615611D01*
X219812473Y-30541761D01*
X219903522Y-30378057D01*
X219959999Y-30257338D01*
X220069524Y-30034789D01*
X220166348Y-29898893D01*
X220279593Y-29816390D01*
X220384462Y-29772510D01*
X220559867Y-29709436D01*
X220690100Y-29662124D01*
X220709309Y-29655027D01*
X220744704Y-29648339D01*
X220757328Y-29671699D01*
X220741625Y-29740014D01*
X220692043Y-29868185D01*
X220603027Y-30071118D01*
X220469025Y-30363717D01*
X220348328Y-30623750D01*
X220190922Y-30963136D01*
X220024316Y-31324150D01*
X219871854Y-31656129D01*
X219786285Y-31843581D01*
X219677850Y-32073933D01*
X219586605Y-32252826D01*
X219526231Y-32354099D01*
X219512279Y-32367456D01*
X219471495Y-32315165D01*
X219418319Y-32182978D01*
X219408019Y-32150753D01*
X219372434Y-31987684D01*
X219397771Y-31910374D01*
X219413240Y-31901587D01*
X219447393Y-31856215D01*
X219404224Y-31814132D01*
X219355851Y-31718548D01*
X219357567Y-31712390D01*
X219465056Y-31712390D01*
X219490779Y-31721733D01*
X219581000Y-31699400D01*
X219725530Y-31646257D01*
X219800075Y-31600862D01*
X219824681Y-31551680D01*
X219768491Y-31544444D01*
X219668273Y-31573062D01*
X219560797Y-31631444D01*
X219545511Y-31643037D01*
X219465056Y-31712390D01*
X219357567Y-31712390D01*
X219386671Y-31607966D01*
X219475929Y-31545746D01*
X219492543Y-31544500D01*
X219572592Y-31507941D01*
X219581000Y-31481000D01*
X219526705Y-31433096D01*
X219423784Y-31417500D01*
X219284765Y-31443074D01*
X219131200Y-31505904D01*
X218999740Y-31585151D01*
X218927041Y-31659977D01*
X218930253Y-31698086D01*
X218923014Y-31765480D01*
X218854388Y-31835441D01*
X218788154Y-31902065D01*
X218806863Y-31925500D01*
X218859730Y-31981425D01*
X218882443Y-32120478D01*
X218882500Y-32128700D01*
X218868834Y-32251859D01*
X218834152Y-32276807D01*
X218828637Y-32271575D01*
X218791706Y-32203052D01*
X218712152Y-32039096D01*
X218599345Y-31800144D01*
X218462654Y-31506630D01*
X218311450Y-31178992D01*
X218155103Y-30837666D01*
X218002983Y-30503087D01*
X217864461Y-30195691D01*
X217748906Y-29935915D01*
X217665690Y-29744195D01*
X217630882Y-29659312D01*
X217655900Y-29627970D01*
X217782962Y-29666330D01*
X217782962Y-29666330D01*
G37*
X217782962Y-29666330D02*
X217946715Y-29741294D01*
X218154075Y-29854925D01*
X218291773Y-29973674D01*
X218402860Y-30141784D01*
X218473799Y-30282972D01*
X218567254Y-30485166D01*
X218608651Y-30608693D01*
X218602581Y-30688555D01*
X218553636Y-30759749D01*
X218538568Y-30776623D01*
X218461342Y-30931672D01*
X218493605Y-31082044D01*
X218618344Y-31211860D01*
X218818542Y-31305241D01*
X219077186Y-31346306D01*
X219149221Y-31346531D01*
X219422250Y-31339062D01*
X219114617Y-31287435D01*
X218846851Y-31215037D01*
X218665356Y-31109893D01*
X218580674Y-30985322D01*
X218595454Y-30900138D01*
X218865661Y-30900138D01*
X218945686Y-30997290D01*
X219084981Y-31067972D01*
X219249691Y-31100146D01*
X219405962Y-31081776D01*
X219510507Y-31013175D01*
X219539782Y-30910580D01*
X219443541Y-30825074D01*
X219222155Y-30756950D01*
X219177171Y-30748060D01*
X218991254Y-30730754D01*
X218892317Y-30770660D01*
X218878758Y-30788553D01*
X218865661Y-30900138D01*
X218595454Y-30900138D01*
X218603349Y-30854643D01*
X218697447Y-30760431D01*
X218785472Y-30684655D01*
X218784758Y-30608062D01*
X218728661Y-30513157D01*
X218664899Y-30395025D01*
X218685707Y-30313428D01*
X218694665Y-30304434D01*
X218946000Y-30304434D01*
X219000771Y-30391173D01*
X219131845Y-30451450D01*
X219289360Y-30473347D01*
X219423452Y-30444948D01*
X219451278Y-30425194D01*
X219499089Y-30338000D01*
X219581000Y-30338000D01*
X219604233Y-30390267D01*
X219623333Y-30380333D01*
X219630933Y-30304973D01*
X219623333Y-30295666D01*
X219585582Y-30304383D01*
X219581000Y-30338000D01*
X219499089Y-30338000D01*
X219505254Y-30326758D01*
X219483028Y-30280260D01*
X219362330Y-30217882D01*
X219203968Y-30196270D01*
X219054078Y-30213346D01*
X218958796Y-30267034D01*
X218946000Y-30304434D01*
X218694665Y-30304434D01*
X218761630Y-30237202D01*
X218926045Y-30153588D01*
X219153245Y-30113967D01*
X219393599Y-30118937D01*
X219597474Y-30169093D01*
X219686801Y-30226087D01*
X219756015Y-30310024D01*
X219742129Y-30379160D01*
X219652655Y-30471030D01*
X219508173Y-30605636D01*
X219646489Y-30752867D01*
X219733727Y-30883581D01*
X219736591Y-30978110D01*
X219724474Y-31026377D01*
X219761688Y-31010813D01*
X219831134Y-30911336D01*
X219788622Y-30785287D01*
X219692125Y-30691425D01*
X219608890Y-30621740D01*
X219630046Y-30610568D01*
X219664536Y-30619784D01*
X219738294Y-30615611D01*
X219812473Y-30541761D01*
X219903522Y-30378057D01*
X219959999Y-30257338D01*
X220069524Y-30034789D01*
X220166348Y-29898893D01*
X220279593Y-29816390D01*
X220384462Y-29772510D01*
X220559867Y-29709436D01*
X220690100Y-29662124D01*
X220709309Y-29655027D01*
X220744704Y-29648339D01*
X220757328Y-29671699D01*
X220741625Y-29740014D01*
X220692043Y-29868185D01*
X220603027Y-30071118D01*
X220469025Y-30363717D01*
X220348328Y-30623750D01*
X220190922Y-30963136D01*
X220024316Y-31324150D01*
X219871854Y-31656129D01*
X219786285Y-31843581D01*
X219677850Y-32073933D01*
X219586605Y-32252826D01*
X219526231Y-32354099D01*
X219512279Y-32367456D01*
X219471495Y-32315165D01*
X219418319Y-32182978D01*
X219408019Y-32150753D01*
X219372434Y-31987684D01*
X219397771Y-31910374D01*
X219413240Y-31901587D01*
X219447393Y-31856215D01*
X219404224Y-31814132D01*
X219355851Y-31718548D01*
X219357567Y-31712390D01*
X219465056Y-31712390D01*
X219490779Y-31721733D01*
X219581000Y-31699400D01*
X219725530Y-31646257D01*
X219800075Y-31600862D01*
X219824681Y-31551680D01*
X219768491Y-31544444D01*
X219668273Y-31573062D01*
X219560797Y-31631444D01*
X219545511Y-31643037D01*
X219465056Y-31712390D01*
X219357567Y-31712390D01*
X219386671Y-31607966D01*
X219475929Y-31545746D01*
X219492543Y-31544500D01*
X219572592Y-31507941D01*
X219581000Y-31481000D01*
X219526705Y-31433096D01*
X219423784Y-31417500D01*
X219284765Y-31443074D01*
X219131200Y-31505904D01*
X218999740Y-31585151D01*
X218927041Y-31659977D01*
X218930253Y-31698086D01*
X218923014Y-31765480D01*
X218854388Y-31835441D01*
X218788154Y-31902065D01*
X218806863Y-31925500D01*
X218859730Y-31981425D01*
X218882443Y-32120478D01*
X218882500Y-32128700D01*
X218868834Y-32251859D01*
X218834152Y-32276807D01*
X218828637Y-32271575D01*
X218791706Y-32203052D01*
X218712152Y-32039096D01*
X218599345Y-31800144D01*
X218462654Y-31506630D01*
X218311450Y-31178992D01*
X218155103Y-30837666D01*
X218002983Y-30503087D01*
X217864461Y-30195691D01*
X217748906Y-29935915D01*
X217665690Y-29744195D01*
X217630882Y-29659312D01*
X217655900Y-29627970D01*
X217782962Y-29666330D01*
G36*
X217923469Y-31056021D02*
X217925536Y-31077210D01*
X217965910Y-31161720D01*
X218066144Y-31307339D01*
X218176631Y-31448130D01*
X218302915Y-31631155D01*
X218407759Y-31836329D01*
X218477371Y-32028487D01*
X218497959Y-32172465D01*
X218480164Y-32222002D01*
X218423044Y-32198645D01*
X218291334Y-32120483D01*
X218132871Y-32017274D01*
X217951507Y-31889110D01*
X217853208Y-31791152D01*
X217843933Y-31766750D01*
X217930000Y-31766750D01*
X217961750Y-31798500D01*
X217993500Y-31766750D01*
X217961750Y-31735000D01*
X217930000Y-31766750D01*
X217843933Y-31766750D01*
X217813348Y-31686290D01*
X217807299Y-31537415D01*
X217807463Y-31526937D01*
X217819235Y-31378381D01*
X217836232Y-31277069D01*
X217866500Y-31277069D01*
X217867472Y-31490159D01*
X217878443Y-31622007D01*
X217911000Y-31633023D01*
X217924272Y-31615092D01*
X217979539Y-31573545D01*
X218065497Y-31612740D01*
X218160776Y-31694467D01*
X218298691Y-31815267D01*
X218364686Y-31857791D01*
X218350862Y-31818581D01*
X218302900Y-31756713D01*
X218202283Y-31641058D01*
X218066603Y-31491676D01*
X218041125Y-31464248D01*
X217866500Y-31277069D01*
X217836232Y-31277069D01*
X217844687Y-31226674D01*
X217875853Y-31102153D01*
X217904769Y-31035156D01*
X217923469Y-31056021D01*
X217923469Y-31056021D01*
G37*
X217923469Y-31056021D02*
X217925536Y-31077210D01*
X217965910Y-31161720D01*
X218066144Y-31307339D01*
X218176631Y-31448130D01*
X218302915Y-31631155D01*
X218407759Y-31836329D01*
X218477371Y-32028487D01*
X218497959Y-32172465D01*
X218480164Y-32222002D01*
X218423044Y-32198645D01*
X218291334Y-32120483D01*
X218132871Y-32017274D01*
X217951507Y-31889110D01*
X217853208Y-31791152D01*
X217843933Y-31766750D01*
X217930000Y-31766750D01*
X217961750Y-31798500D01*
X217993500Y-31766750D01*
X217961750Y-31735000D01*
X217930000Y-31766750D01*
X217843933Y-31766750D01*
X217813348Y-31686290D01*
X217807299Y-31537415D01*
X217807463Y-31526937D01*
X217819235Y-31378381D01*
X217836232Y-31277069D01*
X217866500Y-31277069D01*
X217867472Y-31490159D01*
X217878443Y-31622007D01*
X217911000Y-31633023D01*
X217924272Y-31615092D01*
X217979539Y-31573545D01*
X218065497Y-31612740D01*
X218160776Y-31694467D01*
X218298691Y-31815267D01*
X218364686Y-31857791D01*
X218350862Y-31818581D01*
X218302900Y-31756713D01*
X218202283Y-31641058D01*
X218066603Y-31491676D01*
X218041125Y-31464248D01*
X217866500Y-31277069D01*
X217836232Y-31277069D01*
X217844687Y-31226674D01*
X217875853Y-31102153D01*
X217904769Y-31035156D01*
X217923469Y-31056021D01*
G36*
X223058471Y-31720853D02*
X223042844Y-31842107D01*
X222988336Y-31995056D01*
X222905340Y-32139490D01*
X222903040Y-32142578D01*
X222833510Y-32231085D01*
X222824714Y-32218486D01*
X222847883Y-32147750D01*
X222894679Y-31986093D01*
X222927134Y-31846125D01*
X222972187Y-31719595D01*
X223024821Y-31671500D01*
X223058471Y-31720853D01*
X223058471Y-31720853D01*
G37*
X223058471Y-31720853D02*
X223042844Y-31842107D01*
X222988336Y-31995056D01*
X222905340Y-32139490D01*
X222903040Y-32142578D01*
X222833510Y-32231085D01*
X222824714Y-32218486D01*
X222847883Y-32147750D01*
X222894679Y-31986093D01*
X222927134Y-31846125D01*
X222972187Y-31719595D01*
X223024821Y-31671500D01*
X223058471Y-31720853D01*
G36*
X215453500Y-32147750D02*
X215421750Y-32179500D01*
X215390000Y-32147750D01*
X215421750Y-32116000D01*
X215453500Y-32147750D01*
X215453500Y-32147750D01*
G37*
X215453500Y-32147750D02*
X215421750Y-32179500D01*
X215390000Y-32147750D01*
X215421750Y-32116000D01*
X215453500Y-32147750D01*
G36*
X220517754Y-31155973D02*
X220556250Y-31294560D01*
X220574986Y-31471764D01*
X220569040Y-31643588D01*
X220538029Y-31758187D01*
X220438508Y-31873808D01*
X220277152Y-31999422D01*
X220217006Y-32036625D01*
X220020471Y-32137408D01*
X219894348Y-32176607D01*
X219852970Y-32151100D01*
X219868992Y-32112371D01*
X219908311Y-31999713D01*
X219927321Y-31891814D01*
X219978531Y-31758227D01*
X219985204Y-31747945D01*
X220102070Y-31747945D01*
X220180199Y-31714739D01*
X220196344Y-31703250D01*
X220406500Y-31703250D01*
X220438250Y-31735000D01*
X220470000Y-31703250D01*
X220438250Y-31671500D01*
X220406500Y-31703250D01*
X220196344Y-31703250D01*
X220342064Y-31599555D01*
X220364454Y-31582117D01*
X220447812Y-31477958D01*
X220459704Y-31405768D01*
X220410134Y-31395301D01*
X220300576Y-31481146D01*
X220216000Y-31569974D01*
X220112422Y-31699560D01*
X220102070Y-31747945D01*
X219985204Y-31747945D01*
X220090989Y-31584948D01*
X220175332Y-31482509D01*
X220304341Y-31328861D01*
X220388252Y-31208103D01*
X220406500Y-31163317D01*
X220450830Y-31101771D01*
X220464418Y-31100000D01*
X220517754Y-31155973D01*
X220517754Y-31155973D01*
G37*
X220517754Y-31155973D02*
X220556250Y-31294560D01*
X220574986Y-31471764D01*
X220569040Y-31643588D01*
X220538029Y-31758187D01*
X220438508Y-31873808D01*
X220277152Y-31999422D01*
X220217006Y-32036625D01*
X220020471Y-32137408D01*
X219894348Y-32176607D01*
X219852970Y-32151100D01*
X219868992Y-32112371D01*
X219908311Y-31999713D01*
X219927321Y-31891814D01*
X219978531Y-31758227D01*
X219985204Y-31747945D01*
X220102070Y-31747945D01*
X220180199Y-31714739D01*
X220196344Y-31703250D01*
X220406500Y-31703250D01*
X220438250Y-31735000D01*
X220470000Y-31703250D01*
X220438250Y-31671500D01*
X220406500Y-31703250D01*
X220196344Y-31703250D01*
X220342064Y-31599555D01*
X220364454Y-31582117D01*
X220447812Y-31477958D01*
X220459704Y-31405768D01*
X220410134Y-31395301D01*
X220300576Y-31481146D01*
X220216000Y-31569974D01*
X220112422Y-31699560D01*
X220102070Y-31747945D01*
X219985204Y-31747945D01*
X220090989Y-31584948D01*
X220175332Y-31482509D01*
X220304341Y-31328861D01*
X220388252Y-31208103D01*
X220406500Y-31163317D01*
X220450830Y-31101771D01*
X220464418Y-31100000D01*
X220517754Y-31155973D01*
G36*
X215323449Y-31713495D02*
X215324569Y-31745681D01*
X215349379Y-31902665D01*
X215365043Y-31952056D01*
X215364072Y-32036728D01*
X215331300Y-32052500D01*
X215247145Y-32001771D01*
X215223943Y-31961106D01*
X215224414Y-31834663D01*
X215255755Y-31754731D01*
X215307433Y-31678911D01*
X215323449Y-31713495D01*
X215323449Y-31713495D01*
G37*
X215323449Y-31713495D02*
X215324569Y-31745681D01*
X215349379Y-31902665D01*
X215365043Y-31952056D01*
X215364072Y-32036728D01*
X215331300Y-32052500D01*
X215247145Y-32001771D01*
X215223943Y-31961106D01*
X215224414Y-31834663D01*
X215255755Y-31754731D01*
X215307433Y-31678911D01*
X215323449Y-31713495D01*
G36*
X221845833Y-31946666D02*
X221853433Y-32022026D01*
X221845833Y-32031333D01*
X221808082Y-32022616D01*
X221803500Y-31989000D01*
X221826733Y-31936732D01*
X221845833Y-31946666D01*
X221845833Y-31946666D01*
G37*
X221845833Y-31946666D02*
X221853433Y-32022026D01*
X221845833Y-32031333D01*
X221808082Y-32022616D01*
X221803500Y-31989000D01*
X221826733Y-31936732D01*
X221845833Y-31946666D01*
G36*
X217111482Y-30371737D02*
X217371468Y-30646232D01*
X217536859Y-30877453D01*
X217620401Y-31089998D01*
X217634842Y-31308463D01*
X217628775Y-31369875D01*
X217587556Y-31539843D01*
X217513866Y-31596507D01*
X217396343Y-31541244D01*
X217260360Y-31414484D01*
X217138443Y-31258300D01*
X217080343Y-31086320D01*
X217064271Y-30900074D01*
X217043779Y-30700072D01*
X217040353Y-30687250D01*
X217136250Y-30687250D01*
X217322755Y-30893625D01*
X217458187Y-31037894D01*
X217528560Y-31096143D01*
X217548996Y-31080839D01*
X217549000Y-31080130D01*
X217506488Y-31029667D01*
X217399365Y-30925801D01*
X217342625Y-30873755D01*
X217136250Y-30687250D01*
X217040353Y-30687250D01*
X217003549Y-30549535D01*
X216977255Y-30506215D01*
X216934055Y-30487734D01*
X216924958Y-30560523D01*
X216943853Y-30719000D01*
X216977094Y-30923912D01*
X217008677Y-31093160D01*
X217017176Y-31131750D01*
X217033800Y-31219208D01*
X217003511Y-31202270D01*
X216952800Y-31140633D01*
X216876205Y-30990662D01*
X216805141Y-30760095D01*
X216750816Y-30495208D01*
X216724439Y-30242278D01*
X216723500Y-30193987D01*
X216723500Y-29992725D01*
X217111482Y-30371737D01*
X217111482Y-30371737D01*
G37*
X217111482Y-30371737D02*
X217371468Y-30646232D01*
X217536859Y-30877453D01*
X217620401Y-31089998D01*
X217634842Y-31308463D01*
X217628775Y-31369875D01*
X217587556Y-31539843D01*
X217513866Y-31596507D01*
X217396343Y-31541244D01*
X217260360Y-31414484D01*
X217138443Y-31258300D01*
X217080343Y-31086320D01*
X217064271Y-30900074D01*
X217043779Y-30700072D01*
X217040353Y-30687250D01*
X217136250Y-30687250D01*
X217322755Y-30893625D01*
X217458187Y-31037894D01*
X217528560Y-31096143D01*
X217548996Y-31080839D01*
X217549000Y-31080130D01*
X217506488Y-31029667D01*
X217399365Y-30925801D01*
X217342625Y-30873755D01*
X217136250Y-30687250D01*
X217040353Y-30687250D01*
X217003549Y-30549535D01*
X216977255Y-30506215D01*
X216934055Y-30487734D01*
X216924958Y-30560523D01*
X216943853Y-30719000D01*
X216977094Y-30923912D01*
X217008677Y-31093160D01*
X217017176Y-31131750D01*
X217033800Y-31219208D01*
X217003511Y-31202270D01*
X216952800Y-31140633D01*
X216876205Y-30990662D01*
X216805141Y-30760095D01*
X216750816Y-30495208D01*
X216724439Y-30242278D01*
X216723500Y-30193987D01*
X216723500Y-29992725D01*
X217111482Y-30371737D01*
G36*
X219307077Y-31522017D02*
X219295250Y-31544500D01*
X219235419Y-31605142D01*
X219224254Y-31608000D01*
X219219922Y-31566982D01*
X219231750Y-31544500D01*
X219291580Y-31483857D01*
X219302745Y-31481000D01*
X219307077Y-31522017D01*
X219307077Y-31522017D01*
G37*
X219307077Y-31522017D02*
X219295250Y-31544500D01*
X219235419Y-31605142D01*
X219224254Y-31608000D01*
X219219922Y-31566982D01*
X219231750Y-31544500D01*
X219291580Y-31483857D01*
X219302745Y-31481000D01*
X219307077Y-31522017D01*
G36*
X221676500Y-30058450D02*
X221661279Y-30240030D01*
X221622187Y-30480847D01*
X221569079Y-30733578D01*
X221511810Y-30950899D01*
X221464046Y-31078640D01*
X221375997Y-31193190D01*
X221232875Y-31333620D01*
X221070576Y-31469692D01*
X220924996Y-31571171D01*
X220835598Y-31608000D01*
X220802258Y-31552246D01*
X220794200Y-31413150D01*
X220797873Y-31359341D01*
X220801952Y-31211061D01*
X220783494Y-31140662D01*
X220772793Y-31140839D01*
X220727079Y-31123245D01*
X220724000Y-31100594D01*
X220729171Y-31083946D01*
X221320991Y-31083946D01*
X221332688Y-31151764D01*
X221359481Y-31100851D01*
X221359751Y-31100000D01*
X221395075Y-30928313D01*
X221415289Y-30718152D01*
X221416170Y-30692541D01*
X221410858Y-30547096D01*
X221389927Y-30483209D01*
X221380154Y-30486179D01*
X221354864Y-30568224D01*
X221333605Y-30736116D01*
X221323734Y-30893637D01*
X221320991Y-31083946D01*
X220729171Y-31083946D01*
X220750257Y-31016060D01*
X220854856Y-31016060D01*
X220870160Y-31036496D01*
X220870869Y-31036500D01*
X220921332Y-30993988D01*
X221025198Y-30886865D01*
X221077244Y-30830125D01*
X221263750Y-30623750D01*
X221057375Y-30810255D01*
X220913105Y-30945687D01*
X220854856Y-31016060D01*
X220750257Y-31016060D01*
X220776988Y-30930000D01*
X220932783Y-30698540D01*
X221186624Y-30412865D01*
X221290682Y-30308237D01*
X221480552Y-30127518D01*
X221598885Y-30031781D01*
X221659570Y-30012032D01*
X221676500Y-30058450D01*
X221676500Y-30058450D01*
G37*
X221676500Y-30058450D02*
X221661279Y-30240030D01*
X221622187Y-30480847D01*
X221569079Y-30733578D01*
X221511810Y-30950899D01*
X221464046Y-31078640D01*
X221375997Y-31193190D01*
X221232875Y-31333620D01*
X221070576Y-31469692D01*
X220924996Y-31571171D01*
X220835598Y-31608000D01*
X220802258Y-31552246D01*
X220794200Y-31413150D01*
X220797873Y-31359341D01*
X220801952Y-31211061D01*
X220783494Y-31140662D01*
X220772793Y-31140839D01*
X220727079Y-31123245D01*
X220724000Y-31100594D01*
X220729171Y-31083946D01*
X221320991Y-31083946D01*
X221332688Y-31151764D01*
X221359481Y-31100851D01*
X221359751Y-31100000D01*
X221395075Y-30928313D01*
X221415289Y-30718152D01*
X221416170Y-30692541D01*
X221410858Y-30547096D01*
X221389927Y-30483209D01*
X221380154Y-30486179D01*
X221354864Y-30568224D01*
X221333605Y-30736116D01*
X221323734Y-30893637D01*
X221320991Y-31083946D01*
X220729171Y-31083946D01*
X220750257Y-31016060D01*
X220854856Y-31016060D01*
X220870160Y-31036496D01*
X220870869Y-31036500D01*
X220921332Y-30993988D01*
X221025198Y-30886865D01*
X221077244Y-30830125D01*
X221263750Y-30623750D01*
X221057375Y-30810255D01*
X220913105Y-30945687D01*
X220854856Y-31016060D01*
X220750257Y-31016060D01*
X220776988Y-30930000D01*
X220932783Y-30698540D01*
X221186624Y-30412865D01*
X221290682Y-30308237D01*
X221480552Y-30127518D01*
X221598885Y-30031781D01*
X221659570Y-30012032D01*
X221676500Y-30058450D01*
G36*
X223230892Y-31352499D02*
X223300858Y-31446566D01*
X223276277Y-31479228D01*
X223257966Y-31480027D01*
X223127292Y-31446668D01*
X223074030Y-31419171D01*
X223016490Y-31345336D01*
X223046956Y-31291643D01*
X223129491Y-31271252D01*
X223230892Y-31352499D01*
X223230892Y-31352499D01*
G37*
X223230892Y-31352499D02*
X223300858Y-31446566D01*
X223276277Y-31479228D01*
X223257966Y-31480027D01*
X223127292Y-31446668D01*
X223074030Y-31419171D01*
X223016490Y-31345336D01*
X223046956Y-31291643D01*
X223129491Y-31271252D01*
X223230892Y-31352499D01*
G36*
X215179209Y-30650577D02*
X215199031Y-30779942D01*
X215199500Y-30810502D01*
X215194359Y-30972979D01*
X215172382Y-31029987D01*
X215123731Y-31002861D01*
X215114833Y-30994166D01*
X215076814Y-30890645D01*
X215079988Y-30747954D01*
X215120249Y-30637953D01*
X215136000Y-30623750D01*
X215179209Y-30650577D01*
X215179209Y-30650577D01*
G37*
X215179209Y-30650577D02*
X215199031Y-30779942D01*
X215199500Y-30810502D01*
X215194359Y-30972979D01*
X215172382Y-31029987D01*
X215123731Y-31002861D01*
X215114833Y-30994166D01*
X215076814Y-30890645D01*
X215079988Y-30747954D01*
X215120249Y-30637953D01*
X215136000Y-30623750D01*
X215179209Y-30650577D01*
G36*
X223137000Y-30655500D02*
X223193522Y-30808145D01*
X223181765Y-30947666D01*
X223137000Y-31004750D01*
X223094758Y-30977068D01*
X223075096Y-30845071D01*
X223074472Y-30802122D01*
X223082971Y-30655824D01*
X223110046Y-30624365D01*
X223137000Y-30655500D01*
X223137000Y-30655500D01*
G37*
X223137000Y-30655500D02*
X223193522Y-30808145D01*
X223181765Y-30947666D01*
X223137000Y-31004750D01*
X223094758Y-30977068D01*
X223075096Y-30845071D01*
X223074472Y-30802122D01*
X223082971Y-30655824D01*
X223110046Y-30624365D01*
X223137000Y-30655500D01*
G36*
X222494266Y-30127816D02*
X222510911Y-30132041D01*
X222673733Y-30202535D01*
X222712114Y-30295620D01*
X222626080Y-30408656D01*
X222507329Y-30489319D01*
X222290409Y-30616008D01*
X222330047Y-30464433D01*
X222334686Y-30314549D01*
X222327017Y-30295666D01*
X222459666Y-30295666D01*
X222468383Y-30333417D01*
X222502000Y-30338000D01*
X222554267Y-30314766D01*
X222544333Y-30295666D01*
X222468973Y-30288066D01*
X222459666Y-30295666D01*
X222327017Y-30295666D01*
X222299793Y-30228644D01*
X222254864Y-30135847D01*
X222320544Y-30101846D01*
X222494266Y-30127816D01*
X222494266Y-30127816D01*
G37*
X222494266Y-30127816D02*
X222510911Y-30132041D01*
X222673733Y-30202535D01*
X222712114Y-30295620D01*
X222626080Y-30408656D01*
X222507329Y-30489319D01*
X222290409Y-30616008D01*
X222330047Y-30464433D01*
X222334686Y-30314549D01*
X222327017Y-30295666D01*
X222459666Y-30295666D01*
X222468383Y-30333417D01*
X222502000Y-30338000D01*
X222554267Y-30314766D01*
X222544333Y-30295666D01*
X222468973Y-30288066D01*
X222459666Y-30295666D01*
X222327017Y-30295666D01*
X222299793Y-30228644D01*
X222254864Y-30135847D01*
X222320544Y-30101846D01*
X222494266Y-30127816D01*
G36*
X215634780Y-30196495D02*
X215649013Y-30254877D01*
X215665343Y-30316904D01*
X215686054Y-30290375D01*
X215753482Y-30216124D01*
X215818642Y-30241192D01*
X215834500Y-30306250D01*
X215885622Y-30389542D01*
X215933497Y-30401500D01*
X215999223Y-30432284D01*
X215993250Y-30465000D01*
X215901169Y-30512650D01*
X215746992Y-30519998D01*
X215596375Y-30486445D01*
X215530504Y-30403261D01*
X215523138Y-30277425D01*
X215577994Y-30180856D01*
X215580500Y-30179250D01*
X215634780Y-30196495D01*
X215634780Y-30196495D01*
G37*
X215634780Y-30196495D02*
X215649013Y-30254877D01*
X215665343Y-30316904D01*
X215686054Y-30290375D01*
X215753482Y-30216124D01*
X215818642Y-30241192D01*
X215834500Y-30306250D01*
X215885622Y-30389542D01*
X215933497Y-30401500D01*
X215999223Y-30432284D01*
X215993250Y-30465000D01*
X215901169Y-30512650D01*
X215746992Y-30519998D01*
X215596375Y-30486445D01*
X215530504Y-30403261D01*
X215523138Y-30277425D01*
X215577994Y-30180856D01*
X215580500Y-30179250D01*
X215634780Y-30196495D01*
G36*
X216806375Y-29291521D02*
X216887988Y-29341126D01*
X217167934Y-29524785D01*
X217352176Y-29680878D01*
X217460699Y-29834236D01*
X217513487Y-30009690D01*
X217526646Y-30134691D01*
X217526741Y-30326706D01*
X217505278Y-30461850D01*
X217484218Y-30497541D01*
X217426421Y-30496285D01*
X217422000Y-30477369D01*
X217381091Y-30406624D01*
X217272539Y-30271250D01*
X217117605Y-30097311D01*
X217073715Y-30050430D01*
X216903722Y-29861298D01*
X216768983Y-29694015D01*
X216694117Y-29579566D01*
X216688436Y-29565558D01*
X216685809Y-29561183D01*
X216818057Y-29561183D01*
X216838148Y-29610235D01*
X216929944Y-29701098D01*
X217085408Y-29819922D01*
X217153949Y-29865926D01*
X217344893Y-29981061D01*
X217458518Y-30031257D01*
X217485848Y-30015148D01*
X217417903Y-29931369D01*
X217386722Y-29901321D01*
X217251955Y-29794088D01*
X217071616Y-29672321D01*
X217025132Y-29643911D01*
X216877706Y-29567792D01*
X216818057Y-29561183D01*
X216685809Y-29561183D01*
X216630178Y-29468570D01*
X216589986Y-29449000D01*
X216564067Y-29404046D01*
X216594759Y-29325251D01*
X216642487Y-29251054D01*
X216699917Y-29239101D01*
X216806375Y-29291521D01*
X216806375Y-29291521D01*
G37*
X216806375Y-29291521D02*
X216887988Y-29341126D01*
X217167934Y-29524785D01*
X217352176Y-29680878D01*
X217460699Y-29834236D01*
X217513487Y-30009690D01*
X217526646Y-30134691D01*
X217526741Y-30326706D01*
X217505278Y-30461850D01*
X217484218Y-30497541D01*
X217426421Y-30496285D01*
X217422000Y-30477369D01*
X217381091Y-30406624D01*
X217272539Y-30271250D01*
X217117605Y-30097311D01*
X217073715Y-30050430D01*
X216903722Y-29861298D01*
X216768983Y-29694015D01*
X216694117Y-29579566D01*
X216688436Y-29565558D01*
X216685809Y-29561183D01*
X216818057Y-29561183D01*
X216838148Y-29610235D01*
X216929944Y-29701098D01*
X217085408Y-29819922D01*
X217153949Y-29865926D01*
X217344893Y-29981061D01*
X217458518Y-30031257D01*
X217485848Y-30015148D01*
X217417903Y-29931369D01*
X217386722Y-29901321D01*
X217251955Y-29794088D01*
X217071616Y-29672321D01*
X217025132Y-29643911D01*
X216877706Y-29567792D01*
X216818057Y-29561183D01*
X216685809Y-29561183D01*
X216630178Y-29468570D01*
X216589986Y-29449000D01*
X216564067Y-29404046D01*
X216594759Y-29325251D01*
X216642487Y-29251054D01*
X216699917Y-29239101D01*
X216806375Y-29291521D01*
G36*
X221678190Y-29330683D02*
X221699644Y-29369625D01*
X221753649Y-29502135D01*
X221753544Y-29572531D01*
X221743864Y-29576000D01*
X221669866Y-29626069D01*
X221605994Y-29718875D01*
X221532927Y-29858116D01*
X221480114Y-29885327D01*
X221364729Y-29988164D01*
X221211051Y-30145168D01*
X221175481Y-30183700D01*
X220848196Y-30541802D01*
X220857127Y-30201776D01*
X220883924Y-29965933D01*
X220914500Y-29965933D01*
X220958612Y-29987404D01*
X221073250Y-29932553D01*
X221254645Y-29815370D01*
X221390750Y-29727446D01*
X221504435Y-29633945D01*
X221549500Y-29558855D01*
X221511123Y-29542685D01*
X221438375Y-29590250D01*
X221304318Y-29686551D01*
X221130939Y-29787077D01*
X221120875Y-29792223D01*
X220984983Y-29878279D01*
X220916476Y-29955376D01*
X220914500Y-29965933D01*
X220883924Y-29965933D01*
X220891385Y-29900269D01*
X220988300Y-29684816D01*
X221167105Y-29522125D01*
X221290571Y-29451514D01*
X221448823Y-29356417D01*
X221550525Y-29268502D01*
X221565156Y-29244322D01*
X221607125Y-29238821D01*
X221678190Y-29330683D01*
X221678190Y-29330683D01*
G37*
X221678190Y-29330683D02*
X221699644Y-29369625D01*
X221753649Y-29502135D01*
X221753544Y-29572531D01*
X221743864Y-29576000D01*
X221669866Y-29626069D01*
X221605994Y-29718875D01*
X221532927Y-29858116D01*
X221480114Y-29885327D01*
X221364729Y-29988164D01*
X221211051Y-30145168D01*
X221175481Y-30183700D01*
X220848196Y-30541802D01*
X220857127Y-30201776D01*
X220883924Y-29965933D01*
X220914500Y-29965933D01*
X220958612Y-29987404D01*
X221073250Y-29932553D01*
X221254645Y-29815370D01*
X221390750Y-29727446D01*
X221504435Y-29633945D01*
X221549500Y-29558855D01*
X221511123Y-29542685D01*
X221438375Y-29590250D01*
X221304318Y-29686551D01*
X221130939Y-29787077D01*
X221120875Y-29792223D01*
X220984983Y-29878279D01*
X220916476Y-29955376D01*
X220914500Y-29965933D01*
X220883924Y-29965933D01*
X220891385Y-29900269D01*
X220988300Y-29684816D01*
X221167105Y-29522125D01*
X221290571Y-29451514D01*
X221448823Y-29356417D01*
X221550525Y-29268502D01*
X221565156Y-29244322D01*
X221607125Y-29238821D01*
X221678190Y-29330683D01*
G36*
X221840110Y-29666964D02*
X221869904Y-29705524D01*
X221921665Y-29821087D01*
X221928555Y-29861750D01*
X221903255Y-29875390D01*
X221874103Y-29839318D01*
X221798988Y-29786399D01*
X221692924Y-29821209D01*
X221581292Y-29862329D01*
X221535848Y-29857461D01*
X221671136Y-29737274D01*
X221777320Y-29657921D01*
X221840110Y-29666964D01*
X221840110Y-29666964D01*
G37*
X221840110Y-29666964D02*
X221869904Y-29705524D01*
X221921665Y-29821087D01*
X221928555Y-29861750D01*
X221903255Y-29875390D01*
X221874103Y-29839318D01*
X221798988Y-29786399D01*
X221692924Y-29821209D01*
X221581292Y-29862329D01*
X221535848Y-29857461D01*
X221671136Y-29737274D01*
X221777320Y-29657921D01*
X221840110Y-29666964D01*
G36*
X221535848Y-29857461D02*
X221531020Y-29861750D01*
X221532927Y-29858116D01*
X221534482Y-29857315D01*
X221535848Y-29857461D01*
X221535848Y-29857461D01*
G37*
X221535848Y-29857461D02*
X221531020Y-29861750D01*
X221532927Y-29858116D01*
X221534482Y-29857315D01*
X221535848Y-29857461D01*
G36*
X215575353Y-29185454D02*
X215520386Y-29315546D01*
X215513559Y-29328428D01*
X215464871Y-29451066D01*
X215400696Y-29654136D01*
X215334645Y-29894453D01*
X215332534Y-29902742D01*
X215270863Y-30115923D01*
X215218711Y-30240236D01*
X215183355Y-30258942D01*
X215180383Y-30252775D01*
X215095226Y-30180217D01*
X215022621Y-30176626D01*
X214878722Y-30171164D01*
X214819709Y-30148247D01*
X214763083Y-30061503D01*
X214799756Y-29965692D01*
X214906126Y-29901374D01*
X214967953Y-29893500D01*
X215112411Y-29838942D01*
X215245869Y-29705487D01*
X215330920Y-29538462D01*
X215343019Y-29438995D01*
X215380914Y-29318860D01*
X215457888Y-29222778D01*
X215554054Y-29153647D01*
X215575353Y-29185454D01*
X215575353Y-29185454D01*
G37*
X215575353Y-29185454D02*
X215520386Y-29315546D01*
X215513559Y-29328428D01*
X215464871Y-29451066D01*
X215400696Y-29654136D01*
X215334645Y-29894453D01*
X215332534Y-29902742D01*
X215270863Y-30115923D01*
X215218711Y-30240236D01*
X215183355Y-30258942D01*
X215180383Y-30252775D01*
X215095226Y-30180217D01*
X215022621Y-30176626D01*
X214878722Y-30171164D01*
X214819709Y-30148247D01*
X214763083Y-30061503D01*
X214799756Y-29965692D01*
X214906126Y-29901374D01*
X214967953Y-29893500D01*
X215112411Y-29838942D01*
X215245869Y-29705487D01*
X215330920Y-29538462D01*
X215343019Y-29438995D01*
X215380914Y-29318860D01*
X215457888Y-29222778D01*
X215554054Y-29153647D01*
X215575353Y-29185454D01*
G36*
X223052333Y-30105166D02*
X223059933Y-30180526D01*
X223052333Y-30189833D01*
X223014582Y-30181116D01*
X223010000Y-30147500D01*
X223033233Y-30095232D01*
X223052333Y-30105166D01*
X223052333Y-30105166D01*
G37*
X223052333Y-30105166D02*
X223059933Y-30180526D01*
X223052333Y-30189833D01*
X223014582Y-30181116D01*
X223010000Y-30147500D01*
X223033233Y-30095232D01*
X223052333Y-30105166D01*
G36*
X215952362Y-29876145D02*
X215961500Y-29921502D01*
X215928346Y-30008384D01*
X215898000Y-30020500D01*
X215836317Y-29974924D01*
X215834500Y-29960747D01*
X215880658Y-29874747D01*
X215898000Y-29861750D01*
X215952362Y-29876145D01*
X215952362Y-29876145D01*
G37*
X215952362Y-29876145D02*
X215961500Y-29921502D01*
X215928346Y-30008384D01*
X215898000Y-30020500D01*
X215836317Y-29974924D01*
X215834500Y-29960747D01*
X215880658Y-29874747D01*
X215898000Y-29861750D01*
X215952362Y-29876145D01*
G36*
X222923304Y-29607990D02*
X222973066Y-29667511D01*
X223047800Y-29801128D01*
X223071750Y-29930535D01*
X223040293Y-30011539D01*
X223010000Y-30020500D01*
X222957695Y-29967550D01*
X222946500Y-29898693D01*
X222926612Y-29728090D01*
X222909566Y-29660568D01*
X222890673Y-29585413D01*
X222923304Y-29607990D01*
X222923304Y-29607990D01*
G37*
X222923304Y-29607990D02*
X222973066Y-29667511D01*
X223047800Y-29801128D01*
X223071750Y-29930535D01*
X223040293Y-30011539D01*
X223010000Y-30020500D01*
X222957695Y-29967550D01*
X222946500Y-29898693D01*
X222926612Y-29728090D01*
X222909566Y-29660568D01*
X222890673Y-29585413D01*
X222923304Y-29607990D01*
G36*
X222531685Y-29467910D02*
X222550710Y-29479946D01*
X222546903Y-29540559D01*
X222514509Y-29559357D01*
X222475767Y-29601932D01*
X222546259Y-29675644D01*
X222624238Y-29741784D01*
X222596771Y-29762306D01*
X222538750Y-29764480D01*
X222398613Y-29806705D01*
X222291116Y-29877625D01*
X222203795Y-29948153D01*
X222184567Y-29923641D01*
X222208061Y-29813684D01*
X222221204Y-29693503D01*
X222192170Y-29654934D01*
X222127466Y-29623671D01*
X222122566Y-29607750D01*
X222167194Y-29549012D01*
X222285510Y-29495603D01*
X222424634Y-29463308D01*
X222531685Y-29467910D01*
X222531685Y-29467910D01*
G37*
X222531685Y-29467910D02*
X222550710Y-29479946D01*
X222546903Y-29540559D01*
X222514509Y-29559357D01*
X222475767Y-29601932D01*
X222546259Y-29675644D01*
X222624238Y-29741784D01*
X222596771Y-29762306D01*
X222538750Y-29764480D01*
X222398613Y-29806705D01*
X222291116Y-29877625D01*
X222203795Y-29948153D01*
X222184567Y-29923641D01*
X222208061Y-29813684D01*
X222221204Y-29693503D01*
X222192170Y-29654934D01*
X222127466Y-29623671D01*
X222122566Y-29607750D01*
X222167194Y-29549012D01*
X222285510Y-29495603D01*
X222424634Y-29463308D01*
X222531685Y-29467910D01*
G36*
X216528102Y-29594005D02*
X216621270Y-29680276D01*
X216648954Y-29712752D01*
X216750690Y-29843692D01*
X216764894Y-29883136D01*
X216689911Y-29833147D01*
X216606712Y-29765498D01*
X216508405Y-29662347D01*
X216479576Y-29587220D01*
X216479712Y-29586863D01*
X216528102Y-29594005D01*
X216528102Y-29594005D01*
G37*
X216528102Y-29594005D02*
X216621270Y-29680276D01*
X216648954Y-29712752D01*
X216750690Y-29843692D01*
X216764894Y-29883136D01*
X216689911Y-29833147D01*
X216606712Y-29765498D01*
X216508405Y-29662347D01*
X216479576Y-29587220D01*
X216479712Y-29586863D01*
X216528102Y-29594005D01*
G36*
X219449253Y-27898207D02*
X220034786Y-28026273D01*
X220567910Y-28264570D01*
X221059962Y-28618889D01*
X221292846Y-28840046D01*
X221440756Y-28996871D01*
X221506586Y-29084822D01*
X221499612Y-29123246D01*
X221432567Y-29131500D01*
X221274339Y-29160651D01*
X221099981Y-29229345D01*
X220952153Y-29284843D01*
X220847859Y-29287833D01*
X220842915Y-29285253D01*
X220743803Y-29283899D01*
X220569741Y-29331738D01*
X220355335Y-29413729D01*
X220135193Y-29514829D01*
X219943921Y-29619997D01*
X219816128Y-29714192D01*
X219792908Y-29741620D01*
X219717048Y-29830462D01*
X219622013Y-29850458D01*
X219470637Y-29817723D01*
X219202073Y-29784708D01*
X218898741Y-29807122D01*
X218675194Y-29864802D01*
X218574493Y-29842443D01*
X218482121Y-29744719D01*
X218345924Y-29621549D01*
X218105040Y-29494648D01*
X217948853Y-29432548D01*
X217520409Y-29280593D01*
X217198009Y-29175649D01*
X216970947Y-29114748D01*
X216828516Y-29094920D01*
X216769957Y-29105674D01*
X216773258Y-29085150D01*
X216850371Y-28992306D01*
X216985897Y-28845211D01*
X217041000Y-28787653D01*
X217472875Y-28423231D01*
X217970714Y-28144412D01*
X218507763Y-27961078D01*
X219057262Y-27883111D01*
X219449253Y-27898207D01*
X219449253Y-27898207D01*
G37*
X219449253Y-27898207D02*
X220034786Y-28026273D01*
X220567910Y-28264570D01*
X221059962Y-28618889D01*
X221292846Y-28840046D01*
X221440756Y-28996871D01*
X221506586Y-29084822D01*
X221499612Y-29123246D01*
X221432567Y-29131500D01*
X221274339Y-29160651D01*
X221099981Y-29229345D01*
X220952153Y-29284843D01*
X220847859Y-29287833D01*
X220842915Y-29285253D01*
X220743803Y-29283899D01*
X220569741Y-29331738D01*
X220355335Y-29413729D01*
X220135193Y-29514829D01*
X219943921Y-29619997D01*
X219816128Y-29714192D01*
X219792908Y-29741620D01*
X219717048Y-29830462D01*
X219622013Y-29850458D01*
X219470637Y-29817723D01*
X219202073Y-29784708D01*
X218898741Y-29807122D01*
X218675194Y-29864802D01*
X218574493Y-29842443D01*
X218482121Y-29744719D01*
X218345924Y-29621549D01*
X218105040Y-29494648D01*
X217948853Y-29432548D01*
X217520409Y-29280593D01*
X217198009Y-29175649D01*
X216970947Y-29114748D01*
X216828516Y-29094920D01*
X216769957Y-29105674D01*
X216773258Y-29085150D01*
X216850371Y-28992306D01*
X216985897Y-28845211D01*
X217041000Y-28787653D01*
X217472875Y-28423231D01*
X217970714Y-28144412D01*
X218507763Y-27961078D01*
X219057262Y-27883111D01*
X219449253Y-27898207D01*
G36*
X216219003Y-29272750D02*
X216275625Y-29323849D01*
X216263824Y-29436244D01*
X216253666Y-29477792D01*
X216173811Y-29608705D01*
X216037522Y-29632916D01*
X215862511Y-29547969D01*
X215791313Y-29449000D01*
X216056750Y-29449000D01*
X216061784Y-29507514D01*
X216084752Y-29512500D01*
X216149415Y-29466404D01*
X216152000Y-29449000D01*
X216130334Y-29387150D01*
X216123997Y-29385500D01*
X216069783Y-29429996D01*
X216056750Y-29449000D01*
X215791313Y-29449000D01*
X215782987Y-29437427D01*
X215795114Y-29385500D01*
X215898000Y-29385500D01*
X215921233Y-29437767D01*
X215940333Y-29427833D01*
X215947933Y-29352473D01*
X215940333Y-29343166D01*
X215902582Y-29351883D01*
X215898000Y-29385500D01*
X215795114Y-29385500D01*
X215807794Y-29331208D01*
X215916853Y-29259135D01*
X216064854Y-29247442D01*
X216219003Y-29272750D01*
X216219003Y-29272750D01*
G37*
X216219003Y-29272750D02*
X216275625Y-29323849D01*
X216263824Y-29436244D01*
X216253666Y-29477792D01*
X216173811Y-29608705D01*
X216037522Y-29632916D01*
X215862511Y-29547969D01*
X215791313Y-29449000D01*
X216056750Y-29449000D01*
X216061784Y-29507514D01*
X216084752Y-29512500D01*
X216149415Y-29466404D01*
X216152000Y-29449000D01*
X216130334Y-29387150D01*
X216123997Y-29385500D01*
X216069783Y-29429996D01*
X216056750Y-29449000D01*
X215791313Y-29449000D01*
X215782987Y-29437427D01*
X215795114Y-29385500D01*
X215898000Y-29385500D01*
X215921233Y-29437767D01*
X215940333Y-29427833D01*
X215947933Y-29352473D01*
X215940333Y-29343166D01*
X215902582Y-29351883D01*
X215898000Y-29385500D01*
X215795114Y-29385500D01*
X215807794Y-29331208D01*
X215916853Y-29259135D01*
X216064854Y-29247442D01*
X216219003Y-29272750D01*
G36*
X222244178Y-28918172D02*
X222279750Y-28941000D01*
X222360443Y-29049110D01*
X222375000Y-29107525D01*
X222338406Y-29184821D01*
X222272826Y-29181053D01*
X222243974Y-29115625D01*
X222222513Y-29103434D01*
X222182521Y-29179125D01*
X222088903Y-29299134D01*
X221972578Y-29306395D01*
X221871468Y-29203349D01*
X221835275Y-29082135D01*
X221875071Y-29041645D01*
X221965260Y-29102913D01*
X221977030Y-29116612D01*
X222042270Y-29189154D01*
X222047020Y-29162184D01*
X222034708Y-29120267D01*
X222043376Y-28992715D01*
X222127959Y-28914552D01*
X222244178Y-28918172D01*
X222244178Y-28918172D01*
G37*
X222244178Y-28918172D02*
X222279750Y-28941000D01*
X222360443Y-29049110D01*
X222375000Y-29107525D01*
X222338406Y-29184821D01*
X222272826Y-29181053D01*
X222243974Y-29115625D01*
X222222513Y-29103434D01*
X222182521Y-29179125D01*
X222088903Y-29299134D01*
X221972578Y-29306395D01*
X221871468Y-29203349D01*
X221835275Y-29082135D01*
X221875071Y-29041645D01*
X221965260Y-29102913D01*
X221977030Y-29116612D01*
X222042270Y-29189154D01*
X222047020Y-29162184D01*
X222034708Y-29120267D01*
X222043376Y-28992715D01*
X222127959Y-28914552D01*
X222244178Y-28918172D01*
G36*
X215679356Y-28919920D02*
X215668228Y-28969451D01*
X215616987Y-29058832D01*
X215583852Y-29043859D01*
X215580500Y-29008247D01*
X215626618Y-28922140D01*
X215643272Y-28909699D01*
X215679356Y-28919920D01*
X215679356Y-28919920D01*
G37*
X215679356Y-28919920D02*
X215668228Y-28969451D01*
X215616987Y-29058832D01*
X215583852Y-29043859D01*
X215580500Y-29008247D01*
X215626618Y-28922140D01*
X215643272Y-28909699D01*
X215679356Y-28919920D01*
G36*
X216495723Y-28598415D02*
X216574671Y-28679931D01*
X216584043Y-28837980D01*
X216548014Y-28984071D01*
X216456299Y-29045693D01*
X216400564Y-29055335D01*
X216246699Y-29035824D01*
X216157193Y-28979007D01*
X216102840Y-28837266D01*
X216120017Y-28783896D01*
X216237881Y-28783896D01*
X216243830Y-28871967D01*
X216330969Y-28934904D01*
X216426350Y-28924366D01*
X216469500Y-28849497D01*
X216427192Y-28739023D01*
X216400467Y-28715330D01*
X216305367Y-28712463D01*
X216237881Y-28783896D01*
X216120017Y-28783896D01*
X216146068Y-28702954D01*
X216259600Y-28606737D01*
X216416160Y-28579280D01*
X216495723Y-28598415D01*
X216495723Y-28598415D01*
G37*
X216495723Y-28598415D02*
X216574671Y-28679931D01*
X216584043Y-28837980D01*
X216548014Y-28984071D01*
X216456299Y-29045693D01*
X216400564Y-29055335D01*
X216246699Y-29035824D01*
X216157193Y-28979007D01*
X216102840Y-28837266D01*
X216120017Y-28783896D01*
X216237881Y-28783896D01*
X216243830Y-28871967D01*
X216330969Y-28934904D01*
X216426350Y-28924366D01*
X216469500Y-28849497D01*
X216427192Y-28739023D01*
X216400467Y-28715330D01*
X216305367Y-28712463D01*
X216237881Y-28783896D01*
X216120017Y-28783896D01*
X216146068Y-28702954D01*
X216259600Y-28606737D01*
X216416160Y-28579280D01*
X216495723Y-28598415D01*
G36*
X222587111Y-27902757D02*
X222507090Y-27978321D01*
X222404958Y-28118053D01*
X222346328Y-28276316D01*
X222338373Y-28422269D01*
X222399347Y-28546179D01*
X222499987Y-28653321D01*
X222620588Y-28787372D01*
X222687620Y-28897821D01*
X222692500Y-28921130D01*
X222668762Y-28999720D01*
X222601350Y-28965495D01*
X222495966Y-28822644D01*
X222447153Y-28740757D01*
X222312251Y-28535903D01*
X222138698Y-28311648D01*
X222050278Y-28210270D01*
X221887118Y-28024237D01*
X221817017Y-27919164D01*
X221838805Y-27890864D01*
X221951312Y-27935150D01*
X221977133Y-27948419D01*
X222102600Y-28000240D01*
X222215111Y-27994266D01*
X222372678Y-27926139D01*
X222389883Y-27917407D01*
X222555659Y-27843864D01*
X222622837Y-27839727D01*
X222587111Y-27902757D01*
X222587111Y-27902757D01*
G37*
X222587111Y-27902757D02*
X222507090Y-27978321D01*
X222404958Y-28118053D01*
X222346328Y-28276316D01*
X222338373Y-28422269D01*
X222399347Y-28546179D01*
X222499987Y-28653321D01*
X222620588Y-28787372D01*
X222687620Y-28897821D01*
X222692500Y-28921130D01*
X222668762Y-28999720D01*
X222601350Y-28965495D01*
X222495966Y-28822644D01*
X222447153Y-28740757D01*
X222312251Y-28535903D01*
X222138698Y-28311648D01*
X222050278Y-28210270D01*
X221887118Y-28024237D01*
X221817017Y-27919164D01*
X221838805Y-27890864D01*
X221951312Y-27935150D01*
X221977133Y-27948419D01*
X222102600Y-28000240D01*
X222215111Y-27994266D01*
X222372678Y-27926139D01*
X222389883Y-27917407D01*
X222555659Y-27843864D01*
X222622837Y-27839727D01*
X222587111Y-27902757D01*
G36*
X221916926Y-28468301D02*
X221897312Y-28537676D01*
X221816772Y-28613488D01*
X221722787Y-28709935D01*
X221738002Y-28786279D01*
X221743878Y-28792478D01*
X221776767Y-28872977D01*
X221755698Y-28899548D01*
X221666428Y-28893447D01*
X221623165Y-28862265D01*
X221553800Y-28731644D01*
X221610391Y-28602414D01*
X221710231Y-28521112D01*
X221847741Y-28456862D01*
X221916926Y-28468301D01*
X221916926Y-28468301D01*
G37*
X221916926Y-28468301D02*
X221897312Y-28537676D01*
X221816772Y-28613488D01*
X221722787Y-28709935D01*
X221738002Y-28786279D01*
X221743878Y-28792478D01*
X221776767Y-28872977D01*
X221755698Y-28899548D01*
X221666428Y-28893447D01*
X221623165Y-28862265D01*
X221553800Y-28731644D01*
X221610391Y-28602414D01*
X221710231Y-28521112D01*
X221847741Y-28456862D01*
X221916926Y-28468301D01*
G36*
X214440133Y-28653110D02*
X214460268Y-28660590D01*
X214549720Y-28722605D01*
X214564500Y-28757293D01*
X214542361Y-28810533D01*
X214470118Y-28756250D01*
X214436293Y-28717296D01*
X214389962Y-28648453D01*
X214440133Y-28653110D01*
X214440133Y-28653110D01*
G37*
X214440133Y-28653110D02*
X214460268Y-28660590D01*
X214549720Y-28722605D01*
X214564500Y-28757293D01*
X214542361Y-28810533D01*
X214470118Y-28756250D01*
X214436293Y-28717296D01*
X214389962Y-28648453D01*
X214440133Y-28653110D01*
G36*
X215814577Y-28728017D02*
X215802750Y-28750500D01*
X215742919Y-28811142D01*
X215731754Y-28814000D01*
X215727422Y-28772982D01*
X215739250Y-28750500D01*
X215799080Y-28689857D01*
X215810245Y-28687000D01*
X215814577Y-28728017D01*
X215814577Y-28728017D01*
G37*
X215814577Y-28728017D02*
X215802750Y-28750500D01*
X215742919Y-28811142D01*
X215731754Y-28814000D01*
X215727422Y-28772982D01*
X215739250Y-28750500D01*
X215799080Y-28689857D01*
X215810245Y-28687000D01*
X215814577Y-28728017D01*
G36*
X215961500Y-28528250D02*
X215929750Y-28560000D01*
X215898000Y-28528250D01*
X215929750Y-28496500D01*
X215961500Y-28528250D01*
X215961500Y-28528250D01*
G37*
X215961500Y-28528250D02*
X215929750Y-28560000D01*
X215898000Y-28528250D01*
X215929750Y-28496500D01*
X215961500Y-28528250D01*
G36*
X216943922Y-28085240D02*
X217048161Y-28162132D01*
X217083099Y-28280832D01*
X217020818Y-28419908D01*
X217012613Y-28429282D01*
X216873580Y-28541318D01*
X216754023Y-28532061D01*
X216633079Y-28399693D01*
X216630632Y-28395973D01*
X216561867Y-28276368D01*
X216562887Y-28266625D01*
X216742466Y-28266625D01*
X216760549Y-28328661D01*
X216830276Y-28424126D01*
X216904869Y-28396936D01*
X216937885Y-28335346D01*
X216923060Y-28232006D01*
X216878440Y-28200501D01*
X216766509Y-28188032D01*
X216742466Y-28266625D01*
X216562887Y-28266625D01*
X216569246Y-28205926D01*
X216639203Y-28142609D01*
X216798298Y-28071588D01*
X216943922Y-28085240D01*
X216943922Y-28085240D01*
G37*
X216943922Y-28085240D02*
X217048161Y-28162132D01*
X217083099Y-28280832D01*
X217020818Y-28419908D01*
X217012613Y-28429282D01*
X216873580Y-28541318D01*
X216754023Y-28532061D01*
X216633079Y-28399693D01*
X216630632Y-28395973D01*
X216561867Y-28276368D01*
X216562887Y-28266625D01*
X216742466Y-28266625D01*
X216760549Y-28328661D01*
X216830276Y-28424126D01*
X216904869Y-28396936D01*
X216937885Y-28335346D01*
X216923060Y-28232006D01*
X216878440Y-28200501D01*
X216766509Y-28188032D01*
X216742466Y-28266625D01*
X216562887Y-28266625D01*
X216569246Y-28205926D01*
X216639203Y-28142609D01*
X216798298Y-28071588D01*
X216943922Y-28085240D01*
G36*
X215256277Y-28293988D02*
X215263000Y-28337750D01*
X215224002Y-28425325D01*
X215136330Y-28409633D01*
X215116559Y-28392393D01*
X215103717Y-28313236D01*
X215168077Y-28249056D01*
X215203247Y-28242500D01*
X215256277Y-28293988D01*
X215256277Y-28293988D01*
G37*
X215256277Y-28293988D02*
X215263000Y-28337750D01*
X215224002Y-28425325D01*
X215136330Y-28409633D01*
X215116559Y-28392393D01*
X215103717Y-28313236D01*
X215168077Y-28249056D01*
X215203247Y-28242500D01*
X215256277Y-28293988D01*
G36*
X221494709Y-28016649D02*
X221579212Y-28133343D01*
X221588159Y-28261171D01*
X221573963Y-28291007D01*
X221466304Y-28382021D01*
X221321147Y-28421882D01*
X221190224Y-28404199D01*
X221131018Y-28345711D01*
X221116680Y-28171682D01*
X221235176Y-28171682D01*
X221250480Y-28266287D01*
X221316666Y-28306000D01*
X221424237Y-28278194D01*
X221443115Y-28264217D01*
X221447466Y-28190915D01*
X221386256Y-28112225D01*
X221306483Y-28081580D01*
X221288305Y-28088196D01*
X221235176Y-28171682D01*
X221116680Y-28171682D01*
X221115352Y-28155569D01*
X221204390Y-27997135D01*
X221246992Y-27964437D01*
X221371640Y-27948033D01*
X221494709Y-28016649D01*
X221494709Y-28016649D01*
G37*
X221494709Y-28016649D02*
X221579212Y-28133343D01*
X221588159Y-28261171D01*
X221573963Y-28291007D01*
X221466304Y-28382021D01*
X221321147Y-28421882D01*
X221190224Y-28404199D01*
X221131018Y-28345711D01*
X221116680Y-28171682D01*
X221235176Y-28171682D01*
X221250480Y-28266287D01*
X221316666Y-28306000D01*
X221424237Y-28278194D01*
X221443115Y-28264217D01*
X221447466Y-28190915D01*
X221386256Y-28112225D01*
X221306483Y-28081580D01*
X221288305Y-28088196D01*
X221235176Y-28171682D01*
X221116680Y-28171682D01*
X221115352Y-28155569D01*
X221204390Y-27997135D01*
X221246992Y-27964437D01*
X221371640Y-27948033D01*
X221494709Y-28016649D01*
G36*
X215796131Y-27196002D02*
X215909843Y-27280029D01*
X216042158Y-27403649D01*
X216162258Y-27537441D01*
X216239322Y-27651980D01*
X216248176Y-27673920D01*
X216330305Y-27784922D01*
X216409960Y-27837029D01*
X216477530Y-27876599D01*
X216480870Y-27927513D01*
X216409528Y-28016850D01*
X216297438Y-28128559D01*
X216056750Y-28362900D01*
X215873766Y-27792475D01*
X215798608Y-27541406D01*
X215747598Y-27337351D01*
X215727389Y-27208978D01*
X215731842Y-27180990D01*
X215796131Y-27196002D01*
X215796131Y-27196002D01*
G37*
X215796131Y-27196002D02*
X215909843Y-27280029D01*
X216042158Y-27403649D01*
X216162258Y-27537441D01*
X216239322Y-27651980D01*
X216248176Y-27673920D01*
X216330305Y-27784922D01*
X216409960Y-27837029D01*
X216477530Y-27876599D01*
X216480870Y-27927513D01*
X216409528Y-28016850D01*
X216297438Y-28128559D01*
X216056750Y-28362900D01*
X215873766Y-27792475D01*
X215798608Y-27541406D01*
X215747598Y-27337351D01*
X215727389Y-27208978D01*
X215731842Y-27180990D01*
X215796131Y-27196002D01*
G36*
X217412773Y-27659955D02*
X217422867Y-27718625D01*
X217440034Y-27871187D01*
X217462023Y-27972625D01*
X217467228Y-28086554D01*
X217429406Y-28115500D01*
X217361912Y-28070476D01*
X217358500Y-28050638D01*
X217307039Y-27979247D01*
X217201741Y-27914353D01*
X217100686Y-27842068D01*
X217082564Y-27778907D01*
X217147364Y-27760597D01*
X217201783Y-27775817D01*
X217281528Y-27763386D01*
X217295000Y-27709543D01*
X217327285Y-27620768D01*
X217358500Y-27607500D01*
X217412773Y-27659955D01*
X217412773Y-27659955D01*
G37*
X217412773Y-27659955D02*
X217422867Y-27718625D01*
X217440034Y-27871187D01*
X217462023Y-27972625D01*
X217467228Y-28086554D01*
X217429406Y-28115500D01*
X217361912Y-28070476D01*
X217358500Y-28050638D01*
X217307039Y-27979247D01*
X217201741Y-27914353D01*
X217100686Y-27842068D01*
X217082564Y-27778907D01*
X217147364Y-27760597D01*
X217201783Y-27775817D01*
X217281528Y-27763386D01*
X217295000Y-27709543D01*
X217327285Y-27620768D01*
X217358500Y-27607500D01*
X217412773Y-27659955D01*
G36*
X220864401Y-27577357D02*
X220944430Y-27630067D01*
X221023845Y-27738735D01*
X221014606Y-27846740D01*
X220931861Y-27909609D01*
X220850291Y-27906415D01*
X220732528Y-27903803D01*
X220688565Y-27930961D01*
X220618317Y-27982157D01*
X220547467Y-27978681D01*
X220533500Y-27950672D01*
X220563990Y-27867807D01*
X220627063Y-27755666D01*
X220808666Y-27755666D01*
X220817383Y-27793417D01*
X220851000Y-27798000D01*
X220903267Y-27774766D01*
X220893333Y-27755666D01*
X220817973Y-27748066D01*
X220808666Y-27755666D01*
X220627063Y-27755666D01*
X220635317Y-27740992D01*
X220717265Y-27618308D01*
X220779620Y-27547838D01*
X220789054Y-27544000D01*
X220864401Y-27577357D01*
X220864401Y-27577357D01*
G37*
X220864401Y-27577357D02*
X220944430Y-27630067D01*
X221023845Y-27738735D01*
X221014606Y-27846740D01*
X220931861Y-27909609D01*
X220850291Y-27906415D01*
X220732528Y-27903803D01*
X220688565Y-27930961D01*
X220618317Y-27982157D01*
X220547467Y-27978681D01*
X220533500Y-27950672D01*
X220563990Y-27867807D01*
X220627063Y-27755666D01*
X220808666Y-27755666D01*
X220817383Y-27793417D01*
X220851000Y-27798000D01*
X220903267Y-27774766D01*
X220893333Y-27755666D01*
X220817973Y-27748066D01*
X220808666Y-27755666D01*
X220627063Y-27755666D01*
X220635317Y-27740992D01*
X220717265Y-27618308D01*
X220779620Y-27547838D01*
X220789054Y-27544000D01*
X220864401Y-27577357D01*
G36*
X218275746Y-27324574D02*
X218266939Y-27394432D01*
X218280879Y-27516926D01*
X218343671Y-27584276D01*
X218419438Y-27673129D01*
X218394695Y-27724496D01*
X218295521Y-27711109D01*
X218246961Y-27685400D01*
X218160161Y-27641312D01*
X218152669Y-27679024D01*
X218161393Y-27703679D01*
X218149933Y-27784267D01*
X218095543Y-27798000D01*
X218006418Y-27757766D01*
X217992632Y-27718625D01*
X217976317Y-27597980D01*
X217950675Y-27485664D01*
X217935046Y-27377719D01*
X217983656Y-27361993D01*
X218013009Y-27371766D01*
X218119622Y-27376347D01*
X218153963Y-27350726D01*
X218227995Y-27290301D01*
X218275746Y-27324574D01*
X218275746Y-27324574D01*
G37*
X218275746Y-27324574D02*
X218266939Y-27394432D01*
X218280879Y-27516926D01*
X218343671Y-27584276D01*
X218419438Y-27673129D01*
X218394695Y-27724496D01*
X218295521Y-27711109D01*
X218246961Y-27685400D01*
X218160161Y-27641312D01*
X218152669Y-27679024D01*
X218161393Y-27703679D01*
X218149933Y-27784267D01*
X218095543Y-27798000D01*
X218006418Y-27757766D01*
X217992632Y-27718625D01*
X217976317Y-27597980D01*
X217950675Y-27485664D01*
X217935046Y-27377719D01*
X217983656Y-27361993D01*
X218013009Y-27371766D01*
X218119622Y-27376347D01*
X218153963Y-27350726D01*
X218227995Y-27290301D01*
X218275746Y-27324574D01*
G36*
X220064155Y-27270698D02*
X220161871Y-27378639D01*
X220196427Y-27513339D01*
X220160487Y-27637813D01*
X220046718Y-27715077D01*
X220008922Y-27722264D01*
X219873562Y-27715985D01*
X219809529Y-27681160D01*
X219792729Y-27579845D01*
X219794518Y-27565166D01*
X219919666Y-27565166D01*
X219928383Y-27602917D01*
X219962000Y-27607500D01*
X220014267Y-27584266D01*
X220004333Y-27565166D01*
X219928973Y-27557566D01*
X219919666Y-27565166D01*
X219794518Y-27565166D01*
X219810416Y-27434787D01*
X219828323Y-27374666D01*
X219983166Y-27374666D01*
X219991883Y-27412417D01*
X220025500Y-27417000D01*
X220077767Y-27393766D01*
X220067833Y-27374666D01*
X219992473Y-27367066D01*
X219983166Y-27374666D01*
X219828323Y-27374666D01*
X219850643Y-27299731D01*
X219901462Y-27228419D01*
X219910612Y-27226500D01*
X220064155Y-27270698D01*
X220064155Y-27270698D01*
G37*
X220064155Y-27270698D02*
X220161871Y-27378639D01*
X220196427Y-27513339D01*
X220160487Y-27637813D01*
X220046718Y-27715077D01*
X220008922Y-27722264D01*
X219873562Y-27715985D01*
X219809529Y-27681160D01*
X219792729Y-27579845D01*
X219794518Y-27565166D01*
X219919666Y-27565166D01*
X219928383Y-27602917D01*
X219962000Y-27607500D01*
X220014267Y-27584266D01*
X220004333Y-27565166D01*
X219928973Y-27557566D01*
X219919666Y-27565166D01*
X219794518Y-27565166D01*
X219810416Y-27434787D01*
X219828323Y-27374666D01*
X219983166Y-27374666D01*
X219991883Y-27412417D01*
X220025500Y-27417000D01*
X220077767Y-27393766D01*
X220067833Y-27374666D01*
X219992473Y-27367066D01*
X219983166Y-27374666D01*
X219828323Y-27374666D01*
X219850643Y-27299731D01*
X219901462Y-27228419D01*
X219910612Y-27226500D01*
X220064155Y-27270698D01*
G36*
X221985131Y-27267208D02*
X221994000Y-27348454D01*
X221941793Y-27455999D01*
X221803500Y-27512250D01*
X221669938Y-27567622D01*
X221613022Y-27642891D01*
X221613000Y-27644295D01*
X221598671Y-27711692D01*
X221542790Y-27716405D01*
X221426013Y-27652228D01*
X221248724Y-27527412D01*
X221104098Y-27412236D01*
X221020373Y-27326872D01*
X221011380Y-27298952D01*
X221077626Y-27311310D01*
X221198955Y-27382934D01*
X221220741Y-27398635D01*
X221398420Y-27529999D01*
X221648585Y-27378575D01*
X221835137Y-27272005D01*
X221939771Y-27235541D01*
X221985131Y-27267208D01*
X221985131Y-27267208D01*
G37*
X221985131Y-27267208D02*
X221994000Y-27348454D01*
X221941793Y-27455999D01*
X221803500Y-27512250D01*
X221669938Y-27567622D01*
X221613022Y-27642891D01*
X221613000Y-27644295D01*
X221598671Y-27711692D01*
X221542790Y-27716405D01*
X221426013Y-27652228D01*
X221248724Y-27527412D01*
X221104098Y-27412236D01*
X221020373Y-27326872D01*
X221011380Y-27298952D01*
X221077626Y-27311310D01*
X221198955Y-27382934D01*
X221220741Y-27398635D01*
X221398420Y-27529999D01*
X221648585Y-27378575D01*
X221835137Y-27272005D01*
X221939771Y-27235541D01*
X221985131Y-27267208D01*
G36*
X218676384Y-27217741D02*
X218722925Y-27349795D01*
X218723750Y-27353500D01*
X218781052Y-27489397D01*
X218859542Y-27544000D01*
X218921286Y-27576111D01*
X218914250Y-27607500D01*
X218816291Y-27670789D01*
X218697150Y-27646220D01*
X218611462Y-27547819D01*
X218605023Y-27528125D01*
X218569167Y-27329237D01*
X218580711Y-27199039D01*
X218623454Y-27163000D01*
X218676384Y-27217741D01*
X218676384Y-27217741D01*
G37*
X218676384Y-27217741D02*
X218722925Y-27349795D01*
X218723750Y-27353500D01*
X218781052Y-27489397D01*
X218859542Y-27544000D01*
X218921286Y-27576111D01*
X218914250Y-27607500D01*
X218816291Y-27670789D01*
X218697150Y-27646220D01*
X218611462Y-27547819D01*
X218605023Y-27528125D01*
X218569167Y-27329237D01*
X218580711Y-27199039D01*
X218623454Y-27163000D01*
X218676384Y-27217741D01*
G36*
X219250156Y-27222422D02*
X219275157Y-27337625D01*
X219309726Y-27464481D01*
X219358750Y-27512250D01*
X219411199Y-27457323D01*
X219442342Y-27337625D01*
X219481592Y-27196349D01*
X219534843Y-27172434D01*
X219574679Y-27263182D01*
X219581000Y-27351265D01*
X219531536Y-27530082D01*
X219399117Y-27623628D01*
X219247625Y-27623491D01*
X219164382Y-27557820D01*
X219136635Y-27397717D01*
X219136500Y-27380593D01*
X219156451Y-27222107D01*
X219201660Y-27167114D01*
X219250156Y-27222422D01*
X219250156Y-27222422D01*
G37*
X219250156Y-27222422D02*
X219275157Y-27337625D01*
X219309726Y-27464481D01*
X219358750Y-27512250D01*
X219411199Y-27457323D01*
X219442342Y-27337625D01*
X219481592Y-27196349D01*
X219534843Y-27172434D01*
X219574679Y-27263182D01*
X219581000Y-27351265D01*
X219531536Y-27530082D01*
X219399117Y-27623628D01*
X219247625Y-27623491D01*
X219164382Y-27557820D01*
X219136635Y-27397717D01*
X219136500Y-27380593D01*
X219156451Y-27222107D01*
X219201660Y-27167114D01*
X219250156Y-27222422D01*
G36*
X214310500Y-27575750D02*
X214278750Y-27607500D01*
X214247000Y-27575750D01*
X214278750Y-27544000D01*
X214310500Y-27575750D01*
X214310500Y-27575750D01*
G37*
X214310500Y-27575750D02*
X214278750Y-27607500D01*
X214247000Y-27575750D01*
X214278750Y-27544000D01*
X214310500Y-27575750D01*
G36*
X218330968Y-26537994D02*
X218347347Y-26632490D01*
X218337075Y-26686750D01*
X218324827Y-26803586D01*
X218392006Y-26842806D01*
X218455090Y-26845500D01*
X218608675Y-26809488D01*
X218691490Y-26750863D01*
X218822389Y-26685522D01*
X218920924Y-26694099D01*
X219057088Y-26693637D01*
X219110952Y-26629985D01*
X219192078Y-26533028D01*
X219293934Y-26537131D01*
X219378436Y-26630794D01*
X219404045Y-26718499D01*
X219432004Y-26908999D01*
X219023543Y-26908999D01*
X218430760Y-26967995D01*
X217817620Y-27141338D01*
X217422000Y-27311020D01*
X217212618Y-27412794D01*
X217048324Y-27492085D01*
X216962243Y-27532913D01*
X216959640Y-27534078D01*
X216925031Y-27507789D01*
X216927890Y-27475869D01*
X217008815Y-27327486D01*
X217146260Y-27228678D01*
X217263540Y-27212391D01*
X217393665Y-27201469D01*
X217583534Y-27148071D01*
X217694964Y-27104980D01*
X217910624Y-26989497D01*
X218041158Y-26851794D01*
X218092400Y-26751307D01*
X218178051Y-26604116D01*
X218266055Y-26530774D01*
X218330968Y-26537994D01*
X218330968Y-26537994D01*
G37*
X218330968Y-26537994D02*
X218347347Y-26632490D01*
X218337075Y-26686750D01*
X218324827Y-26803586D01*
X218392006Y-26842806D01*
X218455090Y-26845500D01*
X218608675Y-26809488D01*
X218691490Y-26750863D01*
X218822389Y-26685522D01*
X218920924Y-26694099D01*
X219057088Y-26693637D01*
X219110952Y-26629985D01*
X219192078Y-26533028D01*
X219293934Y-26537131D01*
X219378436Y-26630794D01*
X219404045Y-26718499D01*
X219432004Y-26908999D01*
X219023543Y-26908999D01*
X218430760Y-26967995D01*
X217817620Y-27141338D01*
X217422000Y-27311020D01*
X217212618Y-27412794D01*
X217048324Y-27492085D01*
X216962243Y-27532913D01*
X216959640Y-27534078D01*
X216925031Y-27507789D01*
X216927890Y-27475869D01*
X217008815Y-27327486D01*
X217146260Y-27228678D01*
X217263540Y-27212391D01*
X217393665Y-27201469D01*
X217583534Y-27148071D01*
X217694964Y-27104980D01*
X217910624Y-26989497D01*
X218041158Y-26851794D01*
X218092400Y-26751307D01*
X218178051Y-26604116D01*
X218266055Y-26530774D01*
X218330968Y-26537994D01*
G36*
X224113823Y-27128177D02*
X224034623Y-27189750D01*
X224026000Y-27194750D01*
X223876516Y-27262130D01*
X223772000Y-27285499D01*
X223747676Y-27261322D01*
X223826876Y-27199749D01*
X223835500Y-27194750D01*
X223984983Y-27127369D01*
X224089500Y-27104000D01*
X224113823Y-27128177D01*
X224113823Y-27128177D01*
G37*
X224113823Y-27128177D02*
X224034623Y-27189750D01*
X224026000Y-27194750D01*
X223876516Y-27262130D01*
X223772000Y-27285499D01*
X223747676Y-27261322D01*
X223826876Y-27199749D01*
X223835500Y-27194750D01*
X223984983Y-27127369D01*
X224089500Y-27104000D01*
X224113823Y-27128177D01*
G36*
X220724000Y-27194750D02*
X220692250Y-27226500D01*
X220660500Y-27194750D01*
X220692250Y-27163000D01*
X220724000Y-27194750D01*
X220724000Y-27194750D01*
G37*
X220724000Y-27194750D02*
X220692250Y-27226500D01*
X220660500Y-27194750D01*
X220692250Y-27163000D01*
X220724000Y-27194750D01*
G36*
X220575833Y-27120666D02*
X220567116Y-27158417D01*
X220533500Y-27163000D01*
X220481232Y-27139766D01*
X220491166Y-27120666D01*
X220566526Y-27113066D01*
X220575833Y-27120666D01*
X220575833Y-27120666D01*
G37*
X220575833Y-27120666D02*
X220567116Y-27158417D01*
X220533500Y-27163000D01*
X220481232Y-27139766D01*
X220491166Y-27120666D01*
X220566526Y-27113066D01*
X220575833Y-27120666D01*
G36*
X216690611Y-26555151D02*
X216848861Y-26653833D01*
X217001372Y-26794991D01*
X217061753Y-26923747D01*
X217024723Y-27018457D01*
X216945908Y-27051511D01*
X216845991Y-27047277D01*
X216762803Y-26972758D01*
X216668488Y-26803479D01*
X216595414Y-26622706D01*
X216601996Y-26540588D01*
X216690611Y-26555151D01*
X216690611Y-26555151D01*
G37*
X216690611Y-26555151D02*
X216848861Y-26653833D01*
X217001372Y-26794991D01*
X217061753Y-26923747D01*
X217024723Y-27018457D01*
X216945908Y-27051511D01*
X216845991Y-27047277D01*
X216762803Y-26972758D01*
X216668488Y-26803479D01*
X216595414Y-26622706D01*
X216601996Y-26540588D01*
X216690611Y-26555151D01*
G36*
X220192893Y-26914033D02*
X220298481Y-26978599D01*
X220378872Y-27055607D01*
X220370368Y-27084714D01*
X220262769Y-27067163D01*
X220057871Y-27007910D01*
X219903662Y-26957835D01*
X219860965Y-26929513D01*
X219919680Y-26908097D01*
X219981602Y-26895780D01*
X220192893Y-26914033D01*
X220192893Y-26914033D01*
G37*
X220192893Y-26914033D02*
X220298481Y-26978599D01*
X220378872Y-27055607D01*
X220370368Y-27084714D01*
X220262769Y-27067163D01*
X220057871Y-27007910D01*
X219903662Y-26957835D01*
X219860965Y-26929513D01*
X219919680Y-26908097D01*
X219981602Y-26895780D01*
X220192893Y-26914033D01*
G36*
X223010000Y-26877250D02*
X222978250Y-26909000D01*
X222946500Y-26877250D01*
X222978250Y-26845500D01*
X223010000Y-26877250D01*
X223010000Y-26877250D01*
G37*
X223010000Y-26877250D02*
X222978250Y-26909000D01*
X222946500Y-26877250D01*
X222978250Y-26845500D01*
X223010000Y-26877250D01*
D12*
X200833334Y-24897143D02*
X200785715Y-24944762D01*
X200642858Y-24992381D01*
X200547620Y-24992381D01*
X200404762Y-24944762D01*
X200309524Y-24849524D01*
X200261905Y-24754286D01*
X200214286Y-24563810D01*
X200214286Y-24420952D01*
X200261905Y-24230476D01*
X200309524Y-24135238D01*
X200404762Y-24040000D01*
X200547620Y-23992381D01*
X200642858Y-23992381D01*
X200785715Y-24040000D01*
X200833334Y-24087619D01*
X201404762Y-24420952D02*
X201309524Y-24373333D01*
X201261905Y-24325714D01*
X201214286Y-24230476D01*
X201214286Y-24182857D01*
X201261905Y-24087619D01*
X201309524Y-24040000D01*
X201404762Y-23992381D01*
X201595239Y-23992381D01*
X201690477Y-24040000D01*
X201738096Y-24087619D01*
X201785715Y-24182857D01*
X201785715Y-24230476D01*
X201738096Y-24325714D01*
X201690477Y-24373333D01*
X201595239Y-24420952D01*
X201404762Y-24420952D01*
X201309524Y-24468571D01*
X201261905Y-24516190D01*
X201214286Y-24611429D01*
X201214286Y-24801905D01*
X201261905Y-24897143D01*
X201309524Y-24944762D01*
X201404762Y-24992381D01*
X201595239Y-24992381D01*
X201690477Y-24944762D01*
X201738096Y-24897143D01*
X201785715Y-24801905D01*
X201785715Y-24611429D01*
X201738096Y-24516190D01*
X201690477Y-24468571D01*
X201595239Y-24420952D01*
X206399048Y-26101429D02*
X207160953Y-26101429D01*
X206780001Y-26482381D02*
X206780001Y-25720476D01*
X196801905Y-65951501D02*
X196801905Y-64951501D01*
X197182858Y-64951501D01*
X197278096Y-64999120D01*
X197325715Y-65046739D01*
X197373334Y-65141977D01*
X197373334Y-65284834D01*
X197325715Y-65380072D01*
X197278096Y-65427691D01*
X197182858Y-65475310D01*
X196801905Y-65475310D01*
X197706667Y-64951501D02*
X198325715Y-64951501D01*
X197992381Y-65332453D01*
X198135239Y-65332453D01*
X198230477Y-65380072D01*
X198278096Y-65427691D01*
X198325715Y-65522930D01*
X198325715Y-65761025D01*
X198278096Y-65856263D01*
X198230477Y-65903882D01*
X198135239Y-65951501D01*
X197849524Y-65951501D01*
X197754286Y-65903882D01*
X197706667Y-65856263D01*
X209938095Y-65492381D02*
X209938095Y-66301905D01*
X209985714Y-66397143D01*
X210033333Y-66444762D01*
X210128571Y-66492381D01*
X210319048Y-66492381D01*
X210414286Y-66444762D01*
X210461905Y-66397143D01*
X210509524Y-66301905D01*
X210509524Y-65492381D01*
X210938095Y-65587619D02*
X210985714Y-65540000D01*
X211080952Y-65492381D01*
X211319048Y-65492381D01*
X211414286Y-65540000D01*
X211461905Y-65587619D01*
X211509524Y-65682857D01*
X211509524Y-65778095D01*
X211461905Y-65920952D01*
X210890476Y-66492381D01*
X211509524Y-66492381D01*
X218607143Y-39666666D02*
X218654762Y-39714285D01*
X218702381Y-39857142D01*
X218702381Y-39952380D01*
X218654762Y-40095238D01*
X218559524Y-40190476D01*
X218464286Y-40238095D01*
X218273810Y-40285714D01*
X218130952Y-40285714D01*
X217940476Y-40238095D01*
X217845238Y-40190476D01*
X217750000Y-40095238D01*
X217702381Y-39952380D01*
X217702381Y-39857142D01*
X217750000Y-39714285D01*
X217797619Y-39666666D01*
X218702381Y-38714285D02*
X218702381Y-39285714D01*
X218702381Y-39000000D02*
X217702381Y-39000000D01*
X217845238Y-39095238D01*
X217940476Y-39190476D01*
X217988095Y-39285714D01*
X222107143Y-59166666D02*
X222154762Y-59214285D01*
X222202381Y-59357142D01*
X222202381Y-59452380D01*
X222154762Y-59595238D01*
X222059524Y-59690476D01*
X221964286Y-59738095D01*
X221773810Y-59785714D01*
X221630952Y-59785714D01*
X221440476Y-59738095D01*
X221345238Y-59690476D01*
X221250000Y-59595238D01*
X221202381Y-59452380D01*
X221202381Y-59357142D01*
X221250000Y-59214285D01*
X221297619Y-59166666D01*
X221297619Y-58785714D02*
X221250000Y-58738095D01*
X221202381Y-58642857D01*
X221202381Y-58404761D01*
X221250000Y-58309523D01*
X221297619Y-58261904D01*
X221392857Y-58214285D01*
X221488095Y-58214285D01*
X221630952Y-58261904D01*
X222202381Y-58833333D01*
X222202381Y-58214285D01*
X223607143Y-37166666D02*
X223654762Y-37214285D01*
X223702381Y-37357142D01*
X223702381Y-37452380D01*
X223654762Y-37595238D01*
X223559524Y-37690476D01*
X223464286Y-37738095D01*
X223273810Y-37785714D01*
X223130952Y-37785714D01*
X222940476Y-37738095D01*
X222845238Y-37690476D01*
X222750000Y-37595238D01*
X222702381Y-37452380D01*
X222702381Y-37357142D01*
X222750000Y-37214285D01*
X222797619Y-37166666D01*
X222702381Y-36833333D02*
X222702381Y-36214285D01*
X223083333Y-36547619D01*
X223083333Y-36404761D01*
X223130952Y-36309523D01*
X223178571Y-36261904D01*
X223273810Y-36214285D01*
X223511905Y-36214285D01*
X223607143Y-36261904D01*
X223654762Y-36309523D01*
X223702381Y-36404761D01*
X223702381Y-36690476D01*
X223654762Y-36785714D01*
X223607143Y-36833333D01*
X235607143Y-49166666D02*
X235654762Y-49214285D01*
X235702381Y-49357142D01*
X235702381Y-49452380D01*
X235654762Y-49595238D01*
X235559524Y-49690476D01*
X235464286Y-49738095D01*
X235273810Y-49785714D01*
X235130952Y-49785714D01*
X234940476Y-49738095D01*
X234845238Y-49690476D01*
X234750000Y-49595238D01*
X234702381Y-49452380D01*
X234702381Y-49357142D01*
X234750000Y-49214285D01*
X234797619Y-49166666D01*
X235035714Y-48309523D02*
X235702381Y-48309523D01*
X234654762Y-48547619D02*
X235369048Y-48785714D01*
X235369048Y-48166666D01*
X230107143Y-65666666D02*
X230154762Y-65714285D01*
X230202381Y-65857142D01*
X230202381Y-65952380D01*
X230154762Y-66095238D01*
X230059524Y-66190476D01*
X229964286Y-66238095D01*
X229773810Y-66285714D01*
X229630952Y-66285714D01*
X229440476Y-66238095D01*
X229345238Y-66190476D01*
X229250000Y-66095238D01*
X229202381Y-65952380D01*
X229202381Y-65857142D01*
X229250000Y-65714285D01*
X229297619Y-65666666D01*
X229202381Y-64809523D02*
X229202381Y-65000000D01*
X229250000Y-65095238D01*
X229297619Y-65142857D01*
X229440476Y-65238095D01*
X229630952Y-65285714D01*
X230011905Y-65285714D01*
X230107143Y-65238095D01*
X230154762Y-65190476D01*
X230202381Y-65095238D01*
X230202381Y-64904761D01*
X230154762Y-64809523D01*
X230107143Y-64761904D01*
X230011905Y-64714285D01*
X229773810Y-64714285D01*
X229678571Y-64761904D01*
X229630952Y-64809523D01*
X229583333Y-64904761D01*
X229583333Y-65095238D01*
X229630952Y-65190476D01*
X229678571Y-65238095D01*
X229773810Y-65285714D01*
X207607143Y-33166666D02*
X207654762Y-33214285D01*
X207702381Y-33357142D01*
X207702381Y-33452380D01*
X207654762Y-33595238D01*
X207559524Y-33690476D01*
X207464286Y-33738095D01*
X207273810Y-33785714D01*
X207130952Y-33785714D01*
X206940476Y-33738095D01*
X206845238Y-33690476D01*
X206750000Y-33595238D01*
X206702381Y-33452380D01*
X206702381Y-33357142D01*
X206750000Y-33214285D01*
X206797619Y-33166666D01*
X206702381Y-32833333D02*
X206702381Y-32166666D01*
X207702381Y-32595238D01*
X229023810Y-55502381D02*
X229023810Y-54502381D01*
X230071429Y-55407143D02*
X230023810Y-55454762D01*
X229880953Y-55502381D01*
X229785715Y-55502381D01*
X229642857Y-55454762D01*
X229547619Y-55359524D01*
X229500000Y-55264286D01*
X229452381Y-55073810D01*
X229452381Y-54930952D01*
X229500000Y-54740476D01*
X229547619Y-54645238D01*
X229642857Y-54550000D01*
X229785715Y-54502381D01*
X229880953Y-54502381D01*
X230023810Y-54550000D01*
X230071429Y-54597619D01*
X231023810Y-55502381D02*
X230452381Y-55502381D01*
X230738095Y-55502381D02*
X230738095Y-54502381D01*
X230642857Y-54645238D01*
X230547619Y-54740476D01*
X230452381Y-54788095D01*
X234261905Y-55142381D02*
X234261905Y-54142381D01*
X234642858Y-54142381D01*
X234738096Y-54190000D01*
X234785715Y-54237619D01*
X234833334Y-54332857D01*
X234833334Y-54475714D01*
X234785715Y-54570952D01*
X234738096Y-54618571D01*
X234642858Y-54666190D01*
X234261905Y-54666190D01*
X235785715Y-55142381D02*
X235214286Y-55142381D01*
X235500000Y-55142381D02*
X235500000Y-54142381D01*
X235404762Y-54285238D01*
X235309524Y-54380476D01*
X235214286Y-54428095D01*
X204531905Y-65951501D02*
X204531905Y-64951501D01*
X204912858Y-64951501D01*
X205008096Y-64999120D01*
X205055715Y-65046739D01*
X205103334Y-65141977D01*
X205103334Y-65284834D01*
X205055715Y-65380072D01*
X205008096Y-65427691D01*
X204912858Y-65475310D01*
X204531905Y-65475310D01*
X205484286Y-65046739D02*
X205531905Y-64999120D01*
X205627143Y-64951501D01*
X205865239Y-64951501D01*
X205960477Y-64999120D01*
X206008096Y-65046739D01*
X206055715Y-65141977D01*
X206055715Y-65237215D01*
X206008096Y-65380072D01*
X205436667Y-65951501D01*
X206055715Y-65951501D01*
X236952381Y-32238095D02*
X235952381Y-32238095D01*
X235952381Y-31857142D01*
X236000000Y-31761904D01*
X236047619Y-31714285D01*
X236142857Y-31666666D01*
X236285714Y-31666666D01*
X236380952Y-31714285D01*
X236428571Y-31761904D01*
X236476190Y-31857142D01*
X236476190Y-32238095D01*
X235952381Y-30761904D02*
X235952381Y-31238095D01*
X236428571Y-31285714D01*
X236380952Y-31238095D01*
X236333333Y-31142857D01*
X236333333Y-30904761D01*
X236380952Y-30809523D01*
X236428571Y-30761904D01*
X236523810Y-30714285D01*
X236761905Y-30714285D01*
X236857143Y-30761904D01*
X236904762Y-30809523D01*
X236952381Y-30904761D01*
X236952381Y-31142857D01*
X236904762Y-31238095D01*
X236857143Y-31285714D01*
X191951501Y-60658095D02*
X190951501Y-60658095D01*
X190951501Y-60277142D01*
X190999120Y-60181904D01*
X191046739Y-60134285D01*
X191141977Y-60086666D01*
X191284834Y-60086666D01*
X191380072Y-60134285D01*
X191427691Y-60181904D01*
X191475310Y-60277142D01*
X191475310Y-60658095D01*
X190951501Y-59229523D02*
X190951501Y-59420000D01*
X190999120Y-59515238D01*
X191046739Y-59562857D01*
X191189596Y-59658095D01*
X191380072Y-59705714D01*
X191761025Y-59705714D01*
X191856263Y-59658095D01*
X191903882Y-59610476D01*
X191951501Y-59515238D01*
X191951501Y-59324761D01*
X191903882Y-59229523D01*
X191856263Y-59181904D01*
X191761025Y-59134285D01*
X191522930Y-59134285D01*
X191427691Y-59181904D01*
X191380072Y-59229523D01*
X191332453Y-59324761D01*
X191332453Y-59515238D01*
X191380072Y-59610476D01*
X191427691Y-59658095D01*
X191522930Y-59705714D01*
X200286594Y-63800953D02*
X200953261Y-63610477D01*
X200477070Y-63420000D01*
X200953261Y-63229524D01*
X200286594Y-63039048D01*
X200905642Y-62705715D02*
X200953261Y-62610477D01*
X200953261Y-62420001D01*
X200905642Y-62324762D01*
X200810404Y-62277143D01*
X200762785Y-62277143D01*
X200667547Y-62324762D01*
X200619928Y-62420001D01*
X200619928Y-62562858D01*
X200572309Y-62658096D01*
X200477070Y-62705715D01*
X200429451Y-62705715D01*
X200334213Y-62658096D01*
X200286594Y-62562858D01*
X200286594Y-62420001D01*
X200334213Y-62324762D01*
X200953261Y-61848572D02*
X199953261Y-61848572D01*
X200572309Y-61753334D02*
X200953261Y-61467619D01*
X200286594Y-61467619D02*
X200667547Y-61848572D01*
X200953261Y-60610476D02*
X200429451Y-60610476D01*
X200334213Y-60658095D01*
X200286594Y-60753333D01*
X200286594Y-60943810D01*
X200334213Y-61039048D01*
X200905642Y-60610476D02*
X200953261Y-60705714D01*
X200953261Y-60943810D01*
X200905642Y-61039048D01*
X200810404Y-61086667D01*
X200715166Y-61086667D01*
X200619928Y-61039048D01*
X200572309Y-60943810D01*
X200572309Y-60705714D01*
X200524690Y-60610476D01*
X200286594Y-60229524D02*
X200286594Y-59705714D01*
X200953261Y-60229524D01*
X200953261Y-59705714D01*
X200953261Y-59181905D02*
X200905642Y-59277143D01*
X200858023Y-59324762D01*
X200762785Y-59372381D01*
X200477070Y-59372381D01*
X200381832Y-59324762D01*
X200334213Y-59277143D01*
X200286594Y-59181905D01*
X200286594Y-59039047D01*
X200334213Y-58943809D01*
X200381832Y-58896190D01*
X200477070Y-58848571D01*
X200762785Y-58848571D01*
X200858023Y-58896190D01*
X200905642Y-58943809D01*
X200953261Y-59039047D01*
X200953261Y-59181905D01*
X200286594Y-58515238D02*
X200953261Y-58324762D01*
X200477070Y-58134285D01*
X200953261Y-57943809D01*
X200286594Y-57753333D01*
X200953261Y-57372381D02*
X199953261Y-57372381D01*
X200572309Y-57277143D02*
X200953261Y-56991428D01*
X200286594Y-56991428D02*
X200667547Y-57372381D01*
X200953261Y-56134285D02*
X200429451Y-56134285D01*
X200334213Y-56181904D01*
X200286594Y-56277142D01*
X200286594Y-56467619D01*
X200334213Y-56562857D01*
X200905642Y-56134285D02*
X200953261Y-56229523D01*
X200953261Y-56467619D01*
X200905642Y-56562857D01*
X200810404Y-56610476D01*
X200715166Y-56610476D01*
X200619928Y-56562857D01*
X200572309Y-56467619D01*
X200572309Y-56229523D01*
X200524690Y-56134285D01*
X234261905Y-64642381D02*
X234261905Y-63642381D01*
X234642858Y-63642381D01*
X234738096Y-63690000D01*
X234785715Y-63737619D01*
X234833334Y-63832857D01*
X234833334Y-63975714D01*
X234785715Y-64070952D01*
X234738096Y-64118571D01*
X234642858Y-64166190D01*
X234261905Y-64166190D01*
X235166667Y-63642381D02*
X235833334Y-63642381D01*
X235404762Y-64642381D01*
X234261905Y-60142381D02*
X234261905Y-59142381D01*
X234642858Y-59142381D01*
X234738096Y-59190000D01*
X234785715Y-59237619D01*
X234833334Y-59332857D01*
X234833334Y-59475714D01*
X234785715Y-59570952D01*
X234738096Y-59618571D01*
X234642858Y-59666190D01*
X234261905Y-59666190D01*
X235404762Y-59570952D02*
X235309524Y-59523333D01*
X235261905Y-59475714D01*
X235214286Y-59380476D01*
X235214286Y-59332857D01*
X235261905Y-59237619D01*
X235309524Y-59190000D01*
X235404762Y-59142381D01*
X235595239Y-59142381D01*
X235690477Y-59190000D01*
X235738096Y-59237619D01*
X235785715Y-59332857D01*
X235785715Y-59380476D01*
X235738096Y-59475714D01*
X235690477Y-59523333D01*
X235595239Y-59570952D01*
X235404762Y-59570952D01*
X235309524Y-59618571D01*
X235261905Y-59666190D01*
X235214286Y-59761429D01*
X235214286Y-59951905D01*
X235261905Y-60047143D01*
X235309524Y-60094762D01*
X235404762Y-60142381D01*
X235595239Y-60142381D01*
X235690477Y-60094762D01*
X235738096Y-60047143D01*
X235785715Y-59951905D01*
X235785715Y-59761429D01*
X235738096Y-59666190D01*
X235690477Y-59618571D01*
X235595239Y-59570952D01*
X192951501Y-45134286D02*
X191951501Y-45134286D01*
X191951501Y-44753333D01*
X191999120Y-44658095D01*
X192046739Y-44610476D01*
X192141977Y-44562857D01*
X192284834Y-44562857D01*
X192380072Y-44610476D01*
X192427691Y-44658095D01*
X192475310Y-44753333D01*
X192475310Y-45134286D01*
X192951501Y-43610476D02*
X192951501Y-44181905D01*
X192951501Y-43896191D02*
X191951501Y-43896191D01*
X192094358Y-43991429D01*
X192189596Y-44086667D01*
X192237215Y-44181905D01*
X191951501Y-42991429D02*
X191951501Y-42896190D01*
X191999120Y-42800952D01*
X192046739Y-42753333D01*
X192141977Y-42705714D01*
X192332453Y-42658095D01*
X192570549Y-42658095D01*
X192761025Y-42705714D01*
X192856263Y-42753333D01*
X192903882Y-42800952D01*
X192951501Y-42896190D01*
X192951501Y-42991429D01*
X192903882Y-43086667D01*
X192856263Y-43134286D01*
X192761025Y-43181905D01*
X192570549Y-43229524D01*
X192332453Y-43229524D01*
X192141977Y-43181905D01*
X192046739Y-43134286D01*
X191999120Y-43086667D01*
X191951501Y-42991429D01*
X201286594Y-45110476D02*
X201286594Y-44729524D01*
X200953261Y-44967619D02*
X201810404Y-44967619D01*
X201905642Y-44920000D01*
X201953261Y-44824762D01*
X201953261Y-44729524D01*
X201953261Y-44396190D02*
X201286594Y-44396190D01*
X201477070Y-44396190D02*
X201381832Y-44348571D01*
X201334213Y-44300952D01*
X201286594Y-44205714D01*
X201286594Y-44110475D01*
X201953261Y-43777142D02*
X201286594Y-43777142D01*
X200953261Y-43777142D02*
X201000880Y-43824761D01*
X201048499Y-43777142D01*
X201000880Y-43729523D01*
X200953261Y-43777142D01*
X201048499Y-43777142D01*
X201286594Y-43300952D02*
X202286594Y-43300952D01*
X201334213Y-43300952D02*
X201286594Y-43205714D01*
X201286594Y-43015237D01*
X201334213Y-42919999D01*
X201381832Y-42872380D01*
X201477070Y-42824761D01*
X201762785Y-42824761D01*
X201858023Y-42872380D01*
X201905642Y-42919999D01*
X201953261Y-43015237D01*
X201953261Y-43205714D01*
X201905642Y-43300952D01*
X228602381Y-37166666D02*
X228126190Y-37500000D01*
X228602381Y-37738095D02*
X227602381Y-37738095D01*
X227602381Y-37357142D01*
X227650000Y-37261904D01*
X227697619Y-37214285D01*
X227792857Y-37166666D01*
X227935714Y-37166666D01*
X228030952Y-37214285D01*
X228078571Y-37261904D01*
X228126190Y-37357142D01*
X228126190Y-37738095D01*
X228602381Y-36214285D02*
X228602381Y-36785714D01*
X228602381Y-36500000D02*
X227602381Y-36500000D01*
X227745238Y-36595238D01*
X227840476Y-36690476D01*
X227888095Y-36785714D01*
X224904762Y-60802381D02*
X224571428Y-60326190D01*
X224333333Y-60802381D02*
X224333333Y-59802381D01*
X224714286Y-59802381D01*
X224809524Y-59850000D01*
X224857143Y-59897619D01*
X224904762Y-59992857D01*
X224904762Y-60135714D01*
X224857143Y-60230952D01*
X224809524Y-60278571D01*
X224714286Y-60326190D01*
X224333333Y-60326190D01*
X225095238Y-60897619D02*
X225857143Y-60897619D01*
X226047619Y-60754762D02*
X226142857Y-60802381D01*
X226333333Y-60802381D01*
X226428572Y-60754762D01*
X226476191Y-60659524D01*
X226476191Y-60611905D01*
X226428572Y-60516667D01*
X226333333Y-60469048D01*
X226190476Y-60469048D01*
X226095238Y-60421429D01*
X226047619Y-60326190D01*
X226047619Y-60278571D01*
X226095238Y-60183333D01*
X226190476Y-60135714D01*
X226333333Y-60135714D01*
X226428572Y-60183333D01*
X226904762Y-60802381D02*
X226904762Y-60135714D01*
X226904762Y-60230952D02*
X226952381Y-60183333D01*
X227047619Y-60135714D01*
X227190477Y-60135714D01*
X227285715Y-60183333D01*
X227333334Y-60278571D01*
X227333334Y-60802381D01*
X227333334Y-60278571D02*
X227380953Y-60183333D01*
X227476191Y-60135714D01*
X227619048Y-60135714D01*
X227714286Y-60183333D01*
X227761905Y-60278571D01*
X227761905Y-60802381D01*
X228666667Y-60802381D02*
X228666667Y-60278571D01*
X228619048Y-60183333D01*
X228523810Y-60135714D01*
X228333333Y-60135714D01*
X228238095Y-60183333D01*
X228666667Y-60754762D02*
X228571429Y-60802381D01*
X228333333Y-60802381D01*
X228238095Y-60754762D01*
X228190476Y-60659524D01*
X228190476Y-60564286D01*
X228238095Y-60469048D01*
X228333333Y-60421429D01*
X228571429Y-60421429D01*
X228666667Y-60373810D01*
X229285714Y-60802381D02*
X229190476Y-60754762D01*
X229142857Y-60659524D01*
X229142857Y-59802381D01*
X229809524Y-60802381D02*
X229714286Y-60754762D01*
X229666667Y-60659524D01*
X229666667Y-59802381D01*
X230714287Y-60802381D02*
X230142858Y-60802381D01*
X230428572Y-60802381D02*
X230428572Y-59802381D01*
X230333334Y-59945238D01*
X230238096Y-60040476D01*
X230142858Y-60088095D01*
X213904762Y-69102381D02*
X213571428Y-68626190D01*
X213333333Y-69102381D02*
X213333333Y-68102381D01*
X213714286Y-68102381D01*
X213809524Y-68150000D01*
X213857143Y-68197619D01*
X213904762Y-68292857D01*
X213904762Y-68435714D01*
X213857143Y-68530952D01*
X213809524Y-68578571D01*
X213714286Y-68626190D01*
X213333333Y-68626190D01*
X214095238Y-69197619D02*
X214857143Y-69197619D01*
X215047619Y-69054762D02*
X215142857Y-69102381D01*
X215333333Y-69102381D01*
X215428572Y-69054762D01*
X215476191Y-68959524D01*
X215476191Y-68911905D01*
X215428572Y-68816667D01*
X215333333Y-68769048D01*
X215190476Y-68769048D01*
X215095238Y-68721429D01*
X215047619Y-68626190D01*
X215047619Y-68578571D01*
X215095238Y-68483333D01*
X215190476Y-68435714D01*
X215333333Y-68435714D01*
X215428572Y-68483333D01*
X215904762Y-69102381D02*
X215904762Y-68435714D01*
X215904762Y-68530952D02*
X215952381Y-68483333D01*
X216047619Y-68435714D01*
X216190477Y-68435714D01*
X216285715Y-68483333D01*
X216333334Y-68578571D01*
X216333334Y-69102381D01*
X216333334Y-68578571D02*
X216380953Y-68483333D01*
X216476191Y-68435714D01*
X216619048Y-68435714D01*
X216714286Y-68483333D01*
X216761905Y-68578571D01*
X216761905Y-69102381D01*
X217666667Y-69102381D02*
X217666667Y-68578571D01*
X217619048Y-68483333D01*
X217523810Y-68435714D01*
X217333333Y-68435714D01*
X217238095Y-68483333D01*
X217666667Y-69054762D02*
X217571429Y-69102381D01*
X217333333Y-69102381D01*
X217238095Y-69054762D01*
X217190476Y-68959524D01*
X217190476Y-68864286D01*
X217238095Y-68769048D01*
X217333333Y-68721429D01*
X217571429Y-68721429D01*
X217666667Y-68673810D01*
X218285714Y-69102381D02*
X218190476Y-69054762D01*
X218142857Y-68959524D01*
X218142857Y-68102381D01*
X218809524Y-69102381D02*
X218714286Y-69054762D01*
X218666667Y-68959524D01*
X218666667Y-68102381D01*
X219142858Y-68197619D02*
X219190477Y-68150000D01*
X219285715Y-68102381D01*
X219523811Y-68102381D01*
X219619049Y-68150000D01*
X219666668Y-68197619D01*
X219714287Y-68292857D01*
X219714287Y-68388095D01*
X219666668Y-68530952D01*
X219095239Y-69102381D01*
X219714287Y-69102381D01*
X222977381Y-50249524D02*
X223977381Y-49582857D01*
X222977381Y-49582857D02*
X223977381Y-50249524D01*
X223977381Y-48678095D02*
X223977381Y-49249524D01*
X223977381Y-48963810D02*
X222977381Y-48963810D01*
X223120238Y-49059048D01*
X223215476Y-49154286D01*
X223263095Y-49249524D01*
X229762381Y-66761905D02*
X230571905Y-66761905D01*
X230667143Y-66714286D01*
X230714762Y-66666667D01*
X230762381Y-66571429D01*
X230762381Y-66380952D01*
X230714762Y-66285714D01*
X230667143Y-66238095D01*
X230571905Y-66190476D01*
X229762381Y-66190476D01*
X230762381Y-65190476D02*
X230762381Y-65761905D01*
X230762381Y-65476191D02*
X229762381Y-65476191D01*
X229905238Y-65571429D01*
X230000476Y-65666667D01*
X230048095Y-65761905D01*
X208261905Y-56327381D02*
X208261905Y-55327381D01*
X208642858Y-55327381D01*
X208738096Y-55375000D01*
X208785715Y-55422619D01*
X208833334Y-55517857D01*
X208833334Y-55660714D01*
X208785715Y-55755952D01*
X208738096Y-55803571D01*
X208642858Y-55851190D01*
X208261905Y-55851190D01*
X209309524Y-56327381D02*
X209500000Y-56327381D01*
X209595239Y-56279762D01*
X209642858Y-56232143D01*
X209738096Y-56089286D01*
X209785715Y-55898810D01*
X209785715Y-55517857D01*
X209738096Y-55422619D01*
X209690477Y-55375000D01*
X209595239Y-55327381D01*
X209404762Y-55327381D01*
X209309524Y-55375000D01*
X209261905Y-55422619D01*
X209214286Y-55517857D01*
X209214286Y-55755952D01*
X209261905Y-55851190D01*
X209309524Y-55898810D01*
X209404762Y-55946429D01*
X209595239Y-55946429D01*
X209690477Y-55898810D01*
X209738096Y-55851190D01*
X209785715Y-55755952D01*
M02*
