G04 #@! TF.FileFunction,Soldermask,Top*
%FSLAX46Y46*%
G04 Gerber Fmt 4.6, Leading zero omitted, Abs format (unit mm)*
G04 Created by KiCad (PCBNEW 4.0.2-stable) date 2/24/2017 09:05:39*
%MOMM*%
G01*
G04 APERTURE LIST*
%ADD10C,0.100000*%
%ADD11R,4.400000X2.900000*%
%ADD12O,2.398980X2.398980*%
%ADD13R,2.398980X2.398980*%
%ADD14R,3.900000X2.400000*%
%ADD15R,7.400000X7.400000*%
%ADD16R,2.000000X2.400000*%
%ADD17R,2.000000X0.950000*%
%ADD18R,0.950000X2.000000*%
%ADD19C,2.899360*%
%ADD20R,2.100000X2.400000*%
%ADD21R,2.400000X2.100000*%
%ADD22C,1.900000*%
%ADD23R,1.299160X2.398980*%
%ADD24R,1.400760X2.398980*%
%ADD25R,2.400000X1.000000*%
G04 APERTURE END LIST*
D10*
D11*
X205000000Y-31000000D03*
X197000000Y-31000000D03*
D12*
X200080000Y-70000000D03*
D13*
X195000000Y-70000000D03*
D12*
X197540000Y-70000000D03*
D14*
X214700000Y-63790000D03*
X214700000Y-59210000D03*
D15*
X207300000Y-61490000D03*
D16*
X220000000Y-41500000D03*
X220000000Y-37500000D03*
X220000000Y-57000000D03*
X220000000Y-61000000D03*
X225000000Y-39000000D03*
X225000000Y-35000000D03*
X237000000Y-51000000D03*
X237000000Y-47000000D03*
X231500000Y-67500000D03*
X231500000Y-63500000D03*
X209000000Y-35000000D03*
X209000000Y-31000000D03*
D17*
X234250000Y-51800000D03*
X234250000Y-51000000D03*
X234250000Y-50200000D03*
X234250000Y-49400000D03*
X234250000Y-48600000D03*
X234250000Y-47800000D03*
X234250000Y-47000000D03*
X234250000Y-46200000D03*
D18*
X232800000Y-44750000D03*
X232000000Y-44750000D03*
X231200000Y-44750000D03*
X230400000Y-44750000D03*
X229600000Y-44750000D03*
X228800000Y-44750000D03*
X228000000Y-44750000D03*
X227200000Y-44750000D03*
D17*
X225750000Y-46200000D03*
X225750000Y-47000000D03*
X225750000Y-47800000D03*
X225750000Y-48600000D03*
X225750000Y-49400000D03*
X225750000Y-50200000D03*
X225750000Y-51000000D03*
X225750000Y-51800000D03*
D18*
X227200000Y-53250000D03*
X228000000Y-53250000D03*
X228800000Y-53250000D03*
X229600000Y-53250000D03*
X230400000Y-53250000D03*
X231200000Y-53250000D03*
X232000000Y-53250000D03*
X232800000Y-53250000D03*
D19*
X235000000Y-58500000D03*
D12*
X206540000Y-70000000D03*
D13*
X204000000Y-70000000D03*
D10*
G36*
X234800000Y-35800000D02*
X239200000Y-35800000D01*
X239200000Y-37200000D01*
X234800000Y-37200000D01*
X234800000Y-35800000D01*
X234800000Y-35800000D01*
G37*
G36*
X234800000Y-33300000D02*
X239200000Y-33300000D01*
X239200000Y-34700000D01*
X234800000Y-34700000D01*
X234800000Y-33300000D01*
X234800000Y-33300000D01*
G37*
G36*
X234800000Y-30800000D02*
X239200000Y-30800000D01*
X239200000Y-32200000D01*
X234800000Y-32200000D01*
X234800000Y-30800000D01*
X234800000Y-30800000D01*
G37*
D12*
X196000000Y-57380000D03*
D13*
X196000000Y-65000000D03*
D12*
X196000000Y-62460000D03*
X196000000Y-59920000D03*
X196000000Y-54840000D03*
D19*
X235000000Y-68000000D03*
X235000000Y-63500000D03*
D12*
X197000000Y-41380000D03*
D13*
X197000000Y-49000000D03*
D12*
X197000000Y-46460000D03*
X197000000Y-43920000D03*
X197000000Y-38840000D03*
D20*
X230000000Y-39000000D03*
X230000000Y-35000000D03*
D21*
X229500000Y-58500000D03*
X225500000Y-58500000D03*
X214500000Y-70500000D03*
X218500000Y-70500000D03*
D22*
X220000000Y-47000000D03*
X220000000Y-51880000D03*
D23*
X225151260Y-62200160D03*
D24*
X227800480Y-62200160D03*
X227800480Y-69799840D03*
X225199520Y-69799840D03*
D25*
X213700000Y-54080000D03*
X213700000Y-52810000D03*
X213700000Y-51540000D03*
X213700000Y-50270000D03*
X213700000Y-49000000D03*
X213700000Y-47730000D03*
X213700000Y-46460000D03*
X213700000Y-45190000D03*
X213700000Y-43920000D03*
X204300000Y-43920000D03*
X204300000Y-45190000D03*
X204300000Y-46460000D03*
X204300000Y-47730000D03*
X204300000Y-49000000D03*
X204300000Y-50270000D03*
X204300000Y-51540000D03*
X204300000Y-52810000D03*
X204300000Y-54080000D03*
M02*
