G04 #@! TF.FileFunction,Legend,Bot*
%FSLAX46Y46*%
G04 Gerber Fmt 4.6, Leading zero omitted, Abs format (unit mm)*
G04 Created by KiCad (PCBNEW 4.0.2-stable) date 2/24/2017 09:05:39*
%MOMM*%
G01*
G04 APERTURE LIST*
%ADD10C,0.100000*%
%ADD11C,0.250000*%
G04 APERTURE END LIST*
D10*
D11*
X227025063Y-31610407D02*
X227109758Y-31415015D01*
X227060280Y-31207883D01*
X225958358Y-29894664D01*
X225796540Y-32516936D02*
X226003671Y-32467457D01*
X226295497Y-32222585D01*
X226380193Y-32027193D01*
X226330714Y-31820062D01*
X225840971Y-31236409D01*
X225645579Y-31151713D01*
X225438447Y-31201193D01*
X225146621Y-31446064D01*
X225061926Y-31641456D01*
X225111405Y-31848587D01*
X225233840Y-31994500D01*
X226085842Y-31528235D01*
X224417055Y-32058243D02*
X224909321Y-33385725D01*
X223687489Y-32670422D01*
X223249749Y-33037729D02*
X223742015Y-34365211D01*
X222520182Y-33649908D02*
X223742015Y-34365211D01*
X224194017Y-34607558D01*
X224328192Y-34619296D01*
X224535324Y-34569818D01*
X222793579Y-35161043D02*
X221508004Y-33628954D01*
X222157922Y-34699826D02*
X222209926Y-35650786D01*
X221352876Y-34629394D02*
X222426272Y-34723303D01*
X221553316Y-36201747D02*
X220696267Y-35180355D01*
X220941138Y-35472181D02*
X220745745Y-35387486D01*
X220611571Y-35375748D01*
X220404440Y-35425227D01*
X220258527Y-35547662D01*
X219948271Y-37548540D02*
X219274875Y-36746018D01*
X219225395Y-36538887D01*
X219310091Y-36343495D01*
X219601917Y-36098623D01*
X219809049Y-36049144D01*
X219887053Y-37475584D02*
X220094184Y-37426105D01*
X220458967Y-37120016D01*
X220543663Y-36924623D01*
X220494184Y-36717492D01*
X220371748Y-36571578D01*
X220176355Y-36486883D01*
X219969224Y-36536363D01*
X219604441Y-36842452D01*
X219397310Y-36891931D01*
X219218705Y-38160719D02*
X217933130Y-36628630D01*
X218583048Y-37699502D02*
X218635052Y-38650462D01*
X217778002Y-37629070D02*
X218851397Y-37722979D01*
X216417827Y-39267690D02*
X216429566Y-39133515D01*
X216514262Y-38938122D01*
X216660175Y-38815687D01*
X216867306Y-38766208D01*
X217001480Y-38777947D01*
X217196872Y-38862642D01*
X217319308Y-39008555D01*
X217368787Y-39215687D01*
X217357049Y-39349861D01*
X217272353Y-39545253D01*
X217126440Y-39667689D01*
X216919309Y-39717168D01*
X216785134Y-39705430D01*
X216295391Y-39121777D02*
X216785134Y-39705430D01*
X216773396Y-39839604D01*
X216700439Y-39900822D01*
X216493308Y-39950301D01*
X216297915Y-39865605D01*
X215991826Y-39500822D01*
X215954086Y-39159517D01*
X216050519Y-38829950D01*
X216281129Y-38512121D01*
X216634173Y-38340207D01*
X216975478Y-38302467D01*
X217305046Y-38398900D01*
X217622873Y-38629509D01*
X217794789Y-38982553D01*
X217832528Y-39323859D01*
X217736094Y-39653426D01*
X217505486Y-39971254D01*
X217152441Y-40143169D01*
X216811136Y-40180909D01*
X214494954Y-40383874D02*
X215535657Y-41624136D01*
X215731049Y-41708832D01*
X215865224Y-41720570D01*
X216072355Y-41671092D01*
X216291225Y-41487439D01*
X216375920Y-41292045D01*
X215290786Y-41332310D02*
X215497917Y-41282831D01*
X215789743Y-41037960D01*
X215874438Y-40842568D01*
X215886178Y-40708393D01*
X215836699Y-40501262D01*
X215469391Y-40063522D01*
X215273999Y-39978826D01*
X215139824Y-39967088D01*
X214932693Y-40016567D01*
X214640867Y-40261439D01*
X214556172Y-40456831D01*
X214622437Y-42017445D02*
X213765388Y-40996053D01*
X213887823Y-41141966D02*
X213753648Y-41130228D01*
X213546517Y-41179707D01*
X213327648Y-41363360D01*
X213242952Y-41558753D01*
X213292431Y-41765884D01*
X213965828Y-42568406D01*
X213292431Y-41765884D02*
X213097039Y-41681188D01*
X212889908Y-41730668D01*
X212671038Y-41914321D01*
X212586343Y-42109714D01*
X212635822Y-42316844D01*
X213309218Y-43119367D01*
X211923042Y-44282507D02*
X211249646Y-43479984D01*
X211200167Y-43272853D01*
X211284862Y-43077461D01*
X211576688Y-42832590D01*
X211783820Y-42783110D01*
X211861825Y-44209550D02*
X212068955Y-44160071D01*
X212433738Y-43853982D01*
X212518434Y-43658589D01*
X212468955Y-43451458D01*
X212346519Y-43305545D01*
X212151127Y-43220849D01*
X211943995Y-43270329D01*
X211579212Y-43576418D01*
X211372081Y-43625897D01*
X211193476Y-44894685D02*
X210336426Y-43873293D01*
X209907901Y-43362597D02*
X210042075Y-43374335D01*
X210030337Y-43508510D01*
X209896161Y-43496772D01*
X209907901Y-43362597D01*
X210030337Y-43508510D01*
X210245040Y-45690518D02*
X210329735Y-45495126D01*
X210280257Y-45287995D01*
X209178335Y-43974775D01*
X209538952Y-46034348D02*
X209527212Y-46168523D01*
X209661387Y-46180261D01*
X209673126Y-46046086D01*
X209538952Y-46034348D01*
X209661387Y-46180261D01*
X208213994Y-47270444D02*
X208421125Y-47220965D01*
X208712951Y-46976093D01*
X208797646Y-46780701D01*
X208809386Y-46646526D01*
X208759906Y-46439395D01*
X208392599Y-46001655D01*
X208197207Y-45916960D01*
X208063032Y-45905222D01*
X207855901Y-45954701D01*
X207564075Y-46199572D01*
X207479379Y-46394964D01*
X207399732Y-48078015D02*
X207484427Y-47882623D01*
X207496166Y-47748448D01*
X207446687Y-47541317D01*
X207079380Y-47103577D01*
X206883988Y-47018882D01*
X206749812Y-47007144D01*
X206542682Y-47056623D01*
X206323812Y-47240276D01*
X206239117Y-47435668D01*
X206227378Y-47569843D01*
X206276857Y-47776974D01*
X206644164Y-48214714D01*
X206839557Y-48299409D01*
X206973731Y-48311148D01*
X207180862Y-48261669D01*
X207399732Y-48078015D01*
X206232426Y-49057501D02*
X205375376Y-48036108D01*
X205497812Y-48182022D02*
X205363637Y-48170283D01*
X205156506Y-48219762D01*
X204937636Y-48403416D01*
X204852941Y-48598808D01*
X204902420Y-48805939D01*
X205575816Y-49608462D01*
X204902420Y-48805939D02*
X204707028Y-48721244D01*
X204499896Y-48770723D01*
X204281027Y-48954377D01*
X204196331Y-49149769D01*
X204245810Y-49356900D01*
X204919207Y-50159423D01*
M02*
