M48
;DRILL file {KiCad 4.0.2-stable} date 2/24/2017 09:05:41
;FORMAT={-:-/ absolute / metric / decimal}
FMAT,2
METRIC,TZ
T1C0.400
T2C0.800
T3C1.001
T4C1.097
%
G90
G05
M71
T1
X210.Y-47.5
X211.5Y-37.5
X211.5Y-45.
X211.5Y-47.5
X213.5Y-41.5
X214.Y-66.5
X216.Y-49.
X216.Y-50.5
X217.Y-66.5
X217.1Y-54.5
X217.5Y-37.5
X217.9Y-51.4
X217.9Y-51.4
X218.1Y-49.1
X218.1Y-49.1
X220.845Y-49.345
X222.5Y-56.5
X223.Y-51.6
X223.2Y-47.6
X223.5Y-66.5
X225.5Y-55.5
X226.Y-42.
X227.5Y-42.5
X227.5Y-55.5
X227.6Y-47.6
X228.Y-51.
X228.011Y-48.491
X228.8Y-46.2
X229.Y-42.5
X229.387Y-48.95
X229.5Y-50.5
X230.Y-32.5
X230.032Y-49.424
X230.839Y-46.539
X231.Y-56.
X231.4Y-47.8
X232.Y-48.5
X232.Y-47.
X232.Y-50.5
X232.Y-58.5
X232.5Y-32.5
X232.5Y-40.
X234.Y-38.
X234.5Y-55.5
X235.5Y-35.
X235.5Y-40.5
T2
X220.Y-47.
X220.Y-51.88
T3
X235.Y-58.5
X235.Y-63.5
X235.Y-68.
T4
X195.Y-70.
X196.Y-54.84
X196.Y-57.38
X196.Y-59.92
X196.Y-62.46
X196.Y-65.
X197.Y-38.84
X197.Y-41.38
X197.Y-43.92
X197.Y-46.46
X197.Y-49.
X197.54Y-70.
X200.08Y-70.
X204.Y-70.
X206.54Y-70.
T0
M30
